<svg width="40" height="40" viewBox="0 0 40 40" fill="none" xmlns="http://www.w3.org/2000/svg">
<path fill-rule="evenodd" clip-rule="evenodd" d="M20 0L20.3922 0.39604L20 0.792079H19.6078L19.2157 1.18812H20.3922V1.9802H21.5686L21.9608 1.58416V1.18812C22.7451 1.18812 22.7451 0.39604 22.3529 0.39604H21.5686L21.1765 0H20ZM18.0392 2.37624H17.6471L17.2549 2.77228H18.4314L18.8235 2.37624H18.0392ZM19.6078 2.37624L18.8235 2.77228H19.2157L18.4314 3.16832L17.6471 3.56436H17.2549L16.8627 3.9604H16.4706V4.35644H15.2941L14.902 4.75248H14.5098V5.14851H13.7255L13.3333 5.54455H12.549L12.1569 5.94059H11.7647L11.3725 6.33663H10.5882V6.73267L9.80392 7.12871L9.41176 7.52475C9.23986 7.76585 9.10746 8.03329 9.01961 8.31683L8.62745 8.71287V9.50495H7.84314L7.05882 10.297V10.6931L6.66667 11.0891L6.27451 11.4851V11.8812L5.88235 12.2772L5.4902 12.6733V13.4653H5.09804V12.2772H5.4902V11.0891L5.09804 11.4851V11.8812H4.70588V13.0693L4.31373 13.4653V12.2772L4.70588 11.8812L4.31373 11.4851V11.8812H3.92157V12.2772H3.52941V11.4851L3.92157 11.0891V10.6931L4.31373 10.297V9.50495L3.52941 10.297V10.6931H3.13725V11.0891H2.7451V11.8812L2.35294 12.2772V13.0693L1.96078 13.4653V14.6535L1.56863 15.0495L1.17647 15.8416V17.0297H0.392157V17.8218L0.784314 18.2178L0.392157 18.6139V19.4059L0 20.9901L0.392157 23.3663V24.1584L0.784314 24.5545V25.3465L1.17647 26.1386V26.9307L1.56863 27.3267V27.7228H1.96078V28.9109H2.35294V29.3069H2.7451V30.099H3.13725V30.495L3.52941 30.8911L3.92157 31.2871L4.31373 31.6832L5.09804 32.4752C6.30598 33.8919 7.6168 35.2157 9.01961 36.4356L9.41176 36.8317H9.80392L10.1961 37.2277L10.5882 37.6238L11.3725 38.0198H11.7647V38.4158H12.549L12.9412 38.8119H14.902V38.4158H16.4706V38.0198H16.8627L17.2549 37.6238L17.6471 37.2277H18.0392V36.8317L18.4314 36.4356C18.8235 36.0396 18.8235 34.0594 18.0392 33.6634C17.486 32.9092 16.8253 32.2418 16.0784 31.6832H15.6863L15.2941 31.2871H12.9412V30.8911H11.7647L10.9804 30.495H10.1961L9.80392 30.099L9.41176 29.703L9.01961 29.3069V28.9109H8.62745V28.1188L7.84314 27.7228L7.45098 27.3267V26.9307H7.84314V26.5347C7.84314 26.1386 7.84314 26.1386 7.84314 26.5347H8.23529V26.9307L8.62745 27.3267L9.41176 28.1188L9.80392 28.5149H10.9804V28.1188H10.5882L10.1961 27.7228L9.80392 27.3267H9.41176V26.9307H9.01961L9.41176 26.5347V26.9307L9.80392 26.5347V25.7426L9.41176 25.3465L9.01961 24.9505H8.62745V24.5545H8.23529V22.5743L7.84314 20.5941V19.4059L7.45098 19.0099L7.84314 18.6139V18.2178L7.45098 17.8218V15.4455H7.84314V14.6535L8.23529 14.2574L8.62745 13.8614V13.4653L9.01961 13.0693H9.41176V12.6733L9.80392 12.2772V12.6733H9.41176L9.01961 13.4653V14.2574L8.62745 14.6535V15.4455H8.23529C8.23529 17.0297 8.62745 17.0297 9.01961 16.2376V15.8416L9.41176 14.6535V13.8614L9.80392 13.4653V13.0693H10.1961V12.6733H10.5882L10.9804 11.4851H11.3725L11.7647 10.6931L12.1569 10.297L12.9412 9.50495V9.10891L12.549 9.50495H12.1569V9.90099C11.4422 10.4963 10.7856 11.1594 10.1961 11.8812L9.80392 12.2772V11.4851H10.1961V11.0891H10.5882V10.6931L10.9804 10.297L11.3725 9.90099L12.1569 9.50495V7.52475L11.7647 7.92079C11.3725 7.92079 11.3725 7.92079 11.7647 7.92079V7.52475L12.1569 7.12871H12.549L12.9412 6.73267L13.3333 6.33663L14.1176 5.94059H14.5098L14.902 5.54455H15.6863V5.14851H16.4706C16.4706 4.75248 16.4706 4.75248 16.4706 5.14851V5.54455H16.0784L15.6863 5.94059L14.902 6.33663L14.1176 7.12871H14.5098L15.2941 6.73267V6.33663H16.4706V5.94059V6.33663C16.0784 6.73267 16.0784 6.73267 16.8627 6.73267H17.2549L16.8627 7.12871H16.4706L16.0784 7.52475H15.6863V7.92079H14.902V8.31683L14.5098 8.71287L14.1176 8.31683H13.7255V8.71287L13.3333 9.10891H14.1176L14.5098 8.71287L15.2941 8.31683H15.6863L16.0784 7.92079H16.4706L16.8627 7.52475H17.2549L18.0392 7.12871H19.2157L19.6078 6.73267H20.7843V7.12871L21.1765 6.73267H23.5294L23.9216 7.12871H25.098L25.4902 7.52475H25.8824L26.2745 7.92079H27.0588V8.31683H27.451V8.71287H27.8431L28.6275 9.50495L29.0196 9.90099H29.4118L29.8039 10.297L30.1961 11.0891L30.5882 11.4851V11.8812H30.9804V12.6733H31.3725L31.7647 13.8614V14.2574L32.1569 14.6535V15.8416H32.549V18.6139L32.1569 18.2178V22.1782H32.549V21.7822L32.9412 22.5743V22.9703H32.549V24.5545H32.1569V25.3465L31.7647 25.7426V26.1386L31.3725 26.5347V26.9307L30.9804 27.3267V27.7228L30.5882 28.1188V28.5149H30.1961V28.9109L29.8039 29.3069V28.5149H30.1961V28.1188H30.5882V27.7228L30.9804 26.9307V26.5347L30.5882 26.9307V27.3267H30.1961V27.7228L29.8039 28.1188L29.4118 28.5149V28.9109L29.0196 29.3069H28.6275V30.099L29.0196 29.703V30.099L28.2353 31.2871L27.451 32.0792H26.2745L25.8824 32.4752H25.098V32.8713H24.7059V33.6634H25.098H24.7059V34.0594H24.3137L23.9216 34.4554L24.3137 34.8515L24.7059 34.4554V35.2475L25.098 35.6436H26.2745L26.6667 35.2475H27.0588L26.6667 35.6436H26.2745L25.8824 36.0396H25.4902V36.4356H25.098L24.7059 36.8317L24.3137 37.2277C23.5294 37.2277 23.1373 37.6238 23.9216 37.6238H24.3137L24.7059 37.2277H26.2745L26.6667 36.8317H27.0588V37.2277H27.451V36.8317H27.8431L28.2353 36.4356L29.0196 36.0396H29.4118L29.8039 35.6436C29.8039 35.2475 29.8039 35.2475 29.8039 35.6436V36.0396H30.1961L30.5882 35.6436H30.9804V35.2475L31.3725 34.8515V35.6436H30.9804L30.5882 36.0396H30.1961V36.4356L29.0196 37.2277H28.2353V37.6238H27.8431L27.451 38.0198H27.0588L26.6667 38.4158H26.2745V38.8119L25.8824 39.2079H24.7059L24.3137 39.604V40H24.7059L25.8824 39.604H26.6667L27.0588 39.2079L27.8431 38.8119H28.2353L28.6275 38.4158H29.8039L30.1961 38.0198L30.5882 37.6238L30.9804 37.2277H31.3725V36.8317L32.549 36.4356L32.9412 35.6436H33.3333C33.9162 35.1798 34.4428 34.6481 34.902 34.0594L35.2941 33.6634C35.4179 33.3959 35.5486 33.1318 35.6863 32.8713L36.0784 32.4752V32.0792H36.4706V31.6832L36.8627 31.2871V30.8911H37.2549V30.099L37.6471 29.3069L38.0392 28.9109V28.5149L38.4314 28.1188V27.7228L38.8235 27.3267V25.3465L39.2157 24.9505V23.3663L39.6078 22.9703L40 21.3861L39.6078 20.5941V19.0099L39.2157 18.2178V16.2376L38.8235 15.4455V14.6535L38.4314 14.2574V13.4653L38.0392 13.0693C37.9629 12.529 37.8315 11.9981 37.6471 11.4851L37.2549 11.0891V10.297H36.8627V9.90099L36.4706 9.50495C36.3772 9.22369 36.2452 8.95706 36.0784 8.71287L35.6863 8.31683L35.2941 7.92079V7.52475L34.5098 7.12871V6.73267L34.1176 6.33663L33.7255 5.94059L33.3333 5.54455C33.7255 5.54455 33.3333 5.54455 33.3333 5.54455L32.549 5.14851L32.1569 4.75248L31.7647 4.35644H30.9804L30.5882 3.9604L30.1961 3.56436H29.0196V3.9604H29.4118V4.35644H29.8039H28.6275L29.0196 4.75248H29.4118L29.8039 5.14851H30.1961L30.5882 5.54455L30.9804 5.94059L31.3725 6.33663L31.7647 7.12871H32.1569L32.549 7.52475L32.9412 7.92079L33.3333 8.31683V8.71287L33.7255 9.10891L32.9412 8.31683C32.5908 7.99447 32.1941 7.72744 31.7647 7.52475L30.9804 6.73267L30.5882 6.33663H30.1961L29.8039 5.94059L29.4118 5.54455H29.0196L28.6275 5.14851H28.2353L27.8431 4.75248H27.451L27.0588 4.35644H26.6667L26.2745 3.9604H25.8824L25.098 3.56436H23.9216L23.5294 3.16832H21.5686L20.7843 2.77228H20V2.37624H19.6078ZM11.7647 3.56436L11.3725 3.9604L10.5882 4.35644H10.1961V4.75248H9.80392L9.41176 5.14851C9.01961 5.54455 9.01961 5.94059 8.23529 5.94059C7.54412 6.83698 6.88997 7.76186 6.27451 8.71287L5.88235 9.10891V9.90099L6.27451 9.10891L7.05882 8.71287V8.31683L7.45098 7.92079L7.84314 7.52475L8.62745 6.73267L9.80392 5.54455L10.1961 5.14851H10.5882V4.75248H10.9804L11.3725 4.35644H11.7647L12.1569 3.9604L11.7647 3.56436ZM23.1373 3.9604L23.9216 4.35644H24.3137L24.7059 4.75248H23.1373V4.35644H22.7451C22.3529 4.35644 22.3529 4.35644 22.7451 4.35644V3.9604H23.1373ZM30.9804 5.14851H30.5882H30.9804ZM10.5882 5.54455L10.1961 5.94059L9.80392 6.73267L10.1961 6.33663C10.9804 5.94059 11.3725 5.54455 10.5882 5.54455ZM27.8431 5.54455V5.94059H28.6275V6.33663H29.0196L29.4118 7.12871L29.8039 7.52475V7.12871H29.4118L29.0196 6.73267L28.6275 6.33663H27.8431V5.94059H27.451V5.54455H27.8431ZM6.66667 6.33663V7.12871C6.66667 7.52475 7.45098 6.73267 7.45098 5.94059L6.66667 6.33663ZM17.6471 6.33663L17.2549 6.73267L17.6471 6.33663H18.0392H17.6471ZM5.88235 10.297L6.27451 11.0891V10.297H5.88235ZM7.05882 11.0891V11.8812H6.66667V12.2772H6.27451L6.66667 11.8812V11.4851H7.05882V11.0891ZM30.1961 13.0693L30.5882 13.4653V14.2574L30.9804 13.8614V13.4653L30.5882 13.0693H30.1961ZM3.92157 14.2574L3.52941 15.0495V15.4455C3.52941 15.8416 3.52941 15.4455 3.52941 15.4455V14.6535H3.92157V13.8614V14.2574ZM39.2157 15.8416V16.6337H39.6078V15.8416H39.2157ZM32.549 19.4059C32.549 19.802 32.549 19.4059 32.549 19.4059ZM32.9412 20.9901H32.549H32.9412ZM32.549 21.7822V21.3861V21.7822ZM31.7647 23.3663V23.7624L31.3725 24.1584V24.5545L31.7647 25.3465V24.9505L32.1569 24.5545V23.3663H31.7647ZM1.17647 24.1584V23.7624V24.1584ZM1.17647 24.5545L1.56863 24.9505V25.3465L1.17647 24.9505V24.1584V24.5545ZM26.2745 33.6634L25.8824 34.0594H25.4902V34.4554H25.098V34.0594H25.4902L25.8824 33.6634H26.2745ZM32.549 34.0594H32.1569H32.549ZM27.0588 34.0594L26.6667 34.4554H26.2745V34.8515H25.8824L26.2745 34.4554L26.6667 34.0594H27.0588ZM27.8431 36.4356C27.451 36.4356 27.451 36.4356 27.8431 36.4356ZM28.6275 38.0198L28.2353 38.4158H27.451H27.8431L28.2353 38.0198H28.6275Z" fill="white"/>
</svg>
