<svg width="124" height="32" viewBox="0 0 124 32" fill="none" xmlns="http://www.w3.org/2000/svg">
<path d="M73.0922 5.73875C72.8362 5.18409 72.4522 4.75742 71.7695 4.58675V4.28809C72.1962 4.28809 73.5615 4.33075 73.9029 4.33075C74.2015 4.33075 75.4389 4.28809 75.8655 4.28809V4.62942C75.4815 4.71475 75.0549 4.92809 75.0549 5.31209C75.0549 5.61075 75.2255 5.95209 75.5669 6.67742L78.6389 13.6321L81.5402 6.67742C81.7535 6.12275 81.9242 5.69609 81.9242 5.35475C81.9242 4.97075 81.5829 4.71475 81.1135 4.62942V4.28809C81.4975 4.28809 82.4362 4.33075 82.7349 4.33075C82.9909 4.33075 84.1002 4.28809 84.5269 4.28809V4.62942C83.8015 4.84275 83.3749 5.22675 82.9482 6.16542L78.6815 16.1921H77.7855L73.0922 5.73875Z" fill="white"/>
<path d="M31.877 15.7654C32.4316 15.6374 32.8156 15.3814 32.8156 14.7414V5.6107C32.8156 5.01337 32.4316 4.75737 31.877 4.5867V4.24537C32.1756 4.24537 33.413 4.28803 33.7116 4.28803C34.053 4.28803 35.3756 4.24537 35.6743 4.24537V4.5867C35.1196 4.7147 34.693 4.9707 34.693 5.6107V9.4507H41.5196V5.6107C41.5196 4.9707 41.1783 4.7147 40.581 4.5867V4.24537C40.8796 4.24537 42.1596 4.28803 42.5436 4.28803C42.8423 4.28803 44.1223 4.24537 44.421 4.24537V4.5867C43.8663 4.7147 43.4396 4.9707 43.4396 5.6107V14.784C43.4396 15.3814 43.8236 15.6374 44.421 15.808V16.1067C44.1223 16.1067 42.8423 16.064 42.5436 16.064C42.2023 16.064 40.8796 16.1067 40.581 16.1067V15.808C41.1356 15.68 41.5196 15.424 41.5196 14.784V10.432H34.693V14.784C34.693 15.424 35.077 15.6374 35.6743 15.808V16.1067C35.3756 16.1067 34.053 16.064 33.7116 16.064C33.413 16.064 32.133 16.1067 31.877 16.1067V15.7654ZM46.2983 15.7654C47.0236 15.5947 47.4503 15.1254 47.749 14.4427L51.5463 5.3547C51.717 4.9707 51.8876 4.2027 51.8876 4.2027H52.9543C52.9543 4.2027 53.125 4.9707 53.2956 5.3547L57.3063 14.4854C57.6049 15.1254 57.9036 15.552 58.7143 15.7654V16.064C58.2876 16.064 56.9223 16.0214 56.6236 16.0214C56.325 16.0214 55.045 16.064 54.6183 16.064V15.7654C55.2156 15.6374 55.3863 15.3387 55.3863 15.04C55.3863 14.784 55.3009 14.528 55.1729 14.2294L54.3196 12.3094H49.8823L49.1143 14.272C49.029 14.4854 48.901 14.8267 48.901 15.04C48.901 15.3814 49.0716 15.6374 49.7543 15.808V16.1067C49.3703 16.1067 48.3463 16.064 48.0903 16.064L46.3836 16.1067L46.2983 15.7654ZM53.8503 11.3707L51.973 6.97603L50.2236 11.3707H53.8503ZM46.2983 15.7654C47.0236 15.5947 47.4503 15.1254 47.749 14.4427L51.5463 5.3547C51.717 4.9707 51.8876 4.2027 51.8876 4.2027H52.9543C52.9543 4.2027 53.125 4.9707 53.2956 5.3547L57.3063 14.4854C57.6049 15.1254 57.9036 15.552 58.7143 15.7654V16.064C58.2876 16.064 56.9223 16.0214 56.6236 16.0214C56.325 16.0214 55.045 16.064 54.6183 16.064V15.7654C55.2156 15.6374 55.3863 15.3387 55.3863 15.04C55.3863 14.784 55.3009 14.528 55.1729 14.2294L54.3196 12.3094H49.8823L49.1143 14.272C49.029 14.4854 48.901 14.8267 48.901 15.04C48.901 15.3814 49.0716 15.6374 49.7543 15.808V16.1067C49.3703 16.1067 48.3463 16.064 48.0903 16.064L46.3836 16.1067L46.2983 15.7654ZM53.8503 11.3707L51.973 6.97603L50.2236 11.3707H53.8503ZM83.8023 15.7654C84.5276 15.5947 84.9543 15.1254 85.2103 14.4427L89.0076 5.3547C89.1783 4.9707 89.349 4.2027 89.349 4.2027H90.4156C90.4156 4.2027 90.5863 4.9707 90.757 5.3547L94.7676 14.4854C95.0663 15.1254 95.365 15.552 96.1756 15.7654V16.064C95.749 16.064 94.3836 16.0214 94.085 16.0214C93.7863 16.0214 92.5063 16.064 92.0796 16.064V15.7654C92.677 15.6374 92.8476 15.3387 92.8476 15.04C92.8476 14.784 92.7623 14.528 92.6343 14.2294L91.781 12.3094H87.3436L86.5756 14.272C86.4903 14.4854 86.3623 14.8267 86.3623 15.04C86.3623 15.3814 86.533 15.6374 87.173 15.808V16.1067C86.789 16.1067 85.765 16.064 85.5516 16.064L83.8023 16.1067V15.7654ZM91.3116 11.3707L89.4343 6.97603L87.685 11.3707H91.3116ZM111.109 15.7654C111.834 15.6374 112.218 15.3387 112.218 14.6987V5.6107C112.218 4.9707 111.834 4.7147 111.152 4.5867V4.24537C111.536 4.24537 112.858 4.28803 113.2 4.28803C113.797 4.28803 115.418 4.16003 116.656 4.16003C120.88 4.16003 123.397 6.5067 123.397 10.0907C123.397 13.5467 120.752 16.1494 116.4 16.1494C115.162 16.1494 113.626 16.064 113.072 16.064C112.73 16.064 111.493 16.1067 111.109 16.1067V15.7654ZM114.138 15.168C114.565 15.2534 115.376 15.296 115.973 15.296C119.514 15.296 121.349 13.1627 121.349 10.2187C121.349 7.1467 119.429 4.9707 116.101 4.9707C115.418 4.9707 114.565 5.01337 114.138 5.0987V15.168Z" fill="white"/>
<path d="M63.4072 14.6988C63.4072 15.2961 63.7912 15.6374 64.5165 15.8081V16.1494C64.1325 16.1494 62.8525 16.1068 62.4685 16.1068C62.1699 16.1068 60.8899 16.1494 60.5059 16.1494V15.8081C61.1459 15.6801 61.5725 15.3388 61.5725 14.6988V5.61076C61.5725 5.05609 61.2739 4.71476 60.5059 4.58676V4.24543C60.8899 4.24543 62.1272 4.28809 62.5112 4.28809C63.1085 4.28809 64.7299 4.20276 65.3699 4.20276C68.1859 4.20276 69.7645 5.35476 69.7645 7.36009C69.7645 8.93876 68.5699 10.0054 66.7779 10.4321C66.7779 10.4321 67.2045 10.6881 67.5885 11.1574C68.1005 11.7548 69.5085 13.7174 70.0632 14.4001C70.6179 15.0828 71.3432 15.8508 72.1112 15.8934V16.1494C71.7272 16.2348 71.1725 16.2774 70.7032 16.2774C69.7219 16.2774 68.9539 15.9361 68.2285 15.0401C67.5885 14.2721 66.4365 12.6081 65.7539 11.7548C65.3272 11.2428 64.8579 10.8161 63.9192 10.6881C63.7485 10.6454 63.5779 10.6454 63.3645 10.6028V14.6988H63.4072ZM63.4072 9.87743C63.7912 9.92009 64.3459 9.96276 64.9005 9.96276C67.1192 9.96276 67.8019 8.68276 67.8019 7.57343C67.8019 5.99476 66.7352 4.97076 64.8152 4.97076C64.4312 4.97076 63.8339 5.01343 63.4499 5.09876V9.87743H63.4072Z" fill="white"/>
<path d="M100.698 14.6988C100.698 15.2961 101.082 15.6374 101.808 15.8081V16.1494C101.424 16.1494 100.144 16.1068 99.7595 16.1068C99.4609 16.1068 98.1809 16.1494 97.7969 16.1494V15.8081C98.4369 15.6801 98.8635 15.3388 98.8635 14.6988V5.61076C98.8635 5.05609 98.5649 4.71476 97.8395 4.58676V4.24543C98.2235 4.24543 99.4609 4.28809 99.8449 4.28809C100.442 4.28809 102.064 4.20276 102.704 4.20276C105.52 4.20276 107.098 5.35476 107.098 7.36009C107.098 8.93876 105.904 10.0054 104.112 10.4321C104.112 10.4321 104.538 10.6881 104.922 11.1574C105.434 11.7548 106.8 13.7174 107.354 14.4001C107.909 15.0828 108.634 15.8508 109.402 15.8934V16.1494C109.018 16.2348 108.464 16.2774 107.994 16.2774C107.013 16.2774 106.245 15.9361 105.52 15.0401C104.88 14.2721 103.77 12.6081 103.13 11.7548C102.704 11.2428 102.234 10.8161 101.296 10.6881C101.125 10.6454 100.954 10.6454 100.741 10.6028V14.6988H100.698ZM100.698 9.87743C101.082 9.92009 101.637 9.96276 102.192 9.96276C104.41 9.96276 105.093 8.68276 105.093 7.57343C105.093 5.99476 104.026 4.97076 102.106 4.97076C101.722 4.97076 101.125 5.01343 100.741 5.09876V9.87743H100.698Z" fill="white"/>
<path d="M82.0957 26.2613H82.2664C82.3517 26.6027 82.565 26.9013 82.821 27.1147C83.1197 27.328 83.5464 27.4133 83.9304 27.4133C84.741 27.4133 85.253 27.0293 85.253 26.3893C85.253 25.7493 84.613 25.4507 83.845 25.0667C83.2477 24.768 82.0957 24.3413 82.0957 23.1893C82.0957 22.1653 82.9064 21.4827 84.1437 21.4827C84.9544 21.4827 85.381 21.696 85.9357 21.6533V22.8907H85.7224C85.509 22.1653 84.8264 21.9093 84.101 21.9093C83.2904 21.9093 82.949 22.3787 82.949 22.848C82.949 23.5307 83.717 23.9147 84.3997 24.256C85.253 24.64 86.149 25.0667 86.149 26.1333C86.149 27.1573 85.381 27.84 83.9304 27.84C83.077 27.84 82.565 27.6267 82.0957 27.5413V26.2613Z" fill="#C41230"/>
<path d="M94.9805 27.5414C95.2791 27.4561 95.4498 27.3281 95.4498 27.0294V22.2934C95.4498 21.9947 95.2791 21.8667 94.9805 21.7814V21.6107C95.1085 21.6107 95.7911 21.6534 95.9618 21.6534C96.1325 21.6534 96.8151 21.6107 96.9858 21.6107V21.7814C96.6871 21.8667 96.4738 21.9947 96.4738 22.2934V24.2561H99.9725V22.2934C99.9725 21.9521 99.8018 21.8241 99.5031 21.7814V21.6107C99.6738 21.6107 100.314 21.6534 100.527 21.6534C100.698 21.6534 101.338 21.6107 101.508 21.6107V21.7814C101.21 21.8667 100.996 21.9947 100.996 22.2934V27.0294C100.996 27.3281 101.21 27.4561 101.508 27.5414V27.7121C101.38 27.7121 100.698 27.7121 100.527 27.7121C100.356 27.7121 99.6738 27.7121 99.5031 27.7121V27.5414C99.8018 27.4561 99.9725 27.3281 99.9725 27.0294V24.7681H96.4738V26.9867C96.4738 27.3281 96.6871 27.4134 96.9858 27.4987V27.6694C96.8578 27.6694 96.1325 27.6694 95.9618 27.6694C95.7911 27.6694 95.1511 27.6694 94.9805 27.6694V27.5414Z" fill="#C41230"/>
<path d="M93.2732 26.176L93.1879 27.5413C92.7186 27.4987 92.0786 27.84 91.0119 27.84C88.7506 27.84 87.7266 26.4747 87.7266 24.6827C87.7266 22.8053 89.0492 21.4827 90.9692 21.4827C91.9079 21.4827 92.5052 21.824 93.1026 21.7813L93.1452 23.1467H92.9746C92.6332 22.336 91.8226 21.952 90.9692 21.952C89.5612 21.952 88.7932 23.1893 88.7932 24.6827C88.7932 25.92 89.3906 27.4133 91.0972 27.4133C92.0359 27.4133 92.7612 27.072 93.0599 26.176H93.2732Z" fill="#C41230"/>
<path d="M103.002 24.6827C103.002 22.9333 104.239 21.4827 106.159 21.4827C108.079 21.4827 109.317 22.9333 109.317 24.6827C109.317 26.432 108.079 27.84 106.159 27.84C104.197 27.84 103.002 26.432 103.002 24.6827ZM108.207 24.6827C108.207 23.2747 107.567 21.9093 106.159 21.9093C104.709 21.9093 104.069 23.232 104.069 24.6827C104.069 26.0907 104.709 27.4133 106.159 27.4133C107.567 27.4133 108.207 26.0907 108.207 24.6827Z" fill="#C41230"/>
<path d="M110.682 24.6827C110.682 22.9333 111.919 21.4827 113.839 21.4827C115.759 21.4827 116.996 22.9333 116.996 24.6827C116.996 26.432 115.759 27.84 113.839 27.84C111.876 27.84 110.682 26.432 110.682 24.6827ZM115.887 24.6827C115.887 23.2747 115.247 21.9093 113.839 21.9093C112.388 21.9093 111.748 23.232 111.748 24.6827C111.748 26.0907 112.388 27.4133 113.839 27.4133C115.247 27.4133 115.887 26.0907 115.887 24.6827Z" fill="#C41230"/>
<path d="M41.433 21.6107H45.273C45.401 21.6107 45.6143 21.6107 45.6997 21.5254H45.8703L45.8277 22.7627H45.657C45.529 22.3787 45.3157 22.0801 44.5477 22.0801H42.9263V24.2987C42.9263 24.2987 44.1637 24.2987 44.249 24.2987C44.4197 24.2987 44.6757 24.2987 44.761 24.2561C45.0597 24.2134 45.1877 24.0427 45.2303 23.7867H45.401C45.401 23.9574 45.401 24.3841 45.401 24.5121C45.401 24.6401 45.401 25.0667 45.401 25.2801H45.2303C45.145 25.0241 45.017 24.8534 44.761 24.7681C44.6757 24.7254 44.4197 24.7254 44.249 24.7254C44.1637 24.7254 42.9263 24.7254 42.9263 24.7254V27.2001H44.761C45.529 27.2001 45.785 26.8587 45.9557 26.3894L46.1263 26.4321L45.9557 27.7121C45.3583 27.6694 45.017 27.6694 44.377 27.6694H42.4143C42.2437 27.6694 41.561 27.7121 41.3477 27.7121V27.5414C41.689 27.4561 41.9023 27.3281 41.9023 26.9867V22.2934C41.9023 21.9947 41.7317 21.8241 41.3477 21.7387V21.6107H41.433Z" fill="#C41230"/>
<path d="M56.1113 22.3361C56.1113 22.0374 55.9406 21.8667 55.5566 21.7814V21.6107C55.77 21.6107 56.4526 21.6534 56.6233 21.6534C56.794 21.6534 57.4766 21.6107 57.69 21.6107V21.7814C57.306 21.8667 57.1353 21.9947 57.1353 22.3361V26.9867C57.1353 27.2854 57.306 27.4561 57.69 27.5414V27.7121C57.4766 27.7121 56.8366 27.6694 56.6233 27.6694C56.4526 27.6694 55.77 27.7121 55.5566 27.7121V27.5414C55.9406 27.4561 56.1113 27.3281 56.1113 26.9867V22.3361Z" fill="#C41230"/>
<path d="M65.541 27.5413C65.925 27.456 66.1383 27.2 66.2663 26.8587L68.229 22.1653C68.3144 21.952 68.3997 21.568 68.3997 21.568H68.9543C68.9543 21.568 69.0397 21.952 69.125 22.1653L71.173 26.8587C71.301 27.2 71.4717 27.4133 71.8984 27.5413V27.712C71.685 27.712 70.9597 27.712 70.8317 27.712C70.661 27.712 70.021 27.712 69.8077 27.712V27.5413C70.1063 27.456 70.1917 27.328 70.1917 27.1573C70.1917 27.0293 70.149 26.9013 70.0637 26.7307L69.637 25.7493H67.3757L66.9917 26.7733C66.949 26.9013 66.9063 27.072 66.9063 27.1573C66.9063 27.328 66.9917 27.456 67.333 27.5413V27.712C67.1197 27.712 66.6077 27.712 66.4797 27.712H65.5837L65.541 27.5413ZM69.4663 25.2373L68.485 22.976L67.589 25.2373H69.4663Z" fill="#C41230"/>
<path d="M64.7303 26.176L64.6449 27.5413C64.1756 27.4987 63.5356 27.84 62.4689 27.84C60.2076 27.84 59.1836 26.4747 59.1836 24.6827C59.1836 22.8053 60.5063 21.4827 62.4263 21.4827C63.3649 21.4827 63.9623 21.824 64.5596 21.7813L64.6023 23.1467H64.4316C64.0903 22.336 63.2796 21.952 62.4263 21.952C61.0183 21.952 60.2503 23.1893 60.2503 24.6827C60.2503 25.92 60.8476 27.4133 62.5543 27.4133C63.4929 27.4133 64.2183 27.072 64.5169 26.176H64.7303Z" fill="#C41230"/>
<path d="M77.6995 26.4321C77.4862 26.9014 77.2728 27.2427 76.5048 27.2427H74.6275V22.3361C74.6275 21.9947 74.7982 21.8667 75.1822 21.7814V21.6107C74.9688 21.6107 74.2862 21.6534 74.1155 21.6534C73.9448 21.6534 73.2622 21.6107 73.0488 21.6107V21.7814C73.4328 21.8667 73.6035 22.0374 73.6035 22.3361V26.9867C73.6035 27.3281 73.4328 27.4987 73.0488 27.5414V27.7121C73.2622 27.7121 73.9448 27.6694 74.1155 27.6694H76.0782C76.7182 27.6694 77.1022 27.6694 77.6568 27.7121L77.8275 26.4321H77.6995Z" fill="#C41230"/>
<path d="M123.012 26.4321C122.799 26.9014 122.586 27.2427 121.818 27.2427H119.983V22.3361C119.983 21.9947 120.154 21.8667 120.538 21.7814V21.6107C120.324 21.6107 119.642 21.6534 119.471 21.6534C119.3 21.6534 118.618 21.6107 118.404 21.6107V21.7814C118.788 21.8667 118.959 22.0374 118.959 22.3361V26.9867C118.959 27.3281 118.788 27.4987 118.404 27.5414V27.7121C118.618 27.7121 119.3 27.6694 119.471 27.6694H121.434C122.074 27.6694 122.458 27.6694 123.012 27.7121L123.183 26.4321H123.012Z" fill="#C41230"/>
<path d="M47.834 27.5413C48.218 27.456 48.3887 27.328 48.3887 26.9867V22.2933C48.3887 21.952 48.1753 21.824 47.834 21.7813V21.6107C48.0473 21.6107 48.73 21.6533 48.9007 21.6533C49.1993 21.6533 50.01 21.568 50.65 21.568C52.826 21.568 54.1487 22.7627 54.1487 24.64C54.1487 26.432 52.7833 27.7547 50.5647 27.7547C49.9247 27.7547 49.1993 27.712 48.9007 27.712C48.73 27.712 48.09 27.7547 47.8767 27.7547V27.5413H47.834ZM49.37 27.2427C49.5833 27.2853 49.9673 27.2853 50.266 27.2853C52.1007 27.2853 53.0393 26.2613 53.0393 24.64C53.0393 23.0613 52.058 21.952 50.3513 21.952C50.01 21.952 49.626 21.9947 49.37 22.0373V27.2427Z" fill="#C41230"/>
<path d="M39.1713 26.8587L38.8726 22.3361C38.83 22.0374 39.0006 21.8667 39.342 21.7814V21.6107C39.086 21.6107 38.702 21.6107 38.5313 21.6107C38.4033 21.6107 38.1046 21.6107 37.8913 21.6107L35.886 26.3041L33.8806 21.6107C33.6673 21.6107 33.3686 21.6107 33.198 21.6107C33.07 21.6107 32.6006 21.6107 32.3446 21.6107V21.7814C32.686 21.8241 32.8566 22.0374 32.8566 22.3361L32.5153 26.8587C32.4726 27.2001 32.302 27.4561 31.918 27.5841V27.7547H32.7713C32.8993 27.7547 33.4113 27.7547 33.6246 27.7547V27.5841C33.198 27.4561 33.1126 27.2427 33.1126 26.9441L33.3686 22.9334L35.4593 27.7547H35.8006L37.8913 22.9334L38.1473 26.9867C38.1473 27.2427 38.062 27.4987 37.6353 27.6267V27.7974C37.8486 27.7974 38.574 27.7974 38.702 27.7974H39.7686V27.6267C39.3846 27.4561 39.214 27.2427 39.1713 26.8587Z" fill="#C41230"/>
<path d="M13.3589 0.661377H0.644229L0.601562 10.816C0.601562 23.2747 13.1029 31.2107 13.2309 31.296L13.2736 31.3387C13.3162 31.3387 13.4016 31.296 13.4016 31.296C15.5349 29.888 26.1162 22.3787 26.1162 10.9014V0.704044C26.0736 0.661377 13.3589 0.661377 13.3589 0.661377ZM26.0309 9.66404H0.857562V8.21338H26.0309V9.66404Z" fill="#C41230"/>
<path d="M4.91074 1.89866C5.76408 1.55732 6.70274 1.81332 7.64141 1.72799C7.89741 1.77066 8.23874 1.59999 8.40941 1.85599C8.40941 2.11199 8.40941 2.36799 8.40941 2.66666C8.49474 2.87999 8.79341 2.75199 8.92141 2.83732C9.00674 2.87999 9.09207 2.92266 9.13474 3.05066C9.17741 3.17866 9.13474 3.30666 9.09207 3.43466C8.92141 3.60532 8.70807 3.56266 8.45207 3.60532L8.36674 3.69066C8.40941 4.20266 8.28141 4.62932 8.36674 5.09866C8.36674 5.18399 8.32407 5.35466 8.45207 5.39732C8.70807 5.39732 8.92141 5.39732 9.09207 5.56799C9.17741 5.69599 9.17741 5.82399 9.13474 5.99466C9.04941 6.50666 8.23874 5.90932 8.32408 6.50666C8.32408 6.71999 8.36674 7.01866 8.28141 7.23199C7.34274 7.23199 6.40408 7.14666 5.55074 7.23199C5.38008 7.35999 5.20941 7.44532 4.95341 7.48799C4.78274 7.44532 4.61208 7.35999 4.48408 7.23199C3.63074 7.18932 2.82008 7.18932 2.00941 7.18932C1.75341 6.97599 1.92408 6.59199 1.83874 6.29332C1.71074 6.12266 1.49741 6.25066 1.32674 6.16532C1.19874 6.16532 1.15608 6.03732 1.11341 5.95199C1.11341 5.78132 1.11341 5.61066 1.24141 5.48266C1.36941 5.39732 1.58274 5.39732 1.75341 5.39732L1.83874 5.31199C1.79608 4.75732 1.92408 4.20266 1.79608 3.60532C1.71074 3.47732 1.54008 3.60532 1.45474 3.51999C1.32674 3.47732 1.15608 3.39199 1.11341 3.22132C1.07074 3.09332 1.07074 2.96532 1.19874 2.83732C1.36941 2.62399 1.71074 2.87999 1.88141 2.66666L1.96674 1.85599C2.09474 1.59999 2.39341 1.72799 2.64941 1.72799C3.07608 1.64266 3.58808 1.72799 4.01474 1.72799C4.35608 1.72799 4.65474 1.81332 4.91074 1.89866Z" fill="black"/>
<path d="M6.06216 10.816L6.01949 10.9867C6.01949 11.072 5.93416 11.1574 5.84882 11.1147L5.50749 11.072C5.37949 11.0294 5.25149 10.9867 5.12349 11.0294C5.08082 11.072 4.99549 11.1147 4.91016 11.2C4.95282 11.2 4.95282 11.2427 4.95282 11.2427C5.03816 11.2854 5.20882 11.328 5.25149 11.5414C5.25149 11.712 5.33682 11.84 5.42216 11.9254L5.46482 12.0107C5.50749 12.0534 5.50749 12.096 5.50749 12.1387C5.50749 12.1814 5.50749 12.1814 5.46482 12.224L5.29416 12.4374L5.20882 12.5227C5.20882 12.5227 5.12349 12.736 5.08082 12.8214C5.12349 12.9067 5.16616 12.9494 5.20882 12.9494C5.37949 12.9067 5.50749 12.9494 5.63549 12.9494L5.89149 12.992H5.93416H6.01949C6.10482 12.992 6.27549 12.9494 6.40349 13.0347C6.40349 13.0347 6.53149 13.248 6.53149 13.2907C6.57416 13.376 6.57416 13.4187 6.57416 13.504C6.57416 13.5894 6.57416 13.6747 6.53149 13.76L6.48882 13.888C6.48882 13.9307 6.48882 13.9734 6.44616 13.9734C6.23282 14.3147 5.93416 14.5707 5.55016 14.7414C5.59282 14.7414 5.59282 14.7414 5.59282 14.7414C5.59282 14.7414 5.59282 14.7414 5.59282 14.784C5.63549 14.8267 5.76349 14.8267 5.89149 14.784H5.97682C6.14749 14.784 6.27549 14.7414 6.44616 14.656L6.91549 14.528C7.00082 14.4854 7.04349 14.5707 7.08616 14.6134C7.17149 14.784 7.29949 14.912 7.38482 14.9974C7.38482 14.9974 7.38482 14.9974 7.47016 14.912C7.55549 14.8267 7.72616 14.6987 7.93949 14.784C7.93949 14.784 7.98216 14.784 7.98216 14.8267C8.15282 14.9547 8.19549 15.1254 8.23816 15.2534C8.28082 15.3387 8.28082 15.4667 8.36616 15.5094C8.40882 15.552 8.40882 15.5947 8.40882 15.5947V15.6374C8.40882 15.808 8.23816 15.8934 8.19549 15.8934H8.15282L8.11016 15.936L7.72616 16.0214C7.59816 16.0214 7.47016 16.064 7.38482 16.1067C7.38482 16.1067 7.38482 16.1494 7.42749 16.1494C7.59816 16.2347 7.85416 16.2774 8.11016 16.32L8.23816 16.3627H8.53682H9.04882C9.13416 16.3627 9.13416 16.4054 9.17682 16.448C9.21949 16.4907 9.17682 16.576 9.13416 16.6187L9.04882 16.7467L9.00616 16.7894L8.19549 17.344C8.15282 17.344 7.72616 17.5147 7.72616 17.5147L7.08616 17.7707H7.04349C6.65949 17.856 6.44616 17.6427 6.23282 17.5147C6.10482 17.3867 5.97682 17.3014 5.80616 17.3014C5.67816 17.3014 5.55016 17.344 5.46482 17.4294C5.42216 17.472 5.42216 17.5147 5.42216 17.6C5.42216 17.6427 5.42216 17.6427 5.42216 17.6854H5.46482C5.55016 17.728 5.72082 17.7707 5.72082 17.984C5.72082 18.2827 5.59282 18.496 5.46482 18.7094C5.37949 18.88 5.25149 19.0934 5.25149 19.264V19.3067C5.25149 19.3494 5.25149 19.392 5.29416 19.392H5.33682H5.37949L5.42216 19.3067C5.46482 19.2214 5.55016 19.0934 5.72082 19.0507H5.76349C6.10482 19.0934 6.27549 19.0507 6.40349 18.9227C6.44616 18.88 6.48882 18.88 6.48882 18.88C6.57416 18.88 6.70216 18.88 6.78749 18.9654C6.87282 19.0507 6.91549 19.136 6.91549 19.2214C6.91549 19.2214 6.91549 19.264 6.91549 19.3067C7.12882 19.264 7.25682 19.0934 7.42749 18.8374L7.51282 18.7094C7.55549 18.6667 7.59816 18.624 7.64082 18.624L7.76882 18.5814C7.93949 18.5387 8.11016 18.4534 8.32349 18.5814C8.36616 18.624 8.40882 18.6667 8.40882 18.7094C8.40882 18.752 8.40882 18.7947 8.40882 18.8374C8.40882 19.008 8.32349 19.136 8.28082 19.264C8.28082 19.264 8.23816 19.3494 8.23816 19.4347C8.53682 19.3494 8.79282 19.0934 9.00616 18.7947L9.13416 18.624C9.17682 18.5387 9.26216 18.3254 9.51816 18.3254H9.56082C9.68882 18.368 9.73149 18.3254 9.85949 18.112L10.1155 17.856C10.1582 17.8134 10.1582 17.8134 10.2435 17.8134H10.3288C10.3715 17.8134 10.4142 17.8134 10.4568 17.856C10.4995 17.8987 10.4995 17.8987 10.4995 17.9414V18.1974C10.5422 18.1974 10.6702 18.112 10.7555 18.112L11.0968 17.8987C11.1395 17.856 11.1822 17.856 11.2675 17.8987L12.5475 18.24C12.8035 18.3254 12.8462 18.496 12.8462 18.6667C12.8462 18.7094 12.8462 18.7947 12.8462 18.7947C12.8462 18.8374 12.8462 18.88 12.8462 18.9227C12.8462 18.9654 12.8462 18.9654 12.8888 19.008C12.9315 19.0507 12.9315 19.0934 12.9315 19.136C12.9315 19.1787 12.9315 19.1787 12.9315 19.2214C12.8888 19.3494 12.7608 19.4774 12.4195 19.4774L11.7795 19.52C11.2675 19.52 10.7555 19.52 10.3715 19.8614L10.0302 20.2027C9.98749 20.2454 9.94482 20.2454 9.90216 20.2454C9.64616 20.2454 9.47549 20.3734 9.26216 20.5014C9.09149 20.6294 8.87816 20.7574 8.62216 20.8C8.45149 20.8854 8.23816 20.8854 8.06749 20.8854C7.89682 20.8854 7.81149 20.8854 7.76882 20.928C7.93949 21.1414 8.23816 21.2267 8.53682 21.312C8.57949 21.312 8.70749 21.3547 8.70749 21.3547C8.83549 21.3547 9.04882 21.3547 9.13416 21.568C9.13416 21.568 9.13416 21.6107 9.13416 21.6534C9.13416 21.824 9.17682 21.9094 9.26216 21.9094H9.30482C9.34749 21.8667 9.51816 21.7814 9.73149 21.9094C9.77416 21.952 10.0302 22.208 10.0302 22.208L10.3715 22.5494C10.4142 22.592 10.4142 22.6774 10.3715 22.72C10.2435 22.976 9.94482 22.9334 9.77416 22.9334H9.64616H9.47549C9.21949 22.976 8.83549 23.0614 8.57949 22.72L8.62216 22.7627L8.23816 22.6347C8.02482 22.464 7.85416 22.2934 7.59816 22.2934C7.34216 22.3787 7.21416 22.464 7.21416 22.592L7.25682 22.6774L7.38482 22.8054C7.42749 22.848 7.42749 22.8907 7.42749 22.8907C7.42749 22.8907 7.42749 22.8907 7.42749 22.9334C7.42749 22.976 7.38482 23.0187 7.34216 23.0614C7.12882 23.1894 6.87282 23.4027 6.87282 23.6587C6.87282 23.7014 6.87282 23.744 6.87282 23.744C6.87282 23.744 6.87282 23.744 6.87282 23.7867C6.91549 23.7867 6.95816 23.744 6.95816 23.744C7.04349 23.7014 7.21416 23.6587 7.38482 23.744C7.42749 23.7867 7.47016 23.8294 7.47016 23.872V24.0854C7.47016 24.2987 7.51282 24.384 7.55549 24.4694C7.59816 24.4694 7.64082 24.4267 7.64082 24.4267C7.76882 24.3414 8.02482 24.256 8.28082 24.4267C8.32349 24.4267 8.40882 24.4267 8.53682 24.3414L8.79282 24.2134C8.83549 24.2134 8.83549 24.2134 8.83549 24.2134C9.26216 24.2134 9.47549 24.5974 9.56082 24.8534C9.77416 25.024 9.94482 25.1094 10.0728 25.0667V25.024C10.0728 24.9814 10.0728 24.9387 10.0728 24.8534C10.0728 24.8107 10.0302 24.7254 10.0302 24.64C10.0302 24.4694 10.0728 24.2987 10.3288 24.2134C10.3715 24.2134 10.7555 24.1707 10.7555 24.1707H11.0115H11.0542C11.4382 24.2134 11.7368 24.2134 11.8648 23.9574C11.8648 23.9574 12.1635 23.488 12.2062 23.4027C12.2062 23.36 12.2488 23.104 12.2488 23.104C12.2488 23.0187 12.2915 22.976 12.3768 22.976C12.5048 22.9334 12.6755 22.976 12.7608 23.0187C12.7608 23.0187 12.8035 23.0187 12.8462 23.0614C12.7608 22.848 12.7182 22.6347 12.7182 22.4214C12.7182 22.2934 12.7182 22.208 12.7608 22.08C12.8462 21.7814 12.9742 21.5254 13.1448 21.312C13.1875 21.2694 13.2728 21.2267 13.3582 21.2694L13.4435 21.312C13.4862 21.3547 13.5288 21.3974 13.5715 21.44L13.6568 21.8667C13.6995 22.1227 13.7422 22.3787 13.8702 22.6347C13.8702 22.6774 13.9128 22.6774 13.8702 22.72L13.6995 23.3174L13.5715 23.7867C13.4435 24.256 13.1448 24.5974 12.7182 24.8107V24.8534C12.7182 24.8534 12.8035 24.8534 12.8888 24.8534C12.8888 24.8534 13.0168 24.8534 13.0595 24.8534C13.5288 24.8107 13.9555 24.5547 14.2968 24.2134C14.3395 24.1707 14.4248 24.128 14.4675 24.1707C14.5528 24.2134 14.6382 24.1707 14.7662 24.0854C14.8942 24 15.1502 23.872 15.4062 24.0427C15.4915 24.128 15.6622 24.128 15.8328 24.0854C16.0888 24.0854 16.5155 24.0427 16.6008 24.512V24.5974V24.8107C16.6435 25.024 16.6862 25.4507 16.2168 25.5787C16.1742 25.5787 16.1742 25.5787 16.1315 25.5787L15.6622 25.408C15.2782 25.2374 15.1075 25.1947 14.9368 25.408C14.8942 25.4507 14.8515 25.536 14.8515 25.5787C14.8942 25.7067 15.0648 25.9627 14.8515 26.176C14.7235 26.3894 14.6382 26.5174 14.7235 26.688C14.7235 26.688 14.7662 26.7307 14.8942 26.688C15.0648 26.6027 15.2782 26.688 15.4488 26.7307L15.6622 26.816C15.7048 26.816 15.7475 26.8587 15.7475 26.8587L15.8328 26.9014C16.0035 27.0294 16.1315 27.1147 16.3022 27.1574V27.1147L16.3875 26.9014C16.4302 26.8587 16.6862 26.7307 16.6862 26.7307C16.8568 26.6454 16.8995 26.6454 16.8995 26.56C16.9422 26.2614 17.1555 25.9627 17.4542 25.792C17.4968 25.792 17.5395 25.7494 17.5822 25.7494C17.6675 25.7494 17.8808 25.664 17.9662 25.5787V25.536L17.8808 25.4507C17.8382 25.408 17.8382 25.3654 17.7955 25.3654C17.7955 25.3227 17.7955 25.28 17.7955 25.2374C17.7955 25.024 17.9235 24.8534 18.0088 24.6827C18.0942 24.5547 18.1368 24.4267 18.1368 24.3414C18.1368 24.2987 18.1368 24.256 18.0942 24.1707C18.0942 24.128 18.0515 24.128 18.0515 24.128L18.0088 23.8294C17.9662 23.616 17.9662 23.488 17.8382 23.36L17.4968 23.1894L17.3688 23.0614C17.2835 23.0187 17.2835 22.976 17.2835 22.8907C17.2835 22.72 17.3688 22.6347 17.5822 22.592H17.6248C17.8382 22.5067 18.0515 22.592 18.2222 22.6774C18.3928 22.72 18.4355 22.72 18.4782 22.72C18.4355 22.592 18.3075 22.464 18.2222 22.336C18.0088 22.208 17.7528 22.1227 17.4968 22.08C17.0702 21.9947 16.6435 21.8667 16.3875 21.4827C16.3448 21.44 16.3448 21.3974 16.3448 21.3547C16.3448 21.312 16.3448 21.2694 16.3875 21.2267L16.4302 21.184C16.4728 21.1414 16.5582 21.1414 16.6008 21.1414C17.1128 21.2694 17.6248 21.1414 17.9662 20.8427C18.1795 20.5867 18.4355 20.2454 18.8195 20.1174C19.1182 19.904 19.1608 19.52 19.1608 19.0507C19.1608 18.7947 19.2888 18.624 19.4595 18.4534L19.8435 18.2827C19.9715 18.24 20.0142 18.24 20.0142 18.1974C19.8008 18.112 19.5448 17.984 19.3315 18.0267C19.2888 18.0267 19.2462 18.0267 19.2035 17.984C19.0755 17.9414 19.0755 17.856 19.0328 17.7707V17.728C19.0328 17.6 19.1182 17.5147 19.2035 17.472L19.2462 17.4294L19.2888 17.3867L19.6728 17.1734C20.1848 16.8747 20.5262 16.704 20.5262 16.2774V16.2347C20.4835 16.2774 20.3982 16.2774 20.3555 16.3627L20.0142 16.5334C19.7582 16.6614 19.4595 16.7467 19.2035 16.7894C18.9048 16.832 18.6488 16.9174 18.4355 17.0454C18.3928 17.0454 18.3928 17.088 18.3502 17.088C18.2648 17.088 18.1368 17.0454 18.1368 16.9174C18.1368 16.8747 18.1368 16.832 18.1368 16.7894C18.1368 16.704 18.1795 16.6187 18.2222 16.576C18.3075 16.448 18.4355 16.3627 18.5635 16.32C18.7342 16.2347 18.8195 16.192 18.8622 16.064L18.9048 15.936C18.9902 15.7227 19.0755 15.424 19.3742 15.296C19.4168 15.296 19.6302 15.168 19.6302 15.168C19.6728 15.168 19.7155 15.1254 19.7155 15.1254C19.7155 15.1254 19.7155 15.1254 19.6728 15.0827C19.2462 14.9547 18.8195 15.296 18.5635 15.5094L18.5208 15.552L18.3075 15.5947C18.0088 15.7227 17.7102 15.8507 17.5395 16.064C17.5395 16.1067 17.4968 16.1067 17.4542 16.1067C17.3688 16.1494 17.2835 16.1067 17.1982 16.064C17.1128 16.0214 17.0702 15.936 17.0702 15.8507C16.9848 15.168 17.5395 14.656 17.9662 14.272L18.0515 14.1867L18.1368 14.144L18.3928 14.016C18.6062 13.888 18.8622 13.7174 19.2035 13.888C19.4595 14.016 19.6728 14.1014 19.8862 14.0587C20.0142 14.016 20.0995 13.888 20.2275 13.7174C20.3128 13.5894 20.4408 13.4187 20.6115 13.2907C20.7822 13.2054 20.9528 13.2907 21.0808 13.2907C21.1235 13.2907 21.2515 13.3334 21.2515 13.3334L21.2942 13.2907V13.248C21.2942 13.12 21.2088 12.992 21.0808 12.8214L20.9102 12.608C20.8675 12.5654 20.8675 12.5654 20.8675 12.5227C20.8675 12.48 20.8675 12.48 20.8675 12.4374C20.9102 12.3094 20.9528 12.1814 20.9528 12.0107C20.9528 11.6694 20.8248 11.3707 20.5688 11.1574C20.4835 11.1147 20.3128 11.0294 20.1422 11.0294C20.1422 11.072 20.1848 11.1147 20.1848 11.1147L20.3555 11.456C20.3555 11.4987 20.3555 11.5414 20.3555 11.584C20.3555 12.352 19.7155 12.6934 19.1608 12.9494L18.6915 13.2054C17.6248 13.76 16.2168 14.6134 16.1315 16.0214C16.1315 16.7467 16.4302 17.4294 17.0275 18.0267C17.0275 18.0267 17.0275 18.0694 17.0702 18.0694L17.2835 18.368C17.4968 18.7094 17.7528 19.0507 17.7528 19.52C17.7528 19.6054 17.7528 19.7334 17.7102 19.8614C17.5395 20.288 17.0275 20.288 16.8568 20.288C15.7902 20.2027 15.2355 19.136 14.8088 18.368L14.7235 18.24L14.6382 18.0694C14.5102 17.8134 14.3822 17.5574 14.3822 17.2587C14.3822 17.216 14.3822 17.1307 14.4248 17.1307C14.4675 17.088 14.5955 16.96 14.8088 17.088C14.8515 17.088 15.0222 17.3867 15.0222 17.3867C15.0648 17.4294 15.0648 17.472 15.0648 17.5147C15.0648 17.472 15.1075 17.4294 15.1075 17.344C15.1075 17.1734 15.0222 16.96 14.9368 16.7467L14.8942 16.704C14.8515 16.6187 14.7235 16.4907 14.5955 16.4054C14.4248 16.2774 14.2542 16.1067 14.1688 15.8934V15.8507C14.1688 15.8507 14.1688 15.8507 14.1688 15.808C14.1688 15.552 14.3822 15.5094 14.4675 15.4667H14.5102C14.4248 15.2107 14.3822 14.912 14.3822 14.6134C14.3822 14.4854 14.3822 14.3147 14.4248 14.1867L14.6808 13.9307C14.7662 13.888 14.7662 13.888 14.7662 13.8454C14.6808 13.5467 14.6808 13.2054 14.6808 12.9067C14.6808 12.7787 14.6808 12.6507 14.6808 12.5227C14.6808 12.48 14.7662 12.224 14.7662 12.224C14.8088 12.096 14.8515 12.0107 14.8515 11.9254C14.8515 11.8827 14.8515 11.8827 14.8515 11.84C14.6808 11.7547 14.6382 11.5414 14.6382 11.456V11.3707C14.6808 11.3707 14.6808 11.3707 14.6808 11.3707C14.2542 11.3707 13.8702 11.2 13.5288 11.0294L13.1875 10.8587C13.1022 10.816 13.0168 10.8587 12.8888 10.944L12.6755 11.0294L12.4622 11.072C12.2488 11.1147 12.0355 11.1574 11.9075 11.2854C11.8222 11.3707 11.8222 11.4987 11.8222 11.6694V11.7974V11.84C11.7795 11.968 11.6942 12.0107 11.6515 12.0107C11.5235 12.0534 11.4382 12.0107 11.3528 11.968H11.3102C10.9688 11.7974 10.8408 11.456 10.9262 11.1147C10.9262 11.072 10.8835 10.9867 10.8835 10.9867C10.7982 10.944 10.6275 10.9014 10.4995 10.944C10.4142 10.9867 10.3288 11.072 10.2862 11.2854C10.2862 11.2854 10.2435 11.328 10.2435 11.3707V11.4134C10.2435 11.5414 10.2862 11.6694 10.3288 11.712C10.4568 11.84 10.6702 11.968 10.9262 12.096L11.4808 12.3947C11.5235 12.4374 11.5235 12.4374 11.5235 12.48C11.5235 12.5227 11.5662 12.608 11.5662 12.6507C11.5662 12.864 11.4808 12.992 11.3955 13.12C11.4382 13.1627 11.5662 13.248 11.5662 13.4187C11.5662 13.4614 11.5662 13.4614 11.5662 13.504C11.5662 13.5894 11.4808 13.632 11.4382 13.632C11.0968 13.7174 10.7982 13.632 10.5422 13.4614L10.3715 13.248C10.3288 13.1627 10.2862 13.12 10.2435 13.12C10.2435 13.12 10.2008 13.2054 10.2008 13.248L10.1155 13.4187C10.1155 13.376 10.1155 13.5467 10.1155 13.5467C10.1155 13.6747 10.0728 13.8454 9.94482 13.9734C9.90216 14.016 9.85949 14.016 9.81682 14.016H9.64616C8.96349 13.8027 8.36616 13.4614 7.68349 12.9494C7.38482 12.736 7.17149 12.4374 6.95816 12.1387L6.78749 11.9254L6.74482 11.8827L6.70216 11.6694C6.57416 11.2427 6.48882 10.9867 6.19016 10.9014C6.10482 10.816 6.06216 10.816 6.06216 10.816ZM11.3102 13.248C11.3528 13.2054 11.3528 13.2054 11.3528 13.1627C11.3528 13.1627 11.3102 13.2054 11.3102 13.248ZM14.5955 15.5094C14.6382 15.5094 14.6382 15.5094 14.5955 15.5094ZM10.5848 18.368C10.5848 18.3254 10.5848 18.3254 10.5848 18.368Z" fill="white"/>
<path d="M0.771484 10.816C0.771484 7.82938 0.771484 4.54404 0.771484 0.661377H26.1582C26.1582 0.661377 26.1582 2.15471 26.1582 10.8587C26.1582 23.7014 13.3582 31.2534 13.3582 31.2534C13.3582 31.2534 0.771484 23.36 0.771484 10.816Z" stroke="black" stroke-width="1.0714"/>
<path d="M18.4796 25.6213C18.3943 25.536 18.309 25.408 18.2663 25.3653C18.181 24.896 18.8636 24.5973 18.5223 24.128C18.437 23.8293 18.5223 23.488 18.2236 23.2747C18.0103 23.104 17.7543 23.0613 17.541 22.9333C17.541 22.8053 17.7116 22.848 17.7543 22.8053C18.1383 22.72 18.437 23.1467 18.7356 22.8053C18.7783 22.5493 18.5223 22.336 18.3516 22.1653C17.797 21.7813 16.9863 21.952 16.5596 21.3547L16.6023 21.312C17.1143 21.44 17.7116 21.312 18.0956 20.9707C18.309 20.672 18.565 20.3733 18.9063 20.288C19.2903 19.9893 19.333 19.52 19.333 19.0933C19.333 18.9227 19.4183 18.752 19.5463 18.624C19.7596 18.4533 20.2716 18.496 20.1436 18.112C19.845 17.9413 19.5463 17.8133 19.2476 17.856C19.077 17.7707 19.2903 17.6427 19.333 17.6C19.845 17.2587 20.6983 17.0453 20.6556 16.2347C20.613 16.1493 20.613 16.0213 20.485 16.0213C20.2716 16.064 20.101 16.2773 19.8876 16.3627C19.3756 16.6613 18.7783 16.576 18.2663 16.8747C18.181 16.8747 18.181 16.7467 18.2236 16.704C18.3943 16.448 18.7783 16.448 18.9063 16.1067C18.9916 15.8507 19.0343 15.5093 19.333 15.424C19.5036 15.296 19.7596 15.296 19.845 15.0827C19.845 14.9547 19.6743 14.912 19.589 14.8693C19.1196 14.7413 18.6503 14.9973 18.309 15.3387C17.9676 15.5093 17.541 15.6373 17.285 15.8933C17.2423 15.8933 17.157 15.8933 17.157 15.808C17.0716 15.1253 17.669 14.656 18.1383 14.272C18.437 14.1867 18.7356 13.8027 19.077 13.9733C19.333 14.1013 19.589 14.2293 19.8876 14.144C20.2716 14.016 20.3143 13.5893 20.6556 13.376C20.9116 13.2907 21.253 13.6747 21.4236 13.2907C21.509 12.9067 21.2103 12.6933 21.0396 12.4373C21.253 11.9253 21.0823 11.328 20.6556 10.944C20.4423 10.816 20.1863 10.7307 19.973 10.816C19.8023 11.0293 20.1436 11.2 20.1436 11.4133C20.229 12.352 19.205 12.5653 18.565 12.992C17.413 13.5893 16.005 14.4853 15.9196 15.9787C15.9196 16.7893 16.3036 17.5573 16.8583 18.112C17.157 18.624 17.6263 19.0933 17.4556 19.776C17.3276 20.032 17.029 20.0747 16.773 20.0747C15.7916 19.9893 15.237 18.88 14.8103 18.112C14.6823 17.8133 14.5116 17.5147 14.469 17.1733C14.5116 17.1307 14.5543 17.1307 14.6396 17.1733C14.8103 17.344 14.8103 17.728 15.109 17.6853C15.365 17.344 15.1943 16.9173 15.0236 16.576C14.853 16.2773 14.469 16.1067 14.2983 15.7653C14.2983 15.5093 14.6396 15.68 14.6823 15.424C14.5543 14.9973 14.5116 14.528 14.597 14.144C14.6823 13.9733 14.9383 13.9733 14.9383 13.76C14.8103 13.3333 14.8103 12.9493 14.853 12.48C14.8956 12.224 15.109 11.9253 14.981 11.6693C14.6823 11.584 14.9383 11.2 14.6396 11.1573C14.085 11.1573 13.6583 10.8587 13.189 10.688C12.933 10.6027 12.7623 10.7733 12.549 10.816C12.2503 10.9013 11.909 10.9013 11.6956 11.1147C11.525 11.2853 11.5676 11.4987 11.5676 11.7547C11.525 11.8827 11.397 11.7547 11.3116 11.7547C11.0983 11.6267 11.013 11.3707 11.0556 11.1147C11.0983 10.9867 11.0556 10.9013 10.9276 10.816C10.757 10.7307 10.5436 10.6453 10.373 10.7307C10.1596 10.816 10.0743 11.072 9.98898 11.2853C9.98898 11.456 9.98898 11.6693 10.0743 11.7973C10.4156 12.1387 10.885 12.2667 11.2263 12.5653C11.3116 12.7787 11.141 12.9493 11.013 13.12C11.013 13.2907 11.269 13.2907 11.2263 13.4613C10.9703 13.5467 10.7143 13.4613 10.501 13.2907C10.373 13.1627 10.3303 12.9067 10.117 12.9067C9.90365 12.9067 9.90365 13.1627 9.81831 13.2907C9.73298 13.4613 9.81831 13.6747 9.64765 13.8027H9.51965C8.83698 13.5893 8.23965 13.2053 7.64231 12.736C7.30098 12.48 7.04498 12.0533 6.78898 11.712C6.66098 11.2853 6.57565 10.7307 6.06365 10.6027C5.93565 10.6027 5.80765 10.6453 5.76498 10.7733L5.72231 10.944C5.46631 10.944 5.21031 10.7733 4.91165 10.8587C4.78365 10.944 4.65565 11.0293 4.57031 11.1573C4.57031 11.456 4.91165 11.328 4.95431 11.584C4.95431 11.7973 5.12498 11.968 5.21031 12.1387C5.12498 12.2667 4.99698 12.3093 4.95431 12.4373L4.78365 12.864C4.86898 12.992 4.95431 13.1627 5.08231 13.1627C5.29565 13.0773 5.50898 13.248 5.76498 13.2053C5.93565 13.2053 6.14898 13.0773 6.19165 13.3333C6.27698 13.5467 6.19165 13.7173 6.19165 13.888C5.97831 14.1867 5.67965 14.4427 5.38098 14.5707C5.29565 14.656 5.29565 14.784 5.29565 14.8693C5.42365 15.04 5.67965 14.9547 5.85031 14.9547C6.19165 14.9547 6.44765 14.7413 6.78898 14.6987C6.87431 14.8693 7.00231 15.0827 7.17298 15.168C7.42898 15.2533 7.51431 14.8693 7.77031 14.9547C7.98365 15.1253 7.94098 15.424 8.11165 15.6373C8.11165 15.7653 8.02631 15.7653 7.94098 15.808C7.64231 15.8933 7.25831 15.808 7.04498 16.0213C7.00231 16.1493 7.13031 16.2773 7.21565 16.32C7.47165 16.448 7.77031 16.4907 8.06898 16.5333C8.32498 16.576 8.62365 16.448 8.87965 16.5333L8.79431 16.6613L7.98365 17.216C7.59965 17.3867 7.21565 17.4293 6.87431 17.6427C6.36231 17.7707 6.14898 17.1307 5.67965 17.1733C5.46631 17.1733 5.33831 17.2587 5.21031 17.344C5.08231 17.472 5.08231 17.6427 5.12498 17.8133C5.21031 17.984 5.42365 17.8987 5.42365 18.0693C5.42365 18.5387 4.99698 18.88 4.95431 19.3493C4.95431 19.4773 4.95431 19.6053 5.12498 19.648C5.21031 19.6907 5.33831 19.648 5.42365 19.6053C5.50898 19.52 5.50898 19.3493 5.67965 19.3067C5.97831 19.3493 6.27698 19.3493 6.44765 19.136C6.53298 19.136 6.66098 19.2213 6.66098 19.3067C6.66098 19.4347 6.66098 19.5627 6.78898 19.6053C7.21565 19.6053 7.38631 19.1787 7.59965 18.88C7.77031 18.8373 7.98365 18.7093 8.15431 18.8373C8.23965 19.136 7.98365 19.3067 7.94098 19.6053C7.94098 19.6907 8.02631 19.7333 8.11165 19.7333C8.62365 19.648 8.87965 19.2213 9.17831 18.8373C9.22098 18.752 9.26365 18.624 9.43431 18.624C9.81831 18.752 9.90365 18.2827 10.1596 18.112H10.245C10.2876 18.24 10.2023 18.3253 10.245 18.4107C10.4156 18.5813 10.5863 18.4107 10.757 18.368L11.0983 18.1547C11.525 18.2827 11.9516 18.368 12.3783 18.496C12.7196 18.624 12.3783 19.008 12.5916 19.2213C12.549 19.3493 12.3783 19.392 12.2503 19.392C11.525 19.4773 10.6716 19.3067 10.0743 19.8187L9.73298 20.16C9.17831 20.16 8.92231 20.6293 8.41031 20.7147C8.06898 20.928 7.55698 20.6293 7.34365 21.0133C7.51431 21.3547 7.94098 21.4827 8.28231 21.568C8.45298 21.6533 8.66631 21.568 8.75165 21.7387C8.75165 21.9093 8.79431 22.1227 9.00765 22.1653C9.13565 22.208 9.22098 21.9947 9.39165 22.1227C9.56231 22.3787 9.86098 22.5067 9.98898 22.72C9.86098 22.9333 9.60498 22.8053 9.39165 22.8053H9.34898C9.05031 22.848 8.66631 22.976 8.45298 22.72C8.15431 22.5067 7.89831 22.1227 7.42898 22.1227C7.17298 22.208 6.91698 22.2933 6.87431 22.5493C6.83165 22.72 7.00231 22.7627 7.08765 22.8907C6.78898 23.104 6.49031 23.4027 6.57565 23.7867C6.61831 23.872 6.66098 23.9573 6.74631 23.9573C6.91698 23.9573 7.00231 23.8293 7.17298 23.9147C7.21565 24.1707 7.13031 24.5547 7.42898 24.6827C7.64231 24.64 7.81298 24.384 8.06898 24.5973C8.32498 24.7253 8.49565 24.4693 8.75165 24.4267C9.09298 24.4267 9.22098 24.768 9.34898 25.024C9.56231 25.1947 9.86098 25.4507 10.1596 25.28C10.373 24.9813 9.98898 24.64 10.373 24.4693C10.5863 24.384 10.7996 24.4693 11.0556 24.4267C11.4396 24.4693 11.8663 24.512 12.0796 24.0853L12.421 23.5307L12.5063 23.1893C12.7196 23.104 13.0183 23.488 13.1463 23.1467C13.0183 22.8053 12.9756 22.464 13.061 22.1227C13.1463 21.8667 13.2316 21.6533 13.4023 21.4827L13.4876 21.5253C13.573 21.952 13.6156 22.336 13.7863 22.72C13.7436 23.104 13.573 23.4453 13.4876 23.8293C13.4023 24.2133 13.1036 24.5547 12.7196 24.7253C12.6343 24.8107 12.549 24.896 12.6343 25.024C12.7196 25.1947 12.9756 25.1093 13.1463 25.152C13.6583 25.0667 14.1276 24.8533 14.5116 24.4693C14.8956 24.5547 15.0663 24.128 15.4076 24.2987C15.749 24.5547 16.389 24.0853 16.517 24.6827C16.4743 24.9387 16.7303 25.408 16.3036 25.536C15.877 25.4507 15.365 24.896 14.9383 25.408C14.853 25.4933 14.7676 25.6213 14.853 25.792C14.9383 25.92 15.0236 26.048 14.8956 26.176C14.7676 26.3893 14.597 26.6453 14.725 26.8587C14.8103 26.9867 14.981 26.9867 15.109 26.9867C15.365 26.9013 15.5783 27.1147 15.8343 27.1147C16.0476 27.2853 16.261 27.4987 16.5596 27.456C16.6876 27.3707 16.645 27.2427 16.7303 27.1573C16.901 26.9867 17.285 27.0293 17.285 26.688C17.3276 26.432 17.541 26.2187 17.7543 26.0907C17.8396 25.9627 18.3516 25.8347 18.4796 25.6213Z" fill="black"/>
<path d="M18.4796 25.6213C18.3943 25.536 18.309 25.408 18.2663 25.3653C18.181 24.896 18.8636 24.64 18.5223 24.128C18.437 23.8293 18.5223 23.488 18.2236 23.2747C18.0103 23.104 17.7543 23.0613 17.541 22.9333C17.541 22.8053 17.7116 22.848 17.7543 22.8053C18.1383 22.72 18.437 23.1467 18.7356 22.8053C18.7783 22.5493 18.5223 22.336 18.3516 22.1653C17.797 21.7813 16.9863 21.952 16.5596 21.3547L16.6023 21.312C17.1143 21.44 17.7116 21.312 18.0956 20.9707C18.309 20.672 18.565 20.3733 18.9063 20.288C19.2903 19.9893 19.333 19.52 19.333 19.0933C19.333 18.9227 19.4183 18.752 19.5463 18.624C19.7596 18.4533 20.2716 18.496 20.1436 18.112C19.845 17.9413 19.5463 17.8133 19.2476 17.856C19.1196 17.7707 19.2903 17.6427 19.333 17.6C19.845 17.2587 20.6983 17.0453 20.6556 16.2347C20.613 16.1493 20.613 16.0213 20.485 16.0213C20.2716 16.064 20.101 16.2773 19.8876 16.3627C19.3756 16.6613 18.7783 16.576 18.2663 16.8747C18.181 16.8747 18.181 16.7467 18.2236 16.704C18.3943 16.448 18.7783 16.448 18.9063 16.1067C18.9916 15.8507 19.0343 15.5093 19.333 15.424C19.5036 15.296 19.7596 15.296 19.845 15.0827C19.845 14.9547 19.6743 14.912 19.589 14.8693C19.1196 14.7413 18.6503 14.9973 18.309 15.3387C17.9676 15.5093 17.541 15.6373 17.285 15.8933C17.2423 15.8933 17.157 15.8933 17.157 15.808C17.0716 15.1253 17.669 14.656 18.1383 14.272C18.437 14.1867 18.7356 13.8027 19.077 13.9733C19.333 14.1013 19.589 14.2293 19.8876 14.144C20.2716 14.016 20.357 13.5893 20.6556 13.376C20.9116 13.2907 21.253 13.6747 21.4236 13.2907C21.509 12.9067 21.2103 12.6933 21.0396 12.4373C21.253 11.9253 21.0823 11.328 20.6556 10.944C20.4423 10.816 20.1863 10.7307 19.973 10.816C19.8023 11.0293 20.1436 11.2 20.1436 11.4133C20.229 12.352 19.205 12.5653 18.565 12.992C17.413 13.5893 16.005 14.4853 15.9196 15.9787C15.9196 16.7893 16.3036 17.5573 16.8583 18.112C17.157 18.624 17.6263 19.0933 17.4556 19.776C17.3276 20.032 17.029 20.0747 16.773 20.0747C15.7916 19.9893 15.237 18.88 14.8103 18.112C14.6823 17.8133 14.5116 17.5147 14.469 17.1733C14.5116 17.1307 14.5543 17.1307 14.6396 17.1733C14.8103 17.344 14.8103 17.728 15.109 17.6853C15.365 17.344 15.1943 16.9173 15.0236 16.576C14.853 16.2773 14.469 16.1067 14.2983 15.7653C14.2983 15.5093 14.6396 15.68 14.6823 15.424C14.5543 14.9973 14.5116 14.528 14.597 14.144C14.6823 13.9733 14.9383 13.9733 14.9383 13.76C14.8103 13.3333 14.8103 12.9493 14.853 12.48C14.8956 12.224 15.109 11.9253 14.981 11.6693C14.6823 11.584 14.9383 11.2 14.6396 11.1573C14.085 11.1573 13.6583 10.8587 13.189 10.688C12.933 10.6027 12.7623 10.7733 12.549 10.816C12.2503 10.9013 11.909 10.9013 11.6956 11.1147C11.525 11.2853 11.5676 11.4987 11.5676 11.7547C11.525 11.8827 11.397 11.7547 11.3116 11.7547C11.0983 11.6267 11.013 11.3707 11.0556 11.1147C11.0983 10.9867 11.0556 10.9013 10.9276 10.816C10.757 10.7307 10.5436 10.688 10.373 10.7307C10.1596 10.816 10.0743 11.072 9.98898 11.2853C9.98898 11.456 9.98898 11.6693 10.0743 11.7973C10.4156 12.1387 10.885 12.2667 11.2263 12.5653C11.3116 12.7787 11.141 12.9493 11.013 13.12C11.013 13.2907 11.269 13.2907 11.2263 13.4613C10.9703 13.5467 10.7143 13.4613 10.501 13.2907C10.373 13.1627 10.3303 12.9067 10.117 12.9067C9.90365 12.9067 9.90365 13.1627 9.81831 13.2907C9.73298 13.4613 9.81831 13.6747 9.64765 13.8027H9.51965C8.83698 13.5893 8.23965 13.2053 7.64231 12.736C7.30098 12.48 7.04498 12.0533 6.78898 11.712C6.66098 11.2853 6.57565 10.7307 6.06365 10.6027C5.93565 10.6027 5.80765 10.6453 5.76498 10.7733L5.72231 10.944C5.46631 10.944 5.21031 10.7733 4.91165 10.8587C4.78365 10.944 4.65565 11.0293 4.57031 11.1573C4.57031 11.456 4.91165 11.328 4.95431 11.584C4.95431 11.7973 5.12498 11.968 5.21031 12.1387C5.12498 12.2667 4.99698 12.3093 4.95431 12.4373L4.78365 12.864C4.86898 12.992 4.95431 13.1627 5.08231 13.1627C5.29565 13.0773 5.50898 13.248 5.76498 13.2053C5.93565 13.2053 6.14898 13.0773 6.19165 13.3333C6.27698 13.5467 6.19165 13.7173 6.19165 13.888C5.97831 14.1867 5.67965 14.4427 5.38098 14.5707C5.29565 14.656 5.29565 14.784 5.29565 14.8693C5.42365 15.04 5.67965 14.9547 5.85031 14.9547C6.19165 14.9547 6.44765 14.7413 6.78898 14.6987C6.87431 14.8693 7.00231 15.0827 7.17298 15.168C7.42898 15.2533 7.51431 14.8693 7.77031 14.9547C7.98365 15.1253 7.89831 15.424 8.11165 15.6373C8.11165 15.7653 8.02631 15.7653 7.94098 15.808C7.64231 15.8933 7.25831 15.808 7.04498 16.0213C7.00231 16.1493 7.13031 16.2773 7.21565 16.32C7.47165 16.448 7.77031 16.4907 8.06898 16.5333C8.32498 16.576 8.62365 16.448 8.87965 16.5333L8.79431 16.6613L7.98365 17.216C7.59965 17.3867 7.21565 17.4293 6.87431 17.6427C6.36231 17.7707 6.14898 17.1307 5.67965 17.1733C5.46631 17.1733 5.33831 17.2587 5.21031 17.344C5.08231 17.472 5.08231 17.6427 5.12498 17.8133C5.21031 17.984 5.42365 17.8987 5.42365 18.0693C5.42365 18.5387 4.99698 18.88 4.95431 19.3493C4.95431 19.4773 4.95431 19.6053 5.08231 19.648C5.16765 19.6907 5.29565 19.648 5.38098 19.6053C5.46631 19.52 5.46631 19.3493 5.63698 19.3067C5.93565 19.3493 6.23431 19.3493 6.40498 19.136C6.49031 19.136 6.61831 19.2213 6.61831 19.3067C6.61831 19.4347 6.61831 19.5627 6.74631 19.6053C7.17298 19.6053 7.34365 19.1787 7.55698 18.88C7.72765 18.8373 7.94098 18.7093 8.11165 18.8373C8.19698 19.136 7.94098 19.3067 7.89831 19.6053C7.89831 19.6907 7.98365 19.7333 8.06898 19.7333C8.58098 19.648 8.83698 19.2213 9.13565 18.8373C9.17831 18.752 9.22098 18.624 9.39165 18.624C9.77565 18.752 9.86098 18.2827 10.117 18.112H10.2023C10.245 18.24 10.1596 18.3253 10.2023 18.4107C10.373 18.5813 10.5436 18.4107 10.7143 18.368L11.0556 18.1547C11.4823 18.2827 11.909 18.368 12.3356 18.496C12.677 18.624 12.3356 19.008 12.549 19.2213C12.5063 19.3493 12.3356 19.392 12.2076 19.392C11.4823 19.4773 10.629 19.3067 10.0316 19.8187L9.69031 20.16C9.13565 20.16 8.87965 20.6293 8.36765 20.7147C8.02631 20.928 7.51431 20.6293 7.30098 21.0133C7.47165 21.3547 7.89831 21.4827 8.23965 21.568C8.41031 21.6533 8.62365 21.568 8.70898 21.7387C8.70898 21.9093 8.75165 22.1227 8.96498 22.1653C9.09298 22.208 9.17831 21.9947 9.34898 22.1227C9.51965 22.3787 9.81831 22.5067 9.94631 22.72C9.81831 22.9333 9.56231 22.8053 9.34898 22.8053H9.30631C9.00765 22.848 8.62365 22.976 8.41031 22.72C8.11165 22.5067 7.85565 22.1227 7.38631 22.1227C7.13031 22.208 6.87431 22.2933 6.83165 22.592C6.78898 22.7627 6.95965 22.8053 7.04498 22.9333C6.74631 23.1467 6.44765 23.4453 6.53298 23.8293C6.57565 23.9147 6.61831 24 6.70365 24C6.87431 24 6.95965 23.872 7.13031 23.9573C7.17298 24.2133 7.08765 24.5973 7.38631 24.7253C7.59965 24.6827 7.77031 24.4267 8.02631 24.64C8.28231 24.768 8.49565 24.512 8.70898 24.4693C9.05031 24.4693 9.17831 24.8107 9.30631 25.0667C9.51965 25.2373 9.81831 25.4933 10.117 25.3227C10.3303 25.024 9.94631 24.6827 10.3303 24.512C10.5436 24.4267 10.757 24.512 11.013 24.4693C11.397 24.512 11.8236 24.5547 12.037 24.128L12.3783 23.5733L12.4636 23.232C12.677 23.1467 12.9756 23.5307 13.1036 23.1893C12.9756 22.848 12.933 22.5067 13.0183 22.1653C13.1036 21.9093 13.189 21.696 13.3596 21.5253L13.445 21.568C13.5303 21.9947 13.573 22.3787 13.7436 22.7627C13.701 23.1467 13.5303 23.488 13.445 23.872C13.3596 24.256 13.061 24.5973 12.677 24.768C12.5916 24.8533 12.5063 24.9387 12.5916 25.0667C12.677 25.2373 12.933 25.152 13.1036 25.1947C13.6156 25.1093 14.085 24.896 14.469 24.512C14.853 24.5973 15.0236 24.1707 15.365 24.3413C15.7063 24.5973 16.3463 24.128 16.4743 24.7253C16.4316 24.9813 16.6876 25.4507 16.261 25.5787C15.8343 25.4933 15.3223 24.9387 14.8956 25.4507C14.8103 25.536 14.725 25.664 14.8103 25.8347C14.8956 25.9627 14.981 26.0907 14.853 26.2187C14.725 26.432 14.5543 26.688 14.6823 26.9013C14.7676 27.0293 14.9383 27.0293 15.0663 27.0293C15.3223 26.944 15.5356 27.1573 15.7916 27.1573C16.005 27.328 16.2183 27.5413 16.517 27.4987C16.645 27.4133 16.6023 27.2853 16.6876 27.2C16.8583 27.0293 17.2423 27.072 17.2423 26.7307C17.285 26.4747 17.4983 26.2613 17.7116 26.1333C17.8396 25.9627 18.3516 25.8347 18.4796 25.6213Z" stroke="black" stroke-width="0.2189"/>
<path d="M10.8842 11.072C10.8415 11.2854 10.8415 11.4987 10.9695 11.6694C11.3108 12.0534 11.8655 12.1814 12.0788 12.608H11.9508C11.5242 12.352 11.1402 12.0107 10.7135 11.84C10.5428 11.712 10.4148 11.5414 10.4575 11.328C10.5002 11.2 10.5428 11.0294 10.7135 10.9867C10.7988 10.944 10.8842 10.9867 10.8842 11.072Z" fill="white"/>
<path d="M14.4254 11.456C14.5107 11.5414 14.4254 11.7547 14.6387 11.7974C14.6814 11.7974 14.7241 11.84 14.7241 11.8827C14.7241 12.0534 14.6814 12.224 14.6387 12.3947C14.5961 12.5227 14.4254 12.5654 14.4254 12.7787C14.4254 12.864 14.5534 12.9067 14.5961 13.0347V13.7174C14.1694 13.8454 14.3827 14.3574 14.3401 14.6134C14.2974 14.8267 14.3401 15.04 14.3401 15.2534C14.2547 15.296 14.0414 15.296 13.9987 15.424C13.9987 15.68 14.1267 15.8934 14.2121 16.064C14.3827 16.2774 14.6814 16.32 14.6814 16.6187C14.4681 16.6187 14.2547 16.4907 14.0841 16.4054C13.7854 16.2347 13.5721 15.8934 13.3587 15.5947C13.3161 15.552 13.2307 15.552 13.1881 15.5947C13.1454 15.808 13.1454 16.064 12.9747 16.192C12.7614 16.064 12.7614 15.5094 12.4201 15.68C12.2921 16.4054 11.8227 16.96 11.3961 17.5574C11.3107 17.6 11.2681 17.728 11.1401 17.728C11.3534 17.1734 11.5241 16.5334 11.3107 15.8934C11.2681 15.7654 11.1401 15.808 11.0547 15.8507C10.9694 15.936 10.8841 16.064 10.7561 16.0214C10.6281 15.8507 10.8841 15.552 10.5854 15.424C10.3721 15.4667 10.2014 15.68 10.0307 15.7654C9.51872 16.064 8.92139 16.192 8.32406 16.192C8.19606 16.192 8.11072 16.1494 8.02539 16.1067C8.15339 15.936 8.40939 15.936 8.58006 15.808C9.26272 15.3814 9.73206 14.6134 10.2867 14.0587C10.2441 13.8027 10.0307 13.504 10.2441 13.2907C10.4147 13.2907 10.5001 13.504 10.6281 13.5467C10.8841 13.6747 11.1827 13.76 11.4387 13.632C11.6521 13.5894 11.8227 13.376 11.8654 13.1627C11.8654 13.0774 11.8227 12.992 11.7374 12.992C11.6521 12.992 11.6094 12.992 11.5667 12.9067C11.5667 12.7787 11.6521 12.6934 11.7374 12.6934C12.0361 12.6934 12.2921 13.2907 12.5054 12.8214C12.6334 12.4374 12.2494 12.1387 11.9934 11.8827C11.9081 11.7974 11.8654 11.712 11.9081 11.584C12.1214 11.456 11.8654 11.2854 12.0361 11.1147C12.3347 10.9014 12.7614 11.0294 13.0601 10.816C13.5721 10.9867 13.9561 11.3707 14.4254 11.456Z" fill="white"/>
<path d="M6.53274 11.3281C6.53274 11.4134 6.57541 11.4988 6.53274 11.5414C6.44741 11.6268 6.36207 11.5414 6.31941 11.4988C6.23407 11.4134 6.19141 11.2854 6.19141 11.2001C6.23407 10.8588 6.53274 11.2001 6.53274 11.3281Z" fill="white"/>
<path d="M6.27596 11.7974C6.74529 12.0107 7.04396 12.48 7.38529 12.864C8.11062 13.4614 8.87862 13.9734 9.73196 14.2294C9.77462 14.3574 9.64662 14.4854 9.56129 14.5707C9.26262 14.8694 9.04929 15.2107 8.75062 15.4667C8.66529 15.4667 8.62262 15.4667 8.57996 15.4667C8.28129 15.168 8.32396 14.6134 7.81196 14.5707C7.64129 14.5707 7.51329 14.784 7.34262 14.656C7.17196 14.528 7.38529 14.2294 7.12929 14.144C6.83062 14.272 6.61729 14.5707 6.27596 14.528C6.48929 14.144 6.87329 13.76 6.65996 13.2907C6.61729 13.0774 6.48929 12.8214 6.27596 12.7787C6.06262 12.7787 5.97729 12.992 5.76396 12.9067C5.67862 12.736 5.29462 12.8214 5.46529 12.5654C5.59329 12.352 6.06262 12.352 5.89196 12.0107C5.76396 11.84 5.42262 11.9254 5.42262 11.6694C5.46529 11.5414 5.33729 11.328 5.42262 11.2427C5.80662 11.1574 6.06262 11.584 6.27596 11.7974Z" fill="white"/>
<path d="M20.8674 12.0107C20.9101 12.2667 20.6541 12.4373 20.7394 12.6933C20.8248 12.8213 21.0381 12.864 20.9954 12.992C20.3554 12.992 20.2274 13.8453 19.6301 13.8027C19.3741 13.76 19.1608 13.4613 18.8621 13.5893C18.0514 13.9733 17.1554 14.528 16.9421 15.5093C16.8568 15.8933 16.8568 16.2773 17.1554 16.576C17.2408 16.6187 17.3261 16.6187 17.3688 16.576C17.5394 16.2773 17.6674 15.8933 18.0514 15.808C18.2648 15.7227 18.5208 15.6373 18.7341 15.5093C18.7768 15.5093 18.8194 15.4667 18.8194 15.552C18.7341 15.8507 18.6061 16.192 18.2648 16.2773C18.0514 16.4907 17.7954 16.704 17.7954 17.0027C17.7954 17.1307 17.7528 17.344 17.8808 17.472C18.0088 17.5573 18.1368 17.4293 18.2221 17.3867C18.6488 16.8747 19.2888 16.7893 19.9288 16.7467C19.9714 16.7893 19.8861 16.9173 19.8008 16.9173C19.2461 17.088 18.7341 17.5573 18.5634 18.112C18.5634 18.1973 18.6488 18.2827 18.6914 18.2827C18.9474 18.24 19.1608 18.0693 19.4594 18.112C19.5448 18.2827 19.2461 18.2827 19.1608 18.4533C18.6488 18.9227 19.1608 19.904 18.3074 20.0747C18.0514 20.16 18.0941 20.4587 17.9234 20.5867C17.6248 20.9707 17.1554 21.056 16.7288 21.0133C16.3874 21.056 16.1314 20.5867 15.8328 20.8853C15.8754 21.2267 16.1314 21.3973 16.3021 21.696C16.7288 22.08 17.2834 22.1227 17.8381 22.2933C17.9234 22.2933 17.9661 22.3787 18.0088 22.4213C18.0088 22.5493 17.8381 22.5067 17.7528 22.5067C17.4114 22.5493 17.0274 22.592 16.6861 22.464C16.6434 22.464 16.6008 22.5067 16.5581 22.5493C16.6008 22.9333 17.0274 23.0613 17.2834 23.232C17.5394 23.36 17.8808 23.3173 17.9661 23.616V24C18.0941 24.1707 18.1368 24.4267 18.0941 24.64C17.8808 24.896 17.7101 25.2373 17.8808 25.6213C17.7954 25.7067 17.6248 25.6213 17.5394 25.7067C17.4114 25.9627 17.1128 26.0053 17.0274 26.2187C17.0274 26.432 16.8994 26.6027 16.6861 26.6453C16.5154 26.6453 16.3874 26.7307 16.2594 26.688C16.1741 26.56 16.3021 26.3893 16.1314 26.304C15.9181 26.2613 15.8328 26.6027 15.5768 26.4747C15.4488 26.3893 15.3634 26.3467 15.2781 26.2613C15.2781 26.0907 15.4061 26.048 15.4914 26.0053C16.0461 25.92 16.7714 25.8347 16.9421 25.2373C16.9848 24.9387 16.8568 24.7253 16.8994 24.4693C16.8141 24.1707 16.5154 23.9573 16.1741 23.9147C15.8754 23.8293 15.5341 23.9573 15.3208 23.744C15.2354 23.6587 15.1501 23.616 15.0221 23.6587C14.9368 23.6587 14.8941 23.7867 14.8088 23.744C14.7234 23.6587 14.5954 23.5307 14.5101 23.6587C14.2968 24.0427 13.9981 24.4693 13.5288 24.5547C13.4434 24.4267 13.6141 24.2987 13.6568 24.1707C13.7848 23.872 13.9128 23.488 13.9981 23.1467C14.1261 22.976 14.2968 22.72 14.1688 22.464C13.9554 21.9093 13.7421 21.2693 13.9128 20.6293C14.0408 19.8613 13.8274 19.136 13.2728 18.624C12.9741 18.4533 12.6754 18.112 12.2914 18.0693C12.0354 17.984 11.6941 18.0693 11.5234 17.856C11.5661 17.6 11.8221 17.4293 11.9501 17.216L12.3768 16.5333C12.5474 16.4907 12.5048 16.7467 12.6754 16.7467C13.0168 16.7467 13.0168 16.1493 13.3581 16.3627C13.5288 16.576 13.7848 16.6613 13.9554 16.8747C14.1688 17.8133 14.5528 18.752 15.1928 19.4773C15.7048 20.1173 16.4728 20.5867 17.2408 20.3733C17.4541 20.2027 17.7528 19.9893 17.7954 19.6907C18.0088 18.1973 16.0888 17.4293 16.2168 15.936C16.3448 14.528 17.7954 13.76 18.9474 13.2053C19.5874 12.864 20.3554 12.4373 20.4408 11.6267C20.4408 11.5413 20.4408 11.4987 20.4834 11.4133C20.8674 11.4987 20.8248 11.7973 20.8674 12.0107Z" fill="white"/>
<path d="M10.5431 16.4907C10.7137 16.5334 10.9271 16.2774 11.0124 16.5334C10.9697 16.8747 10.9697 17.3014 10.7991 17.6001C10.6284 17.7707 10.3724 17.6427 10.2017 17.7281C9.94575 17.8134 9.90308 18.4107 9.60442 18.0267C9.47642 17.9841 9.39108 18.1121 9.30575 18.1974C9.17775 18.4961 9.04975 18.8374 8.79375 19.0934C8.75108 19.1361 8.66575 19.1787 8.62308 19.0934C8.58042 18.8801 8.75108 18.4961 8.45242 18.4107C8.32442 18.4107 8.19642 18.4961 8.06842 18.5387C7.81242 18.5387 7.47108 18.5387 7.34308 18.7521C7.30042 18.8801 7.30042 19.0507 7.12975 19.0507C6.95908 18.9654 6.78842 18.9227 6.70308 18.7521C6.61775 18.7094 6.53242 18.6241 6.44708 18.7094C6.31908 18.8374 6.27642 19.0934 6.06308 19.0934C5.89242 19.0934 5.76442 19.0507 5.59375 18.9654C5.63642 18.5814 6.06308 18.5387 6.31908 18.3681C6.83108 18.2401 7.25775 17.8987 7.76975 17.8134C8.58042 17.5147 9.26308 16.8747 9.90308 16.2347C9.98842 16.1921 10.1164 16.1494 10.2017 16.1494C10.3724 16.2774 10.3724 16.4481 10.5431 16.4907Z" fill="white"/>
<path d="M6.48961 18.0268C6.31894 18.1121 6.10561 18.1974 5.93494 18.1121C5.84961 18.0268 5.89228 17.8134 5.84961 17.6854C5.89228 17.5574 6.06294 17.6001 6.14828 17.6428C6.27628 17.7708 6.48961 17.8134 6.48961 18.0268Z" fill="white"/>
<path d="M13.6149 20.16C13.6149 20.416 13.5723 20.5867 13.4443 20.8C13.1456 21.056 12.8896 21.3974 12.8043 21.824C12.8043 22.1227 12.7616 22.3787 12.7616 22.6347C12.6763 22.72 12.5909 22.592 12.5483 22.5494C12.4203 22.336 12.4629 21.9094 12.1216 21.952C11.9509 22.1654 11.7376 22.464 11.8656 22.72C12.0363 22.9334 12.3349 23.104 12.1643 23.4027C11.9083 23.5307 11.9936 23.9147 11.6523 23.9574C11.1403 24.0427 10.6283 23.7867 10.2443 24.1707C10.1163 24.2987 10.0309 24.4694 9.94561 24.64C9.73227 24.6827 9.77494 24.3414 9.64694 24.2134C9.56161 24.0854 9.39094 24.1707 9.26294 24.0854C9.09227 24 8.87894 23.8294 8.66561 23.9574C8.49494 24.0427 8.28161 24.2987 8.06827 24.128L7.76961 24.0427C7.76961 23.9574 7.85494 23.8294 7.76961 23.7014L7.21494 23.4027C7.17227 23.36 7.21494 23.2747 7.25761 23.232C7.72694 22.9334 8.28161 23.2747 8.83627 23.1894C9.22027 23.0614 9.56161 23.104 9.94561 23.1467C10.1589 23.1467 10.4149 23.232 10.5429 23.0187C10.6283 22.8907 10.6709 22.72 10.5856 22.592C10.4149 22.208 9.90294 22.1654 9.81761 21.696C9.77494 21.6107 9.73227 21.5254 9.64694 21.4827C9.51894 21.44 9.43361 21.568 9.30561 21.5254C9.26294 21.3974 9.22027 21.2694 9.09227 21.2267C8.83627 21.2267 8.53761 21.3547 8.32427 21.184C8.36694 21.056 8.53761 21.0987 8.62294 21.0134C8.96427 20.928 9.26294 20.7147 9.60427 20.544L10.0736 20.4587C10.5429 19.6907 11.5243 19.7334 12.3776 19.6907L13.1883 19.4347C13.4869 19.6054 13.5723 19.9467 13.6149 20.16Z" fill="white"/>
<path d="M8.32359 22.848C8.15293 22.9333 7.98226 22.8907 7.81159 22.848C7.72626 22.7627 7.68359 22.592 7.68359 22.464C7.93959 22.3787 8.19559 22.6347 8.32359 22.848Z" fill="white"/>
<path d="M15.7485 25.536C15.7485 25.6213 15.6632 25.6213 15.6205 25.6213C15.5352 25.6213 15.5352 25.5787 15.5352 25.536C15.5352 25.408 15.7058 25.4933 15.7485 25.536Z" fill="white"/>
<path d="M13.5719 11.7547C13.6145 11.8827 13.5292 11.968 13.4012 11.968C13.1879 11.968 13.0172 11.968 12.8892 11.7974C12.7185 11.6694 12.8039 11.4987 12.8465 11.328C12.9319 11.2427 13.0172 11.2427 13.1025 11.2853C13.2732 11.4133 13.4439 11.584 13.5719 11.7547Z" fill="black"/>
<path d="M14.5109 12.0108C14.5109 12.1388 14.4256 12.2668 14.3402 12.3948C14.2549 12.4374 14.1696 12.3948 14.1696 12.3094C14.1269 12.1814 14.2122 12.0108 14.2976 11.9254C14.3829 11.8828 14.5109 11.9254 14.5109 12.0108Z" fill="black"/>
<path d="M13.444 13.2053V13.504C13.1453 13.8027 13.1453 14.3147 12.7186 14.4853C12.5906 14.4853 12.5053 14.4427 12.5053 14.3147C12.5053 14.144 12.4626 13.888 12.5053 13.7173C12.676 13.632 12.7186 13.9733 12.8893 13.8027C12.9746 13.5467 13.188 13.3333 13.316 13.12C13.3586 13.12 13.444 13.1627 13.444 13.2053Z" fill="black"/>
<path d="M0.771484 8.04272H26.1155V9.79206H0.771484V8.04272Z" fill="black"/>
<path d="M0.771484 8.04272H26.1155V9.79206H0.771484V8.04272Z" stroke="black" stroke-width="0.2189"/>
<path d="M19.6309 8.34143H22.4895V9.49343H19.6309V8.34143Z" fill="white"/>
<path d="M13.3594 8.34143H16.218V9.49343H13.3594V8.34143Z" fill="white"/>
<path d="M7.04492 8.34143H9.94625V9.49343H7.04492V8.34143Z" fill="white"/>
<path d="M1.07031 8.34143H3.67298V9.49343H1.07031V8.34143Z" fill="white"/>
<path d="M24.9638 1.77076C25.1771 2.02676 25.0491 2.41076 25.0918 2.70942C25.3051 2.88009 25.8171 2.70942 25.8598 3.13609C25.9025 3.30676 25.7745 3.43476 25.6891 3.52009C25.5185 3.69076 25.2625 3.52009 25.1345 3.69076C25.0918 4.20276 25.1345 4.75742 25.1345 5.35476C25.3051 5.44009 25.4758 5.44009 25.6465 5.52542C25.7318 5.61076 25.8171 5.73876 25.8171 5.86676C25.8171 5.99476 25.7318 6.12276 25.5611 6.16542C25.4331 6.25076 25.1771 6.16542 25.1345 6.33609C25.0491 6.59209 25.1345 6.93342 25.0918 7.23209C24.9211 7.31742 24.6651 7.31742 24.4518 7.31742H22.4038C22.2331 7.40276 22.0198 7.61609 21.7638 7.48809C21.3371 7.23209 20.7398 7.31742 20.2705 7.27476H18.7771C18.5211 7.01876 18.6918 6.63476 18.6065 6.33609C18.5211 6.16542 18.2225 6.25076 18.0518 6.16542C17.8811 6.08009 17.8811 5.90942 17.8811 5.78142C17.8811 5.61076 18.0518 5.52542 18.2225 5.48276C18.3505 5.39742 18.5638 5.52542 18.6065 5.35476C18.6065 4.84276 18.5638 4.28809 18.6065 3.81876C18.5638 3.52009 18.1798 3.69076 18.0091 3.56276C17.8385 3.47742 17.8385 3.26409 17.8811 3.09342C18.0091 2.79476 18.3505 2.88009 18.6065 2.79476L18.6491 2.70942L18.6918 1.81342L18.7345 1.72809L21.0811 1.77076C21.3371 1.77076 21.5931 1.89876 21.8491 1.98409C22.3611 1.60009 23.0865 1.81342 23.6838 1.68542C24.1105 1.77076 24.5371 1.68542 24.9638 1.77076Z" fill="black"/>
<path d="M24.9638 1.77076C25.1771 2.02676 25.0491 2.41076 25.0918 2.70942C25.3051 2.88009 25.8171 2.70942 25.8598 3.13609C25.9025 3.30676 25.7745 3.43476 25.6891 3.52009C25.5185 3.69076 25.2625 3.52009 25.1345 3.69076C25.0918 4.20276 25.1345 4.75742 25.1345 5.35476C25.3051 5.44009 25.4758 5.44009 25.6465 5.52542C25.7318 5.61076 25.8171 5.73876 25.8171 5.86676C25.8171 5.99476 25.7318 6.12276 25.5611 6.16542C25.4331 6.25076 25.1771 6.16542 25.1345 6.33609C25.0491 6.59209 25.1345 6.93342 25.0918 7.23209C24.9211 7.31742 24.6651 7.31742 24.4518 7.31742H22.4038C22.2331 7.40276 22.0198 7.61609 21.7638 7.48809C21.3371 7.23209 20.7398 7.31742 20.2705 7.27476H18.7771C18.5211 7.01876 18.6918 6.63476 18.6065 6.33609C18.5211 6.16542 18.2225 6.25076 18.0518 6.16542C17.8811 6.08009 17.8811 5.90942 17.8811 5.78142C17.8811 5.61076 18.0518 5.52542 18.2225 5.48276C18.3505 5.39742 18.5638 5.52542 18.6065 5.35476C18.6065 4.84276 18.5638 4.28809 18.6065 3.81876C18.5638 3.52009 18.1798 3.69076 18.0091 3.56276C17.8385 3.47742 17.8385 3.26409 17.8811 3.09342C18.0091 2.79476 18.3505 2.88009 18.6065 2.79476L18.6491 2.70942L18.6918 1.81342L18.7345 1.72809L21.0811 1.77076C21.3371 1.77076 21.5931 1.89876 21.8491 1.98409C22.3611 1.60009 23.0865 1.81342 23.6838 1.68542C24.1105 1.77076 24.5371 1.68542 24.9638 1.77076Z" stroke="black" stroke-width="0.2231"/>
<path d="M16.517 1.72808C16.6023 1.72808 16.7303 1.81341 16.8156 1.85608C16.901 2.19741 16.8156 2.45341 16.901 2.75208C17.1143 2.83741 17.4556 2.75208 17.5836 3.05074C17.6263 3.17874 17.6263 3.39208 17.541 3.47741C17.3703 3.69074 16.9863 3.47741 16.8583 3.73341C16.8156 4.33074 16.8156 4.80008 16.8583 5.35474C17.029 5.52541 17.3276 5.39741 17.4983 5.61074C17.5836 5.69608 17.6263 5.82408 17.5836 5.95207C17.4556 6.16541 17.157 6.16541 16.901 6.20808C16.8156 6.29341 16.901 6.46408 16.8583 6.54941C16.773 6.76274 16.9863 7.06141 16.7303 7.18941C16.005 7.27474 15.365 7.14674 14.6396 7.18941H13.957C13.7863 7.31741 13.5303 7.48808 13.317 7.36008L12.8903 7.18941C12.3783 7.18941 11.909 7.18941 11.397 7.18941C11.0556 7.18941 10.5863 7.31741 10.3303 7.01874C10.3303 6.76274 10.373 6.46408 10.3303 6.20808C10.0743 6.12274 9.64763 6.25074 9.51963 5.90941C9.47696 5.82408 9.51963 5.65341 9.56229 5.56808C9.73296 5.31208 10.2023 5.52541 10.373 5.31208V4.54408C10.4156 4.20274 10.373 3.90408 10.373 3.56274C10.117 3.47741 9.64763 3.60541 9.60496 3.22141C9.56229 3.00808 9.69029 2.83741 9.86096 2.79474C10.0316 2.75208 10.2876 2.83741 10.373 2.66674L10.4156 1.85608C10.629 1.51474 11.141 1.72808 11.4396 1.68541H13.0183C13.2743 1.72808 13.4876 1.94141 13.7436 1.81341C14.5116 1.51474 15.5783 1.81341 16.517 1.72808Z" fill="black"/>
<path d="M16.5161 1.72808C16.6014 1.72808 16.7294 1.81341 16.8147 1.85608C16.9001 2.19741 16.8147 2.45341 16.9001 2.75208C17.1134 2.83741 17.4547 2.75208 17.5827 3.05074C17.6254 3.17874 17.6254 3.39208 17.5401 3.47741C17.3694 3.69074 16.9854 3.47741 16.8574 3.73341C16.8147 4.33074 16.8147 4.80008 16.8574 5.35474C17.0281 5.52541 17.3267 5.39741 17.4974 5.61074C17.5827 5.69608 17.6254 5.82408 17.5827 5.95207C17.4547 6.16541 17.1561 6.16541 16.9001 6.20808C16.8147 6.29341 16.9001 6.46408 16.8574 6.54941C16.7721 6.76274 16.9854 7.06141 16.7294 7.18941C16.0041 7.27474 15.3641 7.14674 14.6387 7.18941H13.9561C13.7854 7.31741 13.5294 7.48808 13.3161 7.36008L12.8894 7.18941C12.3774 7.18941 11.9081 7.18941 11.3961 7.18941C11.0547 7.18941 10.5854 7.31741 10.3294 7.01874C10.3294 6.76274 10.3721 6.46408 10.3294 6.20808C10.0734 6.12274 9.64674 6.25074 9.51874 5.90941C9.47607 5.82408 9.51874 5.65341 9.56141 5.56808C9.73207 5.31208 10.2014 5.52541 10.3721 5.31208V4.54408C10.4147 4.20274 10.3721 3.90408 10.3721 3.56274C10.1161 3.47741 9.64674 3.60541 9.60408 3.22141C9.56141 3.00808 9.68941 2.83741 9.86008 2.79474C10.0307 2.75208 10.2867 2.83741 10.3721 2.66674L10.4147 1.85608C10.6281 1.51474 11.1401 1.72808 11.4387 1.68541H13.0174C13.2734 1.72808 13.4867 1.94141 13.7427 1.81341C14.5107 1.51474 15.5774 1.81341 16.5161 1.72808ZM4.91074 1.89874C5.76408 1.55741 6.70274 1.81341 7.64141 1.72808C7.89741 1.77074 8.23874 1.60008 8.40941 1.85608C8.40941 2.11208 8.40941 2.36808 8.40941 2.66674C8.49474 2.88008 8.79341 2.75208 8.92141 2.83741C9.00674 2.88008 9.09207 2.92274 9.13474 3.05074C9.17741 3.17874 9.13474 3.30674 9.09207 3.43474C8.92141 3.60541 8.70808 3.56274 8.49474 3.60541L8.40941 3.69074C8.45207 4.20274 8.32407 4.62941 8.40941 5.09874C8.40941 5.18408 8.36674 5.35474 8.49474 5.39741C8.75074 5.39741 8.96407 5.39741 9.13474 5.56808C9.22007 5.69608 9.22008 5.82408 9.17741 5.99474C9.09208 6.50674 8.28141 5.90941 8.36674 6.50674C8.36674 6.72008 8.40941 7.01874 8.32408 7.23207C7.38541 7.23207 6.44674 7.14674 5.59341 7.23207C5.42274 7.36007 5.25208 7.44541 4.99608 7.48808C4.82541 7.44541 4.65474 7.36007 4.52674 7.23207C3.67341 7.18941 2.86274 7.18941 2.05208 7.18941C1.79608 6.97607 1.96674 6.59208 1.88141 6.29341C1.75341 6.12274 1.54008 6.25074 1.36941 6.16541C1.24141 6.16541 1.19874 6.03741 1.15608 5.95207C1.15608 5.78141 1.15608 5.61074 1.28408 5.48274C1.41208 5.39741 1.62541 5.39741 1.79608 5.39741L1.88141 5.31208C1.83874 4.75741 1.96674 4.20274 1.83874 3.60541C1.75341 3.47741 1.58274 3.60541 1.49741 3.52008C1.32674 3.47741 1.15608 3.39208 1.11341 3.22141C1.07074 3.09341 1.07074 2.96541 1.19874 2.83741C1.36941 2.62408 1.71074 2.88008 1.88141 2.66674L1.96674 1.85608C2.09474 1.60008 2.39341 1.72808 2.64941 1.72808C3.07608 1.64274 3.58808 1.72808 4.01474 1.72808C4.35608 1.72808 4.65474 1.81341 4.91074 1.89874Z" stroke="black" stroke-width="0.2231"/>
<path d="M4.78225 2.112L4.86758 2.28266C4.91025 3.43466 4.91025 4.58666 4.91025 5.824L4.86758 6.25066C4.56891 6.25066 4.27024 6.12266 3.97158 6.16533C3.63024 6.12266 3.28891 6.208 2.99025 6.12266C2.81958 5.73866 2.94758 5.312 2.90491 4.88533C2.90491 4.032 2.94758 2.96533 2.94758 2.06933C2.94758 1.984 3.03291 1.984 3.07558 1.94133C3.67291 1.984 4.31291 1.81333 4.78225 2.112Z" fill="white"/>
<path d="M2.52084 2.02674C2.35017 2.15474 2.13684 2.36807 2.22217 2.58141C2.30751 4.03207 2.22217 5.31207 2.30751 6.67741L2.43551 6.80541C3.11817 6.80541 3.84351 6.72007 4.48351 6.84807C4.52617 6.84807 4.52617 6.93341 4.48351 6.93341C4.31284 7.01874 4.09951 6.97607 3.92884 6.97607L2.17951 6.93341C2.05151 6.84807 2.09417 6.63474 2.09417 6.46407C2.09417 6.29341 2.13684 6.08007 1.96617 5.99474C1.71017 5.95207 1.49684 5.99474 1.32617 5.82407C1.45417 5.48274 2.00884 5.73874 2.09417 5.39741C2.13684 4.75741 2.05151 4.11741 2.09417 3.52007C2.00884 3.17874 1.66751 3.26407 1.41151 3.22141C1.36884 3.17874 1.32617 3.13607 1.32617 3.05074C1.53951 2.83741 1.96617 3.09341 2.09417 2.79474C2.17951 2.53874 2.09417 2.28274 2.13684 1.98407C2.22217 1.94141 2.39284 1.94141 2.52084 1.94141V2.02674Z" fill="white"/>
<path d="M7.3431 2.02668C7.3431 3.43468 7.3431 4.75735 7.3431 6.08001C6.66043 6.16535 5.89243 6.03735 5.20976 6.20801C5.0391 6.08001 5.1671 5.86668 5.12443 5.65335C5.08177 5.22668 5.12443 4.71468 5.12443 4.24535C5.12443 3.56268 5.08177 2.83735 5.12443 2.15468C5.20977 1.94135 5.46576 1.89868 5.6791 1.89868H7.30043L7.3431 2.02668Z" fill="white"/>
<path d="M8.15453 2.02674C8.1972 2.28274 8.0692 2.66674 8.23986 2.92274C8.41053 3.00807 8.66653 2.96541 8.8372 3.00807C8.92253 3.09341 8.87986 3.17874 8.8372 3.26407C8.66653 3.43474 8.23986 3.22141 8.15453 3.52007C8.15453 4.20274 8.11186 4.84274 8.15453 5.52541L8.23986 5.61074C8.4532 5.65341 8.75186 5.56807 8.87986 5.73874C8.87986 5.82407 8.87986 5.95207 8.79453 5.99474C8.5812 6.03741 8.23986 5.90941 8.11186 6.16541C8.0692 6.42141 8.15453 6.72007 8.0692 6.97607L7.9412 7.01874L5.5092 6.97607C5.46653 6.93341 5.5092 6.89074 5.5092 6.89074L5.7652 6.80541H7.72786C7.9412 6.76274 7.9412 6.50674 7.9412 6.33607C7.9412 5.35474 7.9412 4.54407 7.9412 3.60541C7.9412 3.13607 8.02653 2.70941 7.89853 2.24007C7.89853 2.15474 7.72786 2.06941 7.72786 1.94141C7.89853 1.94141 8.0692 1.94141 8.15453 2.02674Z" fill="white"/>
<path d="M19.2044 2.02675C19.1617 2.15475 18.991 2.28275 18.9484 2.41075C18.9484 3.81875 18.9484 5.35475 18.991 6.80541L19.119 6.89075C19.887 6.89075 20.6977 6.72008 21.3377 7.06141C21.3804 7.06141 21.3377 7.06141 21.3377 7.10408C20.527 7.10408 19.6737 7.14675 18.863 7.10408L18.7777 7.01875C18.735 6.72008 18.8204 6.42141 18.6924 6.12275C18.5217 5.95208 17.967 6.16541 18.095 5.78141C18.3084 5.61075 18.607 5.82408 18.735 5.56808C18.735 4.84275 18.7777 4.20275 18.735 3.52008C18.5644 3.30675 18.3084 3.43475 18.095 3.39208C18.0097 3.30675 17.967 3.22141 18.0524 3.13608C18.2657 2.96541 18.9484 3.17875 18.8204 2.66675C18.9057 2.45341 18.735 2.02675 19.0337 1.98408C19.0764 1.94141 19.1617 1.94141 19.2044 2.02675Z" fill="white"/>
<path d="M24.8354 2.02671C24.9208 2.36804 24.7501 2.66671 24.9634 2.96537C25.1341 3.05071 25.4754 2.92271 25.5608 3.13604C25.5608 3.56271 24.9634 3.22137 24.8354 3.56271C24.8781 4.20271 24.7928 4.75737 24.8354 5.44004C24.7501 5.48271 24.7501 5.56804 24.7928 5.61071C24.9634 5.78137 25.2194 5.52537 25.4328 5.69604C25.5608 5.73871 25.4754 5.82404 25.4754 5.90937C25.3048 6.12271 24.9634 5.86671 24.8354 6.16537L24.7928 7.01871L24.6648 7.06137H22.3608C22.3181 7.01871 22.3608 7.01871 22.3608 6.97604L22.6168 6.89071H24.3661C24.4514 6.89071 24.5794 6.80537 24.5794 6.67737C24.5794 5.31204 24.5368 3.90404 24.5368 2.45337L24.3234 2.02671C24.5368 1.94137 24.7928 1.89871 24.8354 2.02671Z" fill="white"/>
<path d="M19.4608 2.58133C19.4608 3.776 19.4608 5.056 19.4608 6.29333C19.4181 6.37866 19.2901 6.464 19.2474 6.50666L19.1621 6.464C19.1621 6.08 19.1621 5.61066 19.1621 5.22666V4.928C19.1621 4.11733 19.1621 3.22133 19.1621 2.41066C19.2474 2.32533 19.2901 2.19733 19.3754 2.15466C19.4608 2.32533 19.4608 2.41066 19.4608 2.58133Z" fill="white"/>
<path d="M24.4952 2.41076C24.4525 3.39209 24.4952 4.28809 24.4952 5.18409C24.4952 5.61076 24.4952 5.99476 24.4952 6.37876C24.4952 6.42143 24.4952 6.42143 24.4525 6.46409C24.1538 6.33609 24.2818 6.03743 24.2392 5.73876C24.2392 5.39743 24.1965 4.97076 24.2818 4.58676L24.2392 4.45876V2.19743C24.3245 2.06943 24.4525 2.28276 24.4952 2.41076Z" fill="white"/>
<path d="M7.81181 2.32534C7.81181 3.73334 7.81181 5.09868 7.76914 6.33601C7.72647 6.42134 7.68381 6.33601 7.59847 6.29334C7.51314 6.08001 7.59847 5.82401 7.59847 5.61068C7.55581 4.50134 7.59847 3.34934 7.59847 2.24001C7.68381 2.15468 7.76914 2.28268 7.81181 2.32534Z" fill="white"/>
<path d="M21.9781 4.07469C21.9354 4.16002 21.8074 4.16002 21.7221 4.11735L21.6367 4.07469C21.6794 3.90402 21.6367 3.64802 21.8074 3.52002C21.9354 3.64802 21.8927 3.90402 21.9781 4.07469Z" fill="white"/>
<path d="M7.64219 6.54939C7.59953 6.63473 7.42886 6.59206 7.34353 6.63473H6.78886C6.36219 6.63473 5.89286 6.59206 5.50886 6.67739C5.42353 6.67739 5.38086 6.59206 5.38086 6.50673C5.42353 6.33606 5.63686 6.42139 5.76486 6.33606C6.27686 6.33606 6.91686 6.33606 7.42886 6.33606C7.47153 6.37873 7.55686 6.46406 7.64219 6.54939Z" fill="white"/>
<path d="M4.74031 6.464C4.74031 6.54933 4.65498 6.63466 4.56965 6.67733C4.01498 6.50666 3.41765 6.63466 2.82031 6.54933C2.86298 6.464 2.94831 6.37866 3.07631 6.37866C3.63098 6.37866 4.22831 6.37866 4.74031 6.464Z" fill="white"/>
<path d="M21.5943 6.54936C21.6369 6.59202 21.6369 6.67736 21.5943 6.67736C21.3809 6.93336 21.1249 6.63469 20.8689 6.67736C20.4423 6.63469 19.9303 6.67736 19.4609 6.63469C19.5889 6.25069 20.1009 6.46402 20.3996 6.42136C20.8263 6.46402 21.2529 6.33602 21.5943 6.54936Z" fill="white"/>
<path d="M24.1532 6.464C24.2386 6.50666 24.3239 6.592 24.3239 6.67733C23.5986 6.76266 22.9159 6.592 22.2759 6.76266C22.1906 6.76266 22.1479 6.63466 22.1906 6.54933C22.3186 6.37866 22.5319 6.42133 22.7452 6.37866L24.1532 6.464Z" fill="white"/>
<path d="M5.29492 6.80543C5.33759 6.93343 5.29492 7.1041 5.20959 7.18943C5.12426 7.27477 4.99626 7.27477 4.91092 7.2321C4.82559 7.2321 4.78292 7.1041 4.78292 7.01877C4.74026 6.8481 4.95359 6.76277 5.03892 6.63477C5.16692 6.63477 5.25226 6.7201 5.29492 6.80543Z" fill="white"/>
<path d="M22.1048 6.89076C22.1048 7.06143 22.1048 7.27476 21.9341 7.27476C21.8061 7.27476 21.6781 7.23209 21.6354 7.10409C21.5928 6.93343 21.7208 6.76276 21.8061 6.72009C21.9768 6.72009 22.0621 6.80543 22.1048 6.89076Z" fill="white"/>
<path d="M15.8339 2.06941C15.8339 3.39207 15.8339 4.80007 15.8339 6.12274L15.7486 6.16541C15.0233 6.25074 14.2979 6.03741 13.6153 6.29341C13.4873 6.20807 13.6153 6.03741 13.5726 5.90941C13.5726 4.75741 13.5726 3.56274 13.5726 2.32541C13.5726 2.19741 13.6579 2.11207 13.7433 2.06941C13.9139 1.94141 14.1699 1.98407 14.4259 1.94141L15.7913 1.98407L15.8339 2.06941Z" fill="white"/>
<path d="M16.6445 2.02668C16.6445 2.32535 16.6445 2.62402 16.6871 2.92268C16.9005 3.09335 17.4978 2.83735 17.3698 3.30668C17.1991 3.43468 16.9431 3.34935 16.7298 3.39202L16.6445 3.43468C16.5591 4.11735 16.6871 4.84268 16.6445 5.44001C16.6445 5.52535 16.6871 5.61068 16.8151 5.65335C16.9858 5.65335 17.2845 5.52535 17.3698 5.78135C17.3271 6.20802 16.8151 5.82401 16.6445 6.12268C16.6018 6.42135 16.7298 6.72002 16.6018 7.01868L16.5165 7.06135C15.6205 7.06135 14.7671 7.06135 13.9565 7.01868C13.9138 7.01868 13.9565 6.93335 13.9565 6.93335L14.1271 6.84802C14.8098 6.76268 15.5778 6.84801 16.3031 6.76268C16.3885 6.76268 16.4738 6.67735 16.4738 6.54935C16.4738 5.22668 16.4738 3.90401 16.4738 2.41068C16.4311 2.19735 16.2178 2.06935 16.2178 1.89868C16.3458 1.94135 16.5591 1.89868 16.6445 2.02668Z" fill="white"/>
<path d="M10.9263 1.98401C10.8837 2.15468 10.7557 2.19735 10.6703 2.32535C10.585 2.58135 10.6703 2.88001 10.6277 3.17868C10.6277 4.37335 10.6277 5.48268 10.6277 6.63468C10.6277 6.72001 10.713 6.80535 10.7983 6.84801L12.633 6.89068C12.7183 6.89068 12.8463 6.93335 12.9317 7.01868C12.889 7.10401 12.761 7.10401 12.6757 7.10401C11.993 7.10401 11.2677 7.14668 10.585 7.06135L10.4997 7.01868C10.4997 6.72001 10.4997 6.37868 10.3717 6.12268C10.1583 6.03735 9.90233 6.12268 9.689 6.03735C9.60367 5.99468 9.60367 5.86668 9.689 5.78135C9.90233 5.65335 10.329 5.86668 10.457 5.52535C10.457 4.84268 10.4997 4.20268 10.457 3.52001C10.2863 3.26401 9.85967 3.52001 9.689 3.26401C9.77433 2.88001 10.2863 3.22135 10.457 2.88001L10.4997 2.06935C10.6703 1.94135 10.7983 1.94135 10.9263 1.98401Z" fill="white"/>
<path d="M11.1819 2.19739C11.2246 3.39206 11.0966 4.45873 11.1819 5.65339C11.0966 5.90939 11.3099 6.33606 10.9259 6.37873C10.8406 5.18406 10.9259 3.90406 10.8833 2.62406C10.8406 2.41073 10.9686 2.24006 11.1393 2.11206L11.1819 2.19739Z" fill="white"/>
<path d="M16.3031 2.41071C16.3031 3.73338 16.3458 5.14138 16.2604 6.37871C16.1751 6.37871 16.0898 6.29338 16.0898 6.25071C16.0898 5.73871 16.0044 5.18404 16.0471 4.62938C16.0898 3.90404 16.0044 3.00804 16.0898 2.24004C16.1751 2.19738 16.3031 2.32538 16.3031 2.41071Z" fill="white"/>
<path d="M13.1457 6.46406C13.231 6.46406 13.3163 6.54939 13.231 6.63473L13.103 6.76273C12.5057 6.54939 11.7377 6.67739 11.0977 6.59206C11.1403 6.50673 11.183 6.42139 11.2683 6.33606C11.9083 6.42139 12.5483 6.33606 13.1457 6.46406Z" fill="white"/>
<path d="M15.8763 6.3787C15.9616 6.42137 16.0469 6.5067 16.0469 6.59204L15.9616 6.6347C15.2363 6.6347 14.5109 6.54937 13.8283 6.72004C13.7429 6.72004 13.6149 6.72004 13.5723 6.59204C13.6576 6.42137 13.8283 6.3787 13.9989 6.3787C14.6816 6.33604 15.2789 6.3787 15.8763 6.3787Z" fill="white"/>
<path d="M13.6568 6.97602C13.6568 7.10402 13.6568 7.27468 13.4862 7.27468C13.3582 7.27468 13.1875 7.27468 13.1875 7.10402C13.2302 6.97602 13.3155 6.89068 13.4435 6.80535C13.5715 6.76268 13.6142 6.89068 13.6568 6.97602Z" fill="white"/>
<path d="M13.3165 4.80007C13.4018 4.11741 13.3165 3.34941 13.3592 2.66674C13.3592 2.45341 13.3592 2.24007 13.2312 2.06941C12.7192 1.85607 12.0792 1.98407 11.4818 1.94141C11.4392 1.94141 11.3965 1.94141 11.3965 1.98407C11.3965 3.34941 11.3965 4.62941 11.3965 5.95207L11.4392 6.12274C11.8658 6.20807 12.2498 6.16541 12.6765 6.16541C12.8898 6.20807 13.1032 6.25074 13.3165 6.29341C13.3165 5.82407 13.3592 5.48274 13.3165 5.01341V4.80007Z" fill="white"/>
<path d="M13.1457 4.75734C12.9323 4.58667 12.8897 4.33067 12.719 4.11734C12.8043 4.032 12.8897 3.98934 12.975 3.904C13.103 3.776 13.231 3.56267 13.1883 3.392C13.1883 3.22134 13.103 3.05067 12.9323 2.96534C12.591 2.83734 12.1217 2.88 11.7377 2.92267C11.6523 2.96534 11.6523 3.008 11.695 3.09334C11.823 3.09334 11.9083 3.17867 11.9083 3.30667C11.9083 3.776 11.9083 4.24534 11.823 4.71467L11.6523 4.928C11.823 5.09867 12.079 4.97067 12.3777 5.01334C12.463 4.88534 12.2497 4.8 12.207 4.672C12.2497 4.544 12.207 4.33067 12.2923 4.24534C12.5483 4.45867 12.6337 4.84267 12.9323 5.056L13.3163 5.09867V4.88534C13.3163 4.84267 13.1883 4.75734 13.1457 4.75734ZM12.6337 3.904C12.5057 3.904 12.335 3.98934 12.2923 3.81867C12.2923 3.60534 12.207 3.30667 12.2923 3.09334C12.463 2.96534 12.6763 3.008 12.8043 3.17867C12.8897 3.30667 12.8897 3.43467 12.8897 3.60534C12.8043 3.73334 12.7617 3.86134 12.6337 3.904Z" fill="black"/>
<path d="M24.0674 2.45341C24.0674 2.28274 24.0674 2.11207 23.982 1.98407H23.342C22.9154 2.06941 22.4034 1.89874 22.0194 2.15474C21.8487 2.36807 21.934 2.58141 21.8914 2.83741C21.934 2.96541 21.9767 3.13607 22.0194 3.26407L21.934 3.43474L21.7207 3.34941L21.6354 3.17874C21.678 3.09341 21.7207 3.00807 21.7207 2.88007C21.7207 2.58141 21.806 2.15474 21.422 2.02674C20.8674 1.98407 20.3554 1.94141 19.758 1.94141C19.7154 1.94141 19.6727 1.94141 19.6727 1.98407C19.6727 3.30674 19.6727 4.45874 19.6727 5.73874C19.6727 5.90941 19.63 6.08007 19.8007 6.16541C20.3127 6.08007 20.7394 6.16541 21.2087 6.16541C21.3794 6.16541 21.5074 6.33607 21.7207 6.29341C21.7634 5.78141 21.7634 5.14141 21.7634 4.54407C21.7634 4.50141 21.7634 4.37341 21.678 4.37341V4.24541L21.9767 4.28807L22.0194 4.37341C22.0194 4.37341 22.0194 4.37341 21.9767 4.41607L21.934 6.16541C21.934 6.20807 21.934 6.33607 22.062 6.33607C22.574 6.03741 23.2567 6.25074 23.854 6.16541L23.982 6.12274C24.0674 5.82407 24.0247 4.80007 24.0247 4.80007C24.0674 4.03207 24.0674 3.26407 24.0674 2.45341Z" fill="white"/>
<path d="M22.0629 4.37341C22.1482 4.45874 22.1909 4.58674 22.1482 4.71474L22.0202 4.88541L22.1056 4.97074C22.3189 4.97074 22.5749 5.01341 22.7882 4.92808C22.7456 4.84274 22.6176 4.80008 22.5322 4.71474C22.2762 4.07474 22.1056 3.43474 21.9349 2.75208L21.7216 2.88008C21.5936 3.47741 21.3802 3.98941 21.2096 4.58674C21.1669 4.71474 21.0389 4.71474 20.9536 4.80008C20.8256 4.84274 20.7829 4.71474 20.7402 4.62941C20.7402 4.11741 20.7829 3.69074 20.7402 3.13608C20.7402 3.05074 20.8256 2.96541 20.9109 3.05074C21.0389 3.13608 21.0389 3.30674 21.0816 3.39208C21.1669 3.43474 21.2522 3.43474 21.2522 3.34941L21.3376 2.83741C21.2522 2.66674 21.1242 2.83741 20.9962 2.83741C20.7402 2.83741 20.3989 2.88008 20.1429 2.75208C19.9296 2.83741 19.9722 3.09341 19.9722 3.30674C19.9722 3.34941 19.9722 3.39208 19.9722 3.39208C20.1429 3.26408 20.2282 3.00808 20.4416 3.05074V3.56274V4.67208C20.3562 4.75741 20.1856 4.80008 20.2282 4.92808C20.5269 5.01341 20.8682 4.92808 21.1669 4.97074C21.3376 4.97074 21.5082 5.01341 21.6789 4.97074C21.7216 4.92808 21.6789 4.88541 21.6789 4.84274C21.5936 4.80008 21.4656 4.71474 21.5082 4.58674C21.5509 4.50141 21.5936 4.33074 21.7216 4.37341C21.7642 4.37341 21.7642 4.37341 21.8069 4.41608L22.0629 4.45874C22.0202 4.41608 22.0202 4.37341 22.0629 4.37341ZM21.6789 4.16008L21.5936 4.11741C21.6362 3.94674 21.5936 3.69074 21.7642 3.56274C21.9349 3.64808 21.8922 3.90408 21.9776 4.07474C21.9349 4.16008 21.7642 4.16008 21.6789 4.16008Z" fill="black"/>
<path d="M23.6424 2.96532C23.6424 3.09332 23.7277 3.30666 23.6424 3.39199C23.5144 3.30666 23.5144 3.17866 23.3011 3.13599C23.2157 3.13599 23.0877 3.13599 23.0877 3.26399C23.0451 3.64799 23.4291 3.64799 23.6424 3.86132C23.8557 4.07466 23.9411 4.37332 23.8557 4.62932C23.7704 4.84266 23.6851 4.92799 23.4717 4.92799C23.3011 4.97066 23.1731 4.84266 23.0451 4.92799C23.0024 4.92799 22.9597 4.97066 22.9171 4.92799V4.24532C22.9171 4.20266 22.9597 4.20266 23.0024 4.20266C23.0877 4.41599 23.0451 4.67199 23.3437 4.71466C23.4291 4.71466 23.5144 4.67199 23.5571 4.54399C23.5997 3.94666 22.7891 4.07466 22.7891 3.43466C22.7891 3.30666 22.8317 3.17866 22.8744 3.05066C23.0024 2.83732 23.3437 2.96532 23.5571 2.83732C23.5997 2.79466 23.5997 2.92266 23.6424 2.96532Z" fill="black"/>
<path d="M15.0235 2.92269C14.8528 3.00802 14.6822 3.13602 14.7248 3.39202C14.6822 3.81869 14.6822 4.24536 14.7248 4.67202L14.9808 4.92802V4.97069C14.6822 4.97069 14.4262 5.01336 14.1275 4.97069C13.9995 4.84269 14.2982 4.75736 14.3408 4.67202C14.3835 4.20269 14.4262 3.69069 14.3835 3.17869C14.2982 3.00802 14.0422 3.05069 14.0848 2.88002C14.3408 2.83736 14.6822 2.83736 14.9382 2.88002L15.0235 2.92269Z" fill="black"/>
<path d="M6.66103 3.26408C6.49036 3.47741 6.4477 3.09341 6.27703 3.05074C6.1917 3.05074 6.02103 3.00808 5.9357 3.09341C5.89303 3.30674 5.85036 3.52008 5.9357 3.73341C6.02103 3.77608 6.14903 3.77608 6.23436 3.77608C6.3197 3.69074 6.40503 3.52008 6.53303 3.52008C6.61836 3.60541 6.49036 3.73341 6.53303 3.81874C6.49036 3.94674 6.61836 4.11741 6.4477 4.16008C6.36236 4.11741 6.27703 3.90408 6.14903 3.90408H5.89303C5.8077 4.20274 5.85036 4.50141 5.89303 4.80008C6.02103 4.92808 6.1917 4.80008 6.36236 4.80008C6.5757 4.75741 6.53303 4.45874 6.7037 4.45874C6.74636 4.58674 6.78903 4.75741 6.74636 4.88541L6.66103 4.97074H5.4237C5.38103 4.97074 5.25303 4.97074 5.2957 4.88541C5.6797 4.62941 5.46636 4.16008 5.50903 3.81874C5.46636 3.56274 5.6797 3.13608 5.2957 2.96541C5.2957 2.88008 5.38103 2.88008 5.4237 2.88008C5.72236 2.88008 6.14903 3.00808 6.40503 2.75208C6.66103 2.83741 6.66103 3.09341 6.66103 3.26408Z" fill="black"/>
<path d="M4.78351 3.00807C4.44218 3.26407 4.44218 3.77607 4.27151 4.16007C4.14351 4.37341 4.18618 4.71474 3.97285 4.88541C3.88751 4.92807 3.80218 4.84274 3.80218 4.75741C3.67418 4.24541 3.54618 3.69074 3.33285 3.17874C3.33285 3.05074 2.94885 3.00807 3.16218 2.88007C3.41818 2.83741 3.58885 2.92274 3.84485 2.88007C3.88751 3.05074 3.67418 3.13607 3.71685 3.30674C3.88751 3.52007 3.80218 3.86141 4.01551 4.11741L4.10085 4.03207C4.10085 3.64807 4.57018 3.26407 4.18618 2.92274C4.27151 2.75207 4.52751 2.88007 4.69818 2.83741C4.74085 2.88007 4.86885 2.92274 4.78351 3.00807Z" fill="black"/>
<path d="M2.69253 2.19739C2.77786 3.60539 2.69253 4.92805 2.69253 6.25072C2.69253 6.33605 2.6072 6.42139 2.52186 6.42139C2.43653 5.99472 2.43653 5.56805 2.4792 5.14139C2.43653 4.24539 2.4792 3.30672 2.4792 2.41072C2.4792 2.28272 2.6072 2.19739 2.69253 2.19739Z" fill="white"/>
</svg>
