<svg width="120" height="32" viewBox="0 0 120 32" fill="none" xmlns="http://www.w3.org/2000/svg">
<path d="M56.8314 17.6467C53.8147 17.6467 53.5781 15.3596 53.5781 14.6498C53.5781 13.8217 53.795 12.3626 55.7272 11.6529C57.7186 10.9233 58.1327 10.8445 59.4931 10.4107V10.0558C59.4931 9.38545 59.4931 9.22771 59.3551 8.81367C59.0988 8.025 58.3298 7.53209 57.3243 7.53209C55.8258 7.53209 55.1949 8.67565 55.1949 8.69536L55.0766 8.91225L54.5245 8.57707L54.5837 8.39962C54.8597 7.53209 55.9441 6.05334 58.3298 6.05334C59.8874 6.05334 60.893 6.48711 61.5239 7.45322C61.9971 8.20245 62.0365 9.24743 62.0365 10.3318C62.0365 11.298 62.0168 12.3627 61.9971 13.2105C61.9774 13.802 61.9774 14.3146 61.9774 14.6301C61.9774 15.4187 62.0957 16.0299 62.766 16.0299C62.9238 16.0299 63.0421 15.9905 63.1209 15.9116L63.2984 15.7539L63.673 16.168L63.5547 16.3257C62.9435 17.0552 62.3717 17.5678 61.3662 17.5678C60.4789 17.5678 59.8677 17.1538 59.6705 16.444C59.1382 17.0158 58.2312 17.6467 56.8314 17.6467ZM59.5128 11.7909C58.0341 12.2444 57.5214 12.481 57.068 12.7176C56.437 13.033 56.1019 13.7034 56.1019 14.4723C56.1019 15.0835 56.3187 16.0891 57.758 16.0891C58.2312 16.0891 58.9213 15.9905 59.5128 15.5765V11.7909Z" fill="#890816"/>
<path d="M38.4156 17.6066C36.9763 17.6066 35.8722 17.4489 34.7483 17.0743L34.5906 17.0151V16.2264C34.5906 15.142 34.5709 14.728 34.5512 14.3928L34.5117 13.8407H35.1624L35.1821 14.0773C35.2018 14.59 35.3792 15.0632 35.6947 15.4181C36.1679 15.9504 37.2523 16.2659 38.2776 16.2659C40.407 16.2659 41.3928 15.4575 41.3928 13.7422C41.3928 12.2634 40.4858 11.6522 39.224 10.8044L39.0268 10.6664L37.6861 9.77913C35.8327 8.5567 34.8863 7.57088 34.8863 5.61893C34.8863 4.65282 35.2412 1.51788 39.9141 1.51788C41.8266 1.51788 43.3053 1.7742 43.3645 1.7742L43.5616 1.81363V2.0108C43.5616 2.0108 43.5419 2.62201 43.5419 3.27266C43.5419 3.78529 43.5419 4.23877 43.5419 4.71197L43.5616 5.06687H42.9898L42.9701 4.84998C42.9307 4.25849 42.7532 3.82472 42.4378 3.50926C41.9843 3.05578 40.9985 2.85861 39.9535 2.85861C37.4889 2.85861 37.1932 4.12047 37.1932 5.08658C37.1932 6.38788 37.8635 6.84136 39.3423 7.80747L41.0379 8.93132C42.4772 9.89743 43.8179 10.7847 43.8179 13.1704C43.7785 17.1728 40.0324 17.6066 38.4156 17.6066Z" fill="#890816"/>
<path d="M49.4564 17.6853C47.7411 17.6853 46.7749 17.0741 46.3609 15.6939C46.1834 15.1418 46.1834 14.0771 46.1834 13.4265C46.1834 11.652 46.2032 10.2127 46.2229 8.55649V7.78755H44.7441V7.35378L44.8822 7.29463C45.5722 7.0186 45.8286 6.82144 46.1243 6.58484C47.189 5.75674 47.9382 4.35686 47.9579 4.33715L48.2143 3.90338H48.7072V6.40739H52.4928V7.78755H48.7072V13.6237C48.7072 15.3587 49.0424 16.3643 50.6788 16.3643C51.4478 16.3643 52.0393 16.0685 52.0393 16.0685L52.2759 15.9502L52.473 16.4037L52.3745 16.522C52.335 16.5614 51.4872 17.6853 49.4564 17.6853Z" fill="#890816"/>
<path d="M64.5996 17.548V17.0157L64.8165 16.996C64.9939 16.9763 65.4671 16.8974 65.8023 16.5425C66.1375 16.1482 66.1572 15.2018 66.1572 13.309V10.1346C66.1572 8.77416 66.1375 8.18266 65.9403 7.88691C65.7037 7.55173 65.2108 7.53201 64.9348 7.51229C64.8954 7.51229 64.8756 7.51229 64.8362 7.51229L64.6193 7.49258V6.86165L64.8756 6.88137C64.9151 6.88137 64.9742 6.88137 65.0531 6.88137C65.3883 6.88137 66.2164 6.84193 67.0642 6.66448C67.7148 6.5659 68.0894 6.3293 68.2472 6.27015L68.3655 6.21101L68.5824 6.34902V7.23626C69.1541 6.82222 70.278 6.17157 71.8159 6.17157C73.827 6.17157 75.1283 7.11796 75.5029 8.81359C75.6015 9.22764 75.6409 10.2529 75.6409 10.805V14.0582C75.6409 15.8918 75.7198 16.4045 76.0549 16.7397C76.2324 16.8974 76.5873 17.0354 76.9225 17.0551L77.1394 17.0748V17.5875L76.5873 17.548C75.7789 17.5086 75.1085 17.4692 74.379 17.4692C73.5509 17.4692 72.8411 17.4692 71.8553 17.5677L71.599 17.5875V17.0748L71.7962 17.0551C72.2299 16.996 72.5257 16.858 72.7228 16.6805C73.0777 16.3256 73.0975 15.4581 73.1369 14.7286C73.1369 14.6103 73.1369 14.4722 73.1566 14.3539C73.1763 13.9399 73.1763 13.0724 73.1763 12.4217C73.1763 11.5936 73.1763 10.7261 73.0777 9.87828C72.92 8.43897 72.1511 7.76861 70.7117 7.76861C69.7259 7.76861 69.095 8.00521 68.6218 8.24181V14.0976C68.6218 15.9313 68.7007 16.4439 69.0358 16.7791C69.2133 16.9368 69.5682 17.0748 69.9034 17.0946L70.1203 17.1143V17.6269L69.5288 17.5875C68.7598 17.548 68.0894 17.5086 67.3796 17.5086C66.5713 17.5086 65.822 17.5086 64.8165 17.6072L64.5996 17.548Z" fill="#890816"/>
<path d="M78.4805 17.5478V17.0154L78.6973 16.9957C78.8945 16.976 79.3677 16.9168 79.6832 16.5422C80.0381 16.1479 80.0381 15.2212 80.0381 13.3284V7.80776H78.5791V7.17683L78.7171 7.11768C79.348 6.86137 79.7423 6.64448 80.0184 6.4276C80.0184 5.44177 80.0578 4.1602 80.1761 3.47012C80.6099 1.16328 82.1083 0 84.632 0C85.7164 0 86.7417 0.354899 87.3529 0.847813L87.4318 0.926678L87.4712 1.16328L86.3671 2.70117H86.1108L86.0516 2.56316C85.6376 1.61676 85.0264 1.26186 84.1786 1.26186C83.8237 1.26186 83.3505 1.36045 83.0547 1.65619C82.5815 2.12939 82.4829 2.8589 82.4829 4.2785V6.4276H84.9672V7.80776H82.4829V13.9791C82.4829 15.4578 82.5224 16.1676 82.7195 16.4436C83.035 16.9168 83.9814 16.9563 84.2574 16.9563H84.494V17.5478L84.2377 17.528C83.0153 17.4689 82.1083 17.4295 81.438 17.4295C80.6099 17.4295 79.6832 17.4295 78.6776 17.528L78.4805 17.5478Z" fill="#890816"/>
<path d="M91.2756 17.725C87.8843 17.725 85.8535 15.6153 85.8535 12.0663C85.8535 9.30602 87.3323 6.09222 91.5122 6.09222C94.9034 6.09222 96.9342 8.20189 96.9342 11.7509C96.9342 14.5309 95.4555 17.725 91.2756 17.725ZM91.4136 7.39352C90.7629 7.39352 90.2306 7.57096 89.8363 7.90615C88.949 8.65537 88.4955 10.0158 88.4955 11.9678C88.4955 12.717 88.6336 16.4631 91.3742 16.4631C92.0248 16.4631 92.5572 16.2857 92.9515 15.9505C93.8387 15.2013 94.2922 13.8408 94.2922 11.8889C94.2922 11.1397 94.1542 7.39352 91.4136 7.39352Z" fill="#890816"/>
<path d="M98.0195 17.5477V16.9759L98.2364 16.9562C98.4336 16.9365 98.9068 16.8773 99.2222 16.5027C99.5771 16.1084 99.5771 15.2014 99.5771 13.3086V10.1342C99.5771 8.77379 99.5574 8.18229 99.3603 7.88654C99.1237 7.55136 98.6307 7.53164 98.3547 7.51192C98.3153 7.51192 98.2956 7.51192 98.2758 7.51192L98.059 7.49221V6.82184H98.2956C98.335 6.82184 98.4139 6.82184 98.473 6.82184C98.8279 6.82184 99.6363 6.78242 100.484 6.60497C101.016 6.50638 101.49 6.36837 101.667 6.2895L101.805 6.23035L102.002 6.32893V7.29505C102.535 6.80213 103.382 6.25006 104.565 6.25006C105.334 6.25006 105.965 6.46695 106.439 6.86128L106.517 6.94014V7.29505L105.571 9.01038H105.117L105.039 8.9118C104.782 8.49775 104.25 8.02456 103.244 8.02456C102.791 8.02456 102.377 8.14286 102.022 8.37946V13.979C102.022 15.4577 102.081 16.1478 102.259 16.4238C102.574 16.897 103.52 16.9167 103.796 16.9167H104.033V17.5279L103.796 17.5082C102.574 17.4491 101.667 17.4096 100.997 17.4096C100.169 17.4096 99.242 17.4096 98.2364 17.5082L98.0195 17.5477Z" fill="#890816"/>
<path d="M115.507 17.705L115.211 17.6064V16.66C114.659 17.0741 113.575 17.705 112.096 17.705C109.04 17.705 107.068 15.5953 107.068 12.3026C107.068 11.2182 107.285 10.1733 107.68 9.30573C108.606 7.27492 110.538 6.13136 112.983 6.13136C113.871 6.13136 114.679 6.24966 115.152 6.34824V3.98225C115.152 2.60209 115.132 1.85286 114.935 1.55712C114.718 1.24165 114.225 1.20222 113.949 1.1825C113.91 1.1825 113.89 1.1825 113.851 1.1825L113.634 1.16278L113.693 0.66987H113.93C113.989 0.66987 115.27 0.571286 116.315 0.354403C116.749 0.275537 117.183 0.176954 117.42 0.0980873L117.538 0.0586548L117.735 0.176955L117.715 0.295253C117.636 1.20222 117.636 3.17388 117.636 4.6329V13.7025C117.636 15.063 117.656 15.8911 117.853 16.1671C118.09 16.5023 118.563 16.5417 118.839 16.5811C118.879 16.5811 118.898 16.5811 118.938 16.5811H119.155V17.1726H118.918C118.662 17.1726 117.696 17.2318 116.749 17.4092C116.217 17.4881 115.803 17.567 115.606 17.6656L115.507 17.705ZM112.944 7.47209C110.775 7.47209 109.71 8.95083 109.71 12.0069C109.71 13.249 110.065 16.1277 113.299 16.1277H113.397C113.792 16.1277 114.521 16.0685 115.152 15.6742V8.22132C114.975 8.04387 114.304 7.47209 112.944 7.47209Z" fill="#890816"/>
<path d="M34.7285 21.8853H36.5424L38.2183 26.4398L38.8296 28.1946H38.8887L39.4802 26.4398L41.1167 21.8853H42.9306V31.152H41.3927V26.913C41.3927 26.0455 41.511 24.823 41.6096 23.9555H41.5504L40.8012 26.0652L39.2042 30.2845H38.4352L36.8382 26.0652L36.1087 23.9555H36.0495C36.1284 24.8033 36.2664 26.0455 36.2664 26.913V31.152H34.7482L34.7285 21.8853Z" fill="white"/>
<path d="M48.8262 21.8853H54.406V23.2851H50.4627V25.6511H53.7948V27.0313H50.4627V29.7719H54.544V31.152H48.8262V21.8853Z" fill="white"/>
<path d="M60.0059 21.8853H62.4901C65.3293 21.8853 67.0052 23.4231 67.0052 26.4792C67.0052 29.555 65.3293 31.152 62.5887 31.152H60.0256L60.0059 21.8853ZM62.3718 29.8113C64.2449 29.8113 65.3096 28.7466 65.3096 26.4595C65.3096 24.1921 64.2449 23.2063 62.3718 23.2063H61.6423V29.8113C61.662 29.8113 62.3718 29.8113 62.3718 29.8113Z" fill="white"/>
<path d="M72.4062 21.8853H74.0427V31.152H72.4062V21.8853Z" fill="white"/>
<path d="M83.7629 21.7078C84.8867 21.7078 85.8134 22.2598 86.4049 22.8908L85.4782 23.916C85.005 23.4428 84.4924 23.1471 83.7826 23.1471C82.2447 23.1471 81.18 24.4287 81.18 26.4989C81.18 28.6086 82.1658 29.8901 83.7234 29.8901C84.5515 29.8901 85.143 29.555 85.6557 28.9635L86.5823 29.969C85.8331 30.8365 84.8473 31.3097 83.684 31.3097C81.318 31.3097 79.4844 29.6141 79.4844 26.5383C79.4844 23.502 81.3772 21.7078 83.7629 21.7078Z" fill="white"/>
<path d="M91.6699 21.8853H93.3064V31.152H91.6699V21.8853Z" fill="white"/>
<path d="M99.2207 21.8853H100.916L103.815 27.1101L104.761 29.0818H104.82C104.761 28.1354 104.603 26.9524 104.603 25.9272V21.905H106.181V31.1718H104.485L101.587 25.9469L100.64 23.9752H100.581C100.66 24.961 100.798 26.0652 100.798 27.1101V31.1718H99.2207V21.8853Z" fill="white"/>
<path d="M112.057 21.8853H117.636V23.2851H113.693V25.6511H117.025V27.0313H113.693V29.7719H117.774V31.152H112.057V21.8853Z" fill="white"/>
<path d="M26.1524 0.887268H14.3027V30.3635V31.9014C15.19 31.4085 15.9984 30.8959 16.7673 30.3635C31.0421 20.5447 27.2762 3.52929 26.1524 0.887268Z" fill="#890816"/>
<path d="M13.9865 0.887268H2.13684C1.52562 2.28714 0.184894 7.8275 1.22987 14.1762H13.9865V0.887268Z" fill="#890816"/>
<path d="M1.28906 14.4917C2.25517 19.9138 5.01549 25.8879 11.522 30.3635C12.2909 30.8959 13.119 31.4085 13.9865 31.9014V30.3635V14.4917H1.28906Z" fill="#890816"/>
<path d="M13.9871 0.887268V14.1762H1.23047C1.25019 14.2748 1.2699 14.3931 1.28962 14.4917H13.9871V30.3635V31.9014C14.0462 31.9212 14.0857 31.9606 14.1448 32C14.204 31.9803 14.2434 31.9409 14.3026 31.9014V30.3635V0.887268H13.9871Z" fill="white"/>
<path d="M7.57795 3.35179V3.7264C7.83427 3.52923 8.18916 3.3715 8.4652 3.31235C8.30746 4.02215 7.95257 4.19959 7.57795 4.25874L7.55823 4.85024C7.8737 4.59393 8.32718 4.25875 8.7018 4.1996C8.50463 5.10656 8.07087 5.44174 7.57795 5.50089V6.09239C7.97228 5.83607 8.56378 5.4023 9.01726 5.34315C8.76095 6.25012 8.18916 6.62474 7.57795 6.68389V7.23595C7.97228 6.97963 8.56378 6.60502 9.01726 6.52615C8.78066 7.4134 8.16945 7.94574 7.57795 8.02461V8.47809C7.97228 8.22178 8.56378 7.84716 9.01726 7.7683C8.78066 8.69498 8.18916 9.20761 7.57795 9.24704V9.62165C8.05115 9.34562 8.80038 8.87242 9.33273 8.79356C9.03698 9.7991 8.30746 10.3314 7.57795 10.3906V10.8244C7.83427 10.6272 8.3469 10.4103 8.64265 10.3512C8.48491 11.0215 7.95257 11.2581 7.57795 11.3567V12.1651C7.65682 12.1651 7.7554 12.1454 7.83427 12.1454C7.81455 11.8693 7.97228 11.5736 8.32718 11.3567C8.3469 11.5736 8.2286 11.8891 8.14973 12.0862C8.3469 12.0468 8.54406 11.9876 8.74123 11.9088C8.64265 11.4947 8.78066 10.9427 9.23414 10.4695C9.31301 10.7849 9.23414 11.2976 9.19471 11.6327C9.39188 11.5144 9.60876 11.3764 9.80592 11.199C9.58904 10.8046 9.62847 10.2131 10.0622 9.60194C10.2003 9.89768 10.2003 10.4695 10.2003 10.8046C10.3777 10.6075 10.5749 10.4103 10.7326 10.1737C10.4171 9.7991 10.4171 9.4442 10.7918 8.71469C10.9101 9.01044 11.0284 9.4442 11.0481 9.7991C11.2058 9.60194 11.3241 9.42449 11.4621 9.16818C11.3833 8.97101 11.4227 8.83299 11.5213 8.71469C11.6593 8.53724 11.8564 8.39923 12.0339 8.51752C12.2902 8.63582 12.1522 8.91186 12.0733 9.10902C12.0142 9.24704 11.8959 9.34562 11.7184 9.34562C11.5804 9.58222 11.403 9.83854 11.2452 10.0357C11.6198 10.154 11.8762 10.2329 12.1325 10.4892C11.5804 10.7061 11.265 10.6666 10.9889 10.43C10.8115 10.6666 10.5552 10.9229 10.3777 11.1004C10.7326 11.2187 10.9692 11.3173 11.265 11.613C10.6735 11.8496 10.2397 11.7905 9.96366 11.4947C9.76649 11.6722 9.54961 11.8496 9.35244 11.9876C9.70734 12.1651 9.96366 12.3623 10.1608 12.6383C9.49046 12.796 9.03698 12.5989 8.83981 12.2242C8.64265 12.3031 8.44548 12.382 8.24831 12.4214C8.44548 12.5791 8.56378 12.7172 8.66236 12.934C8.20888 12.9143 7.93285 12.8157 7.8737 12.52C7.77512 12.52 7.67653 12.5989 7.59767 12.5989V13.5058L7.02589 13.2495V12.5791C6.96674 12.5791 6.82872 12.52 6.76957 12.52C6.69071 12.796 6.49354 12.8946 6.04006 12.8946C6.13864 12.6777 6.19779 12.52 6.41467 12.4017C6.21751 12.3425 6.02034 12.244 5.82318 12.1651C5.64573 12.5791 5.2514 12.7566 4.5416 12.5989C4.75848 12.3031 5.0148 12.0468 5.3697 11.9285C5.19225 11.8102 5.0148 11.6919 4.83735 11.5342C4.58103 11.8299 4.12755 11.9285 3.53605 11.6722C3.79237 11.4159 4.02897 11.2187 4.40358 11.1398C4.20642 10.9427 4.04868 10.7258 3.85152 10.4892C3.57549 10.7258 3.18116 10.8046 2.60938 10.568C2.86569 10.3117 3.14172 10.0554 3.49662 10.0554C3.37832 9.89769 3.29945 9.72024 3.18116 9.54279C3.06286 9.54279 2.96427 9.54279 2.84597 9.38505C2.70796 9.22732 2.58966 8.85271 2.80654 8.73441C2.94456 8.61611 3.26002 8.79356 3.3586 8.97101C3.45719 9.14846 3.41775 9.24704 3.37832 9.36534C3.49662 9.54279 3.61492 9.72024 3.73322 9.85826C3.65435 9.36534 3.79237 8.95129 3.93038 8.65554C4.38387 9.26676 4.28528 9.81882 4.04868 10.1934C4.22613 10.43 4.38387 10.5878 4.58103 10.7849C4.52188 10.43 4.56132 9.89768 4.69933 9.60194C5.11338 10.1737 5.17253 10.7652 4.97536 11.1595C5.15281 11.2976 5.31055 11.4553 5.48799 11.5539C5.38941 11.2187 5.34998 10.6863 5.42884 10.3709C5.90204 10.8441 6.04006 11.3961 5.94148 11.8102C6.13864 11.9088 6.33581 11.9876 6.53297 12.0271C6.43439 11.8299 6.33581 11.4947 6.35552 11.2778C6.71042 11.4947 6.78929 11.7708 6.78929 12.0468C6.84844 12.0468 6.98645 12.1257 7.0456 12.1257L7.02589 11.337C6.67099 11.2384 6.15836 11.0412 5.98091 10.3709C6.31609 10.4497 6.73014 10.5286 7.02589 10.8046V10.3906C6.31609 10.3314 5.60629 9.83854 5.2514 8.83299C5.86261 8.93157 6.45411 9.22732 7.02589 9.60194V9.22732C6.41467 9.18789 5.82318 8.61611 5.56686 7.80773C6.07949 7.90631 6.55269 8.1232 7.02589 8.47809V8.00489C6.45411 7.94574 5.86261 7.45283 5.56686 6.54587C6.07949 6.64445 6.55269 6.86134 7.02589 7.19652V6.68389C6.43439 6.64445 5.86261 6.30927 5.56686 5.38259C6.07949 5.48117 6.55269 5.73749 7.02589 6.07267V5.50089C6.55269 5.44174 6.11892 5.16571 5.88233 4.23903C6.29637 4.33761 6.65127 4.51506 7.02589 4.85024V4.25874C6.67099 4.19959 6.33581 4.04187 6.15836 3.35179C6.41467 3.41094 6.71042 3.43065 7.0456 3.7264V3.3715C6.76957 2.95745 6.82872 2.78001 6.86815 2.46454C6.90759 2.16879 7.00617 1.95191 7.32164 1.93219C7.6371 1.95191 7.7554 2.16879 7.77512 2.46454C7.79483 2.76029 7.85398 2.93774 7.57795 3.35179Z" fill="white"/>
<path d="M20.8881 10.6864C21.0852 8.43875 21.4204 7.80782 21.9922 7.33463L22.0316 7.2952L21.8147 5.91504L21.6964 5.93475C21.4007 5.9939 21.1049 6.26993 20.9275 6.52625V5.22496L19.4093 4.31799V5.10666C19.2516 4.94892 19.0938 4.81091 19.0347 4.77147C18.8573 4.65317 18.6995 4.59402 18.5615 4.59402C18.4629 4.59402 18.3841 4.61374 18.3249 4.63346C18.2066 4.67289 18.1277 4.69261 17.9503 4.61374C17.1813 4.45601 16.5898 4.63346 16.2547 5.08694C15.9392 5.5207 15.8998 6.19107 16.1166 6.84171C16.3138 7.37406 16.649 7.90641 16.925 8.26131C17.0828 8.47819 18.4235 9.87806 18.7192 10.1935C18.9361 10.4104 19.1924 10.647 19.429 10.8639V11.4554L19.0347 11.1991L18.6601 12.0863L18.739 12.1455C19.0741 12.3624 19.4093 12.8947 19.6459 15.7733C18.8178 16.0691 17.7137 17.0746 17.6743 18.0999C17.6545 18.5731 17.8911 19.2237 19.0544 19.6969C19.3107 19.7955 19.5868 19.8941 19.8431 20.0124C19.8628 20.525 19.8628 21.0968 19.8825 21.6883C19.6656 21.7672 19.1924 22.0235 19.1136 22.3981C19.0544 22.7136 19.2319 23.0093 19.6656 23.2853C19.7445 23.3445 19.8234 23.3642 19.9022 23.3839C19.9022 23.5416 19.9022 23.6994 19.9022 23.8374C19.6459 23.9557 19.5473 24.0148 19.3896 24.1923C19.3107 24.2909 19.2319 24.3697 19.291 24.4683C19.291 24.488 19.3304 24.5472 19.429 24.5472C19.4882 24.5472 19.5868 24.5275 19.7445 24.4486C19.8431 24.4092 19.9022 24.3895 19.9417 24.3895C20.0205 24.5669 20.1585 24.6655 20.336 24.6655C20.5134 24.6655 20.6712 24.5472 20.7106 24.3303C20.7106 24.2712 20.7106 24.212 20.7106 24.1529C20.9275 24.0543 21.0458 23.8571 21.0655 23.6402C21.0852 23.3839 20.9472 23.1276 20.7106 22.9502C20.7106 22.7333 20.7106 22.5164 20.7106 22.2995C21.4796 22.1418 22.3077 21.6489 22.3865 20.9785C22.426 20.5842 22.2091 19.9927 20.9275 19.4603C20.8486 19.4209 20.7698 19.4012 20.6909 19.3617C20.6909 18.3168 20.6909 17.3506 20.6909 16.4831C22.0711 15.793 22.9977 15.1424 23.1357 14.2946C23.254 13.3482 22.5245 12.2835 20.8881 10.6864ZM18.9558 8.87252C16.8659 6.97973 16.787 6.13192 16.925 5.77702C17.0433 5.46155 17.4179 5.38269 17.6151 5.38269C17.6743 5.38269 17.7137 5.38269 17.7334 5.4024C17.7926 5.42212 17.8123 5.42212 17.832 5.52071C17.8714 5.65872 17.9109 5.85589 18.3052 5.9939C18.7981 6.15163 19.1727 6.25021 19.429 6.25021V9.30628C19.2713 9.16827 19.1333 9.03026 18.9558 8.87252ZM21.4401 20.9785C21.4401 21.0771 21.3218 21.2348 20.6909 21.432C20.6909 21.0574 20.6909 20.7025 20.6909 20.3476C21.1444 20.5644 21.4598 20.801 21.4401 20.9785ZM20.7303 5.34325V6.25021L20.1783 6.1122L19.9219 5.97418C19.9614 5.79673 19.8234 5.56014 19.6459 5.32354V4.69261L20.7303 5.34325ZM18.7192 18.0802C18.6798 17.8041 18.9953 17.4492 19.7051 16.9169C19.7445 17.5084 19.7642 18.1787 19.8036 18.928C19.1727 18.6519 18.7587 18.3759 18.7192 18.0802ZM20.06 20.0518C20.198 20.111 20.336 20.1701 20.474 20.2293C20.474 20.6433 20.474 21.0574 20.474 21.4911V22.2798C20.474 22.4375 20.474 22.5953 20.474 22.753C20.3557 22.7136 20.1585 22.5755 20.0994 22.4178C20.0994 21.57 20.0797 20.7813 20.06 20.0518ZM20.336 24.4289C20.2768 24.4289 20.1783 24.3895 20.1388 24.2909V24.2514C20.1388 23.9557 20.1388 23.6797 20.1388 23.4036C20.3754 23.4628 20.4937 23.5022 20.4937 23.8177V24.212H20.5134C20.5134 24.2317 20.5134 24.2712 20.5134 24.2909C20.474 24.4092 20.3754 24.4289 20.336 24.4289ZM20.474 19.2237C20.3163 19.1646 20.1783 19.1054 20.0402 19.0266C19.8234 12.9144 19.3502 12.2441 18.9361 11.968L19.1333 11.5145L19.6459 11.8694V11.0611C19.7445 11.1399 19.8431 11.2385 19.9219 11.3174C20.1388 11.5145 20.3754 11.7117 20.5726 11.9089C20.4937 13.5848 20.474 15.9311 20.474 19.2237ZM20.6712 10.4893C20.3557 10.1738 20.0008 9.85835 19.6262 9.50345V6.2305C19.7051 6.21078 19.7445 6.19107 19.7839 6.15163L20.0402 6.26993L20.3754 6.78256L20.474 6.74313L20.4543 6.40795L20.7106 6.3488V6.88115L20.9275 6.92058C21.0458 6.68398 21.3415 6.26993 21.6373 6.15163L21.795 7.1769C21.2232 7.70924 20.8683 8.34017 20.6712 10.4893ZM21.9922 14.0974C21.9133 14.5312 21.4993 14.9255 20.7106 15.2804C20.7303 14.0185 20.75 12.9736 20.7895 12.106C21.5387 12.8158 22.0908 13.4862 21.9922 14.0974Z" fill="white"/>
<path d="M18.3244 5.67837C18.3835 5.69809 18.4427 5.69809 18.4624 5.65866C18.4821 5.61922 18.4624 5.56007 18.4032 5.54036C18.3441 5.52064 18.2849 5.52064 18.2652 5.56007C18.2455 5.59951 18.2652 5.63894 18.3244 5.67837Z" fill="#A20D38"/>
<path d="M18.4022 5.75717C18.3628 5.75717 18.3431 5.75717 18.3037 5.73746C18.2642 5.71774 18.2248 5.67831 18.2051 5.63887C18.2051 5.59944 18.2051 5.57972 18.2051 5.56001C18.2445 5.50086 18.3431 5.48114 18.422 5.52058C18.5008 5.56001 18.5403 5.63888 18.5008 5.71774C18.4811 5.71774 18.4417 5.75717 18.4022 5.75717Z" fill="#A20D38"/>
<path d="M18.6194 5.04745C18.6589 5.08688 18.718 5.1066 18.7575 5.06716C18.7772 5.02773 18.7772 4.96858 18.718 4.92915C18.6786 4.88972 18.6194 4.87 18.58 4.90943C18.5603 4.94887 18.58 5.00801 18.6194 5.04745Z" fill="#A20D38"/>
<path d="M18.6989 5.14592C18.6595 5.14592 18.6004 5.1262 18.5806 5.08677C18.5412 5.04734 18.5215 5.0079 18.5215 4.96847C18.5215 4.92904 18.5412 4.90932 18.5609 4.8896C18.6004 4.85017 18.6989 4.85017 18.7778 4.90932C18.8172 4.94875 18.8369 4.98819 18.8369 5.02762C18.8369 5.06706 18.8369 5.08677 18.7975 5.10649C18.7778 5.1262 18.7384 5.14592 18.6989 5.14592Z" fill="#A20D38"/>
<path d="M10.8324 19.6378V16.7986H5.80469V21.8263H7.3623V24.6655H12.39V19.6378H10.8324ZM9.33395 17.4492H10.1621V19.5589H9.33395V17.4492ZM10.1818 21.846V22.477H9.55084V21.846H10.1818ZM6.55392 17.4492H8.64387V18.2773H6.55392V17.4492ZM7.3623 21.1954H6.5342V19.0857H7.3623V21.1954ZM7.99323 19.0068H8.62416V19.6378H7.99323V19.0068ZM8.05238 20.3673H10.1621V21.1954H8.05238V20.3673ZM8.90019 23.936H8.07209V21.8263H8.90019V23.936ZM11.6211 23.9163H9.5114V23.0882H11.6014V23.9163H11.6211ZM11.6408 22.4572H10.8127V20.3673H11.6408V22.4572Z" fill="white"/>
</svg>
