<svg width="15" height="34" viewBox="0 0 15 34" fill="none" xmlns="http://www.w3.org/2000/svg">
<path d="M12 20.8182H7.57353C6.69806 20.8182 5.84224 21.1168 5.11431 21.6762C4.38638 22.2355 3.81903 23.0306 3.484 23.9609C3.14897 24.8911 3.06132 25.9147 3.23211 26.9023C3.40291 27.8898 3.82449 28.7969 4.44354 29.5089C5.0626 30.2209 5.85132 30.7057 6.70997 30.9022C7.56862 31.0986 8.45864 30.9978 9.26747 30.6125C10.0763 30.2272 10.7676 29.5746 11.254 28.7374C11.7404 27.9003 12 26.916 12 25.9091V13.1818C12 10.4814 11.0673 7.89165 9.40703 5.98218C7.74678 4.07272 5.495 3 3.14706 3" stroke="#FAFAFA" stroke-width="5" stroke-linecap="round" stroke-linejoin="round"/>
</svg>
