<svg width="173" height="32" viewBox="0 0 173 32" fill="none" xmlns="http://www.w3.org/2000/svg">
<path d="M61.0825 25.8142C61.1176 25.1748 61.0588 24.5339 60.9078 23.9109C60.8494 23.8459 60.7766 23.7947 60.695 23.7613C60.6134 23.7278 60.5252 23.7128 60.4369 23.7176H60.2014C60.1741 23.6865 60.1591 23.647 60.1591 23.606C60.1591 23.5651 60.1741 23.5255 60.2014 23.4945H62.2599C62.2888 23.5248 62.3048 23.5646 62.3048 23.606C62.3048 23.6474 62.2888 23.6873 62.2599 23.7176H62.032C61.9408 23.7133 61.8498 23.7314 61.7675 23.7704C61.6853 23.8094 61.6143 23.8679 61.5611 23.9406C61.4452 24.5608 61.4018 25.1919 61.4319 25.8216V26.8625C61.5043 27.6607 61.2686 28.4565 60.7711 29.093C60.5322 29.3175 60.2499 29.4931 59.9408 29.6093C59.6316 29.7254 59.3018 29.78 58.9708 29.7696C58.3409 29.8093 57.7168 29.6303 57.2085 29.264C56.9226 28.9817 56.7058 28.6398 56.5742 28.2638C56.4426 27.8878 56.3998 27.4875 56.4489 27.093V24.8774C56.4489 23.9183 56.4489 23.7622 55.8867 23.7176H55.6513C55.624 23.6865 55.609 23.647 55.609 23.606C55.609 23.5651 55.624 23.5255 55.6513 23.4945H57.9757C58.003 23.5255 58.018 23.5651 58.018 23.606C58.018 23.647 58.003 23.6865 57.9757 23.7176H57.7478C57.2844 23.7622 57.2844 23.9183 57.2844 24.8774V26.87C57.2844 28.3569 57.7554 29.3309 59.1987 29.3309C60.6419 29.3309 61.0825 28.2826 61.0825 26.87V25.8142ZM73.3731 28.0149V29.6283C73.3599 29.6621 73.3355 29.6907 73.3039 29.7096C73.2723 29.7284 73.2352 29.7364 73.1984 29.7324C73.0845 29.5763 72.811 29.2566 71.9906 28.3421L69.8333 25.9034C69.575 25.6209 68.937 24.8625 68.7395 24.6618C68.6987 24.8574 68.6834 25.0572 68.6939 25.2566V27.264C68.6648 27.9057 68.7236 28.5483 68.8686 29.1748C68.9313 29.2351 69.0064 29.2815 69.0889 29.311C69.1715 29.3405 69.2595 29.3524 69.3471 29.3458H69.6358C69.6669 29.3764 69.6843 29.4178 69.6843 29.461C69.6843 29.5042 69.6669 29.5456 69.6358 29.5763H67.5545C67.5251 29.5448 67.5088 29.5037 67.5088 29.461C67.5088 29.4184 67.5251 29.3773 67.5545 29.3458H67.8051C67.8849 29.3496 67.9644 29.3347 68.037 29.3024C68.1097 29.27 68.1734 29.2212 68.2229 29.1599C68.3327 28.534 68.3734 27.8984 68.3445 27.264V24.6098C68.3597 24.4915 68.3493 24.3715 68.314 24.2575C68.2786 24.1435 68.2191 24.038 68.1394 23.948C67.9727 23.8161 67.7683 23.7382 67.5545 23.725H67.3949C67.3639 23.6944 67.3464 23.6529 67.3464 23.6098C67.3464 23.5666 67.3639 23.5252 67.3949 23.4945H68.4584C68.6025 23.5048 68.7472 23.5048 68.8914 23.4945C69.3567 24.2226 69.8963 24.9027 70.5018 25.5242L71.4133 26.528C72.0666 27.2714 72.5223 27.7547 72.9325 28.1934C72.9736 28.0687 72.9865 27.9368 72.9705 27.8068V25.8142C73.0033 25.1741 72.9393 24.5327 72.7806 23.9109C72.6169 23.7784 72.4077 23.7119 72.1957 23.725H72.0362C72.0198 23.7104 72.0068 23.6926 71.9978 23.6727C71.9889 23.6529 71.9843 23.6314 71.9843 23.6098C71.9843 23.5881 71.9889 23.5666 71.9978 23.5468C72.0068 23.5269 72.0198 23.5091 72.0362 23.4945H74.1099C74.141 23.5252 74.1585 23.5666 74.1585 23.6098C74.1585 23.6529 74.141 23.6944 74.1099 23.725H73.9808C73.7882 23.7266 73.6025 23.7951 73.4567 23.9183C73.3259 24.5416 73.2774 25.1788 73.3123 25.8142V28.0447L73.3731 28.0149ZM80.3844 24.8997C80.3844 23.9257 80.3844 23.7622 79.8071 23.7176H79.5716C79.5437 23.6854 79.5285 23.6445 79.5285 23.6023C79.5285 23.5601 79.5437 23.5193 79.5716 23.4871H81.9264C81.9529 23.5199 81.9673 23.5605 81.9673 23.6023C81.9673 23.6441 81.9529 23.6848 81.9264 23.7176H81.6909C81.1364 23.7622 81.1136 23.9183 81.1136 24.8997V28.1785C81.1136 29.1525 81.1136 29.2863 81.6909 29.3458H81.9264C81.9542 29.378 81.9695 29.4188 81.9695 29.461C81.9695 29.5032 81.9542 29.544 81.9264 29.5763H79.5716C79.5437 29.544 79.5285 29.5032 79.5285 29.461C79.5285 29.4188 79.5437 29.378 79.5716 29.3458H79.8071C80.3616 29.2789 80.3844 29.1525 80.3844 28.1785V24.8997ZM88.0109 24.4759C87.9822 24.2888 87.8929 24.1156 87.7562 23.9818C87.6195 23.8479 87.4425 23.7605 87.2513 23.7324H87.0842C87.0678 23.7178 87.0548 23.7 87.0458 23.6802C87.0369 23.6603 87.0323 23.6389 87.0323 23.6172C87.0323 23.5955 87.0369 23.5741 87.0458 23.5542C87.0548 23.5344 87.0678 23.5166 87.0842 23.502H89.2035C89.2346 23.5326 89.252 23.574 89.252 23.6172C89.252 23.6604 89.2346 23.7018 89.2035 23.7324H89.0592C88.7022 23.777 88.6262 23.8291 88.6186 23.9034C88.7489 24.3435 88.9062 24.7755 89.0896 25.1971C89.5226 26.2677 89.9555 27.3235 90.4265 28.3792C90.7152 27.7696 91.1102 26.8253 91.3304 26.3346C91.6039 25.7101 92.0445 24.6692 92.204 24.2677C92.2548 24.1551 92.2832 24.034 92.2876 23.9109C92.2876 23.844 92.1964 23.7696 91.8622 23.7399H91.6951C91.664 23.7092 91.6465 23.6678 91.6465 23.6246C91.6465 23.5815 91.664 23.54 91.6951 23.5094H93.5865C93.613 23.5422 93.6274 23.5828 93.6274 23.6246C93.6274 23.6665 93.613 23.7071 93.5865 23.7399H93.3054C93.2019 23.7468 93.102 23.7799 93.0155 23.836C92.929 23.892 92.8587 23.969 92.8117 24.0596C92.4221 24.7473 92.0697 25.4546 91.7558 26.1785L91.2469 27.3086C90.8875 28.0984 90.5606 28.9021 90.267 29.7175C90.2346 29.7257 90.2006 29.7257 90.1682 29.7175C90.1205 29.7259 90.0716 29.7259 90.0239 29.7175C89.9049 29.3005 89.7603 28.8908 89.5909 28.4908L88.0109 24.4759ZM99.3368 24.8848C99.3368 23.9257 99.3368 23.7845 98.7595 23.725H98.6076C98.5811 23.6922 98.5667 23.6516 98.5667 23.6098C98.5667 23.5679 98.5811 23.5273 98.6076 23.4945H101.487C101.909 23.5153 102.332 23.5153 102.755 23.4945C102.83 23.9002 102.881 24.3098 102.907 24.7213C102.873 24.7472 102.832 24.7613 102.789 24.7613C102.747 24.7613 102.705 24.7472 102.672 24.7213C102.656 24.5218 102.58 24.3314 102.453 24.1749C102.325 24.0184 102.153 23.9031 101.957 23.844C101.656 23.7962 101.351 23.7787 101.046 23.7919H100.37C100.089 23.7919 100.089 23.7919 100.089 24.1637V26.0075C100.089 26.2677 100.089 26.2677 100.4 26.2677H100.947C101.215 26.2782 101.482 26.2582 101.745 26.2083C101.813 26.1859 101.872 26.1428 101.913 26.0853C101.954 26.0277 101.975 25.9587 101.973 25.8886L102.049 25.5094C102.082 25.4801 102.125 25.4639 102.17 25.4639C102.215 25.4639 102.258 25.4801 102.292 25.5094C102.292 25.7324 102.254 26.0893 102.254 26.4387C102.254 26.7882 102.292 27.1227 102.292 27.3235C102.258 27.3527 102.215 27.3689 102.17 27.3689C102.125 27.3689 102.082 27.3527 102.049 27.3235L101.965 26.9666C101.959 26.8865 101.928 26.8101 101.877 26.7477C101.825 26.6852 101.755 26.6397 101.676 26.6172C101.426 26.5718 101.171 26.5568 100.917 26.5726H100.37C100.089 26.5726 100.058 26.5726 100.058 26.8253V28.1265C100.005 28.4563 100.067 28.7941 100.233 29.0856C100.569 29.3022 100.979 29.3797 101.373 29.3012C101.781 29.3429 102.194 29.2946 102.58 29.1599C102.874 28.9205 103.104 28.6141 103.249 28.2677C103.289 28.2464 103.337 28.2414 103.381 28.254C103.425 28.2665 103.462 28.2955 103.484 28.3346C103.38 28.772 103.238 29.1998 103.059 29.6134H98.4632C98.4354 29.5812 98.4201 29.5404 98.4201 29.4982C98.4201 29.456 98.4354 29.4152 98.4632 29.3829H98.7747C99.314 29.3383 99.3596 29.1971 99.3596 28.2305V24.8848H99.3368ZM109.538 24.8923C109.538 24.015 109.538 23.8588 109.128 23.8142H108.824C108.808 23.7996 108.795 23.7818 108.786 23.7619C108.777 23.7421 108.773 23.7207 108.773 23.699C108.773 23.6773 108.777 23.6558 108.786 23.636C108.795 23.6162 108.808 23.5984 108.824 23.5837C109.349 23.5391 110.002 23.5094 110.921 23.5094C111.46 23.4748 112 23.5692 112.493 23.7845C112.734 23.9057 112.933 24.0923 113.068 24.3217C113.203 24.5512 113.267 24.8138 113.253 25.0781C113.238 25.4209 113.118 25.7513 112.907 26.0259C112.697 26.3005 112.407 26.5066 112.076 26.6172C112.061 26.6548 112.058 26.6956 112.066 26.7351C112.074 26.7745 112.093 26.8109 112.121 26.8402C112.618 27.747 113.256 28.5723 114.013 29.2863C114.196 29.4394 114.425 29.5306 114.666 29.5465C114.677 29.5532 114.686 29.5625 114.692 29.5735C114.699 29.5846 114.702 29.5971 114.702 29.6097C114.702 29.6224 114.699 29.6348 114.692 29.6459C114.686 29.6569 114.677 29.6662 114.666 29.6729C114.532 29.706 114.394 29.721 114.256 29.7175C113.45 29.7175 112.972 29.487 112.311 28.5577C112.068 28.2157 111.681 27.5837 111.384 27.1674C111.315 27.0593 111.214 26.9736 111.096 26.9208C110.977 26.8679 110.845 26.8503 110.716 26.87C110.29 26.87 110.275 26.87 110.275 27.0707V28.2305C110.275 29.1971 110.275 29.3086 110.837 29.3829H111.035C111.063 29.4152 111.078 29.456 111.078 29.4982C111.078 29.5404 111.063 29.5812 111.035 29.6134H108.741C108.713 29.5812 108.698 29.5404 108.698 29.4982C108.698 29.456 108.713 29.4152 108.741 29.3829H108.976C109.523 29.316 109.538 29.1971 109.538 28.2305V24.8923ZM110.298 26.2083C110.277 26.3088 110.277 26.4126 110.298 26.5131C110.509 26.5674 110.728 26.5825 110.944 26.5577C111.286 26.5843 111.627 26.5008 111.916 26.3198C112.084 26.1807 112.214 26.0038 112.296 25.8043C112.378 25.6048 112.409 25.3887 112.387 25.1748C112.397 24.98 112.363 24.7855 112.289 24.6045C112.215 24.4234 112.103 24.26 111.959 24.1253C111.815 23.9907 111.643 23.8879 111.454 23.8239C111.266 23.76 111.066 23.7364 110.868 23.7547C110.283 23.7547 110.26 23.7547 110.26 24.0521V26.2083H110.298ZM120.918 29.7324C120.407 29.745 119.901 29.6271 119.451 29.3904C119.301 28.9768 119.216 28.5429 119.201 28.1041C119.232 28.0759 119.272 28.0602 119.315 28.0602C119.357 28.0602 119.398 28.0759 119.429 28.1041C119.498 28.4796 119.696 28.8207 119.99 29.0709C120.284 29.3211 120.657 29.4653 121.047 29.4796C121.197 29.4943 121.348 29.4778 121.491 29.4312C121.634 29.3847 121.765 29.3091 121.877 29.2095C121.988 29.1098 122.076 28.9883 122.136 28.8529C122.196 28.7176 122.226 28.5714 122.224 28.4238C122.236 28.1609 122.17 27.9002 122.036 27.6724C121.901 27.4446 121.703 27.259 121.464 27.1376L120.568 26.5651C120.275 26.3982 120.03 26.1613 119.856 25.8765C119.682 25.5918 119.585 25.2685 119.573 24.9369C119.581 24.7054 119.639 24.4781 119.743 24.2699C119.847 24.0616 119.994 23.8769 120.175 23.7277C120.356 23.5785 120.567 23.4681 120.794 23.4036C121.022 23.3391 121.26 23.3219 121.495 23.3533C121.79 23.3586 122.083 23.3985 122.368 23.4722C122.474 23.5041 122.584 23.5217 122.695 23.5243C122.804 23.889 122.86 24.2669 122.862 24.6469C122.829 24.6742 122.787 24.6891 122.744 24.6891C122.701 24.6891 122.66 24.6742 122.627 24.6469C122.585 24.3474 122.43 24.0741 122.192 23.8813C121.954 23.6885 121.651 23.5902 121.343 23.606C121.198 23.5869 121.05 23.5997 120.91 23.6435C120.77 23.6873 120.642 23.761 120.535 23.8593C120.428 23.9575 120.345 24.0779 120.292 24.2115C120.238 24.3452 120.216 24.4889 120.226 24.6321C120.253 24.8705 120.34 25.0987 120.479 25.296C120.618 25.4933 120.805 25.6535 121.024 25.7622L121.783 26.2231C122.124 26.3879 122.412 26.639 122.619 26.9503C122.827 27.2615 122.944 27.6215 122.961 27.9926C122.958 28.238 122.901 28.4799 122.796 28.7025C122.69 28.9251 122.538 29.1233 122.348 29.2841C122.159 29.4449 121.937 29.5646 121.697 29.6355C121.457 29.7063 121.204 29.7267 120.955 29.6952M129.326 24.8997C129.326 23.9257 129.326 23.7622 128.749 23.7176H128.514C128.486 23.6854 128.471 23.6445 128.471 23.6023C128.471 23.5601 128.486 23.5193 128.514 23.4871H130.868C130.896 23.5193 130.912 23.5601 130.912 23.6023C130.912 23.6445 130.896 23.6854 130.868 23.7176H130.633C130.078 23.7622 130.063 23.9183 130.063 24.8997V28.1785C130.063 29.1525 130.063 29.2863 130.633 29.3458H130.868C130.896 29.378 130.912 29.4188 130.912 29.461C130.912 29.5032 130.896 29.544 130.868 29.5763H128.514C128.486 29.544 128.471 29.5032 128.471 29.461C128.471 29.4188 128.486 29.378 128.514 29.3458H128.749C129.304 29.2789 129.326 29.1525 129.326 28.1785V24.8997ZM139.771 28.2008C139.771 29.1673 139.771 29.3086 140.333 29.3532H140.637C140.664 29.386 140.678 29.4266 140.678 29.4685C140.678 29.5103 140.664 29.5509 140.637 29.5837H138.1C138.069 29.5531 138.051 29.5116 138.051 29.4685C138.051 29.4253 138.069 29.3839 138.1 29.3532H138.442C138.981 29.3086 139.027 29.1673 139.027 28.2008V24.0819C139.027 23.7993 139.027 23.7845 138.746 23.7845H138.229C137.829 23.7416 137.425 23.8222 137.075 24.015C136.885 24.1935 136.739 24.4122 136.649 24.6544C136.608 24.6761 136.559 24.6812 136.514 24.6688C136.469 24.6563 136.43 24.6272 136.406 24.5874C136.56 24.1382 136.679 23.6785 136.763 23.212C136.822 23.1888 136.887 23.1888 136.945 23.212C137.006 23.5094 137.318 23.4945 137.751 23.4945H141.549C142.058 23.4945 142.141 23.4945 142.308 23.2343C142.334 23.2206 142.363 23.2135 142.392 23.2135C142.421 23.2135 142.45 23.2206 142.475 23.2343C142.367 23.6923 142.318 24.162 142.331 24.6321C142.299 24.6629 142.255 24.6802 142.21 24.6802C142.164 24.6802 142.121 24.6629 142.088 24.6321C142.081 24.3907 141.999 24.1572 141.853 23.9629C141.52 23.779 141.139 23.6986 140.759 23.7324H140.083C139.802 23.7324 139.809 23.7324 139.809 24.0447V28.1488L139.771 28.2008ZM150.505 28.1785C150.505 29.1599 150.558 29.3086 151.067 29.3458H151.424C151.452 29.378 151.467 29.4188 151.467 29.461C151.467 29.5032 151.452 29.544 151.424 29.5763H148.909C148.882 29.544 148.866 29.5032 148.866 29.461C148.866 29.4188 148.882 29.378 148.909 29.3458H149.206C149.753 29.2937 149.768 29.1599 149.768 28.1785V27.7101C149.799 27.3071 149.695 26.9051 149.471 26.5651L148.362 24.4462C148.043 23.8365 147.899 23.7919 147.603 23.7473L147.337 23.7027C147.308 23.6712 147.291 23.6301 147.291 23.5875C147.291 23.5448 147.308 23.5037 147.337 23.4722H149.441C149.457 23.4868 149.471 23.5046 149.479 23.5245C149.488 23.5443 149.493 23.5658 149.493 23.5875C149.493 23.6091 149.488 23.6306 149.479 23.6504C149.471 23.6703 149.457 23.6881 149.441 23.7027H149.32C148.993 23.7473 148.925 23.7919 148.925 23.8663C148.999 24.1218 149.095 24.3706 149.213 24.6098C149.563 25.2938 149.912 26.0149 150.277 26.6543C150.565 26.1636 150.877 25.6283 151.158 25.093C151.394 24.7034 151.597 24.2956 151.766 23.8737C151.714 23.8226 151.653 23.7829 151.585 23.7573C151.516 23.7316 151.443 23.7206 151.371 23.725H151.203C151.187 23.7104 151.174 23.6926 151.165 23.6727C151.156 23.6529 151.152 23.6314 151.152 23.6098C151.152 23.5881 151.156 23.5666 151.165 23.5468C151.174 23.5269 151.187 23.5091 151.203 23.4945H152.981C152.997 23.5091 153.01 23.5269 153.019 23.5468C153.028 23.5666 153.033 23.5881 153.033 23.6098C153.033 23.6314 153.028 23.6529 153.019 23.6727C153.01 23.6926 152.997 23.7104 152.981 23.725L152.715 23.7696C152.229 23.8514 151.955 24.4313 151.469 25.2566L150.877 26.2603C150.544 26.6838 150.386 27.215 150.436 27.7473V28.2231L150.505 28.1785ZM16.2652 32C17.2519 31.4611 18.1987 30.8549 19.0985 30.1859V20.8477L16.2652 19.041V32ZM16.2652 12.5875L19.0985 14.4314V9.69537C18.1566 9.69537 17.2121 9.6805 16.2652 9.65076V12.6247V12.5875ZM24.7577 10.2158C23.8154 10.0979 22.8707 9.99877 21.9243 9.91841V16.2752L24.7577 18.1191V10.2158ZM21.9243 22.7287V27.7993C22.9508 26.7928 23.898 25.7117 24.7577 24.5651L21.9243 22.7287ZM27.5834 10.6322V19.9629C28.9469 17.1842 29.891 14.2265 30.3864 11.1823H30.2877C29.3899 10.9977 28.4883 10.8316 27.5834 10.6842M19.0985 14.4388V20.8849L21.9243 22.7287V16.2752L19.0985 14.4388ZM24.7577 18.1191V24.5651C25.8441 23.1259 26.7901 21.59 27.5834 19.9778L24.7577 18.1191ZM10.0591 21.3012C10.8836 21.0773 11.6247 20.6256 12.1936 20.0001C11.8386 19.8757 11.4758 19.7738 11.1074 19.6953C10.838 20.2768 10.485 20.8176 10.0591 21.3012ZM5.56976 20.0076C6.13844 20.6334 6.87963 21.0852 7.70428 21.3087C7.27878 20.8247 6.92582 20.284 6.65601 19.7027C6.28751 19.7841 5.92468 19.8884 5.56976 20.015M8.4715 13.2939C8.08447 13.7093 7.75734 14.1745 7.49919 14.6767C7.80303 14.7139 8.12207 14.7437 8.4639 14.7585V13.2715L8.4715 13.2939ZM11.3884 18.9444C11.8337 19.0518 12.2704 19.191 12.695 19.3607C13.0374 18.8066 13.2478 18.1839 13.3103 17.5392H11.6543C11.6227 18.0235 11.5335 18.5026 11.3884 18.9667M7.70428 12.9221C6.8798 13.146 6.13872 13.5977 5.56976 14.2232C5.92458 14.3501 6.28742 14.4544 6.65601 14.5355C6.92591 13.9542 7.27887 13.4135 7.70428 12.9295M12.1936 14.2232C11.6239 13.6001 10.8829 13.151 10.0591 12.9295C10.485 13.4132 10.838 13.954 11.1074 14.5355C11.4759 14.4543 11.8388 14.35 12.1936 14.2232ZM11.6543 16.7139H13.3027C13.2419 16.0722 13.0342 15.4521 12.695 14.8998C12.2722 15.0616 11.8381 15.1933 11.396 15.2938C11.5382 15.7583 11.6249 16.2373 11.6543 16.7213M9.28429 20.9444C9.67241 20.5271 9.99963 20.0592 10.2566 19.554C9.95275 19.5169 9.62611 19.4871 9.28429 19.4722V20.9592V20.9444ZM8.4715 17.5169H6.95226C6.96595 17.9469 7.03226 18.3737 7.14976 18.7882C7.57514 18.727 8.00376 18.6897 8.43351 18.6767V17.5169H8.4715ZM9.28429 18.6767C9.71658 18.6893 10.1478 18.7265 10.5756 18.7882C10.7144 18.3738 10.8011 17.9444 10.8339 17.5094H9.31467V18.6693L9.28429 18.6767ZM10.2642 14.6767C10.0058 14.1706 9.67595 13.7026 9.28429 13.2864V14.7734C9.63371 14.7734 9.96034 14.7362 10.2642 14.6916M10.8339 16.7139C10.8011 16.279 10.7143 15.8496 10.5756 15.4351C10.1478 15.4987 9.71669 15.5384 9.28429 15.5541V16.7139H10.8339ZM7.49919 19.554C7.75627 20.0551 8.08072 20.5202 8.4639 20.9369V19.4499C8.11954 19.4499 7.79797 19.4772 7.49919 19.5317M6.39015 15.2864C5.94058 15.189 5.49884 15.0598 5.06841 14.8998C4.72978 15.4551 4.52216 16.0774 4.46072 16.7213H6.10909C6.1453 16.2339 6.23963 15.7524 6.39015 15.2864ZM8.4715 15.5541C8.02904 15.5427 7.58768 15.5055 7.14976 15.4425C7.01099 15.857 6.92426 16.2864 6.89149 16.7213H8.41073V15.5541H8.4715ZM6.10909 17.5169H4.45312C4.51328 18.1691 4.72364 18.7995 5.06841 19.3607C5.49824 19.1911 5.93995 19.052 6.39015 18.9444C6.24489 18.4803 6.15566 18.0012 6.12428 17.5169" fill="white"/>
<path d="M0.81543 11.1823C2.89678 23.725 10.9487 29.8513 14.9367 32V9.65076C10.2238 9.69112 5.52658 10.1892 0.91418 11.1377L0.81543 11.1823ZM8.87496 11.9927C9.91708 11.9913 10.9362 12.2926 11.8032 12.8585C12.6702 13.4244 13.3461 14.2295 13.7452 15.1717C14.1444 16.1139 14.2488 17.1509 14.0453 18.1512C13.8418 19.1516 13.3396 20.0703 12.6021 20.791C11.8647 21.5118 10.9253 22.002 9.90299 22.1998C8.88064 22.3975 7.82133 22.2938 6.85926 21.9017C5.89719 21.5097 5.07565 20.847 4.49871 19.9976C3.92178 19.1482 3.61541 18.1502 3.61841 17.1303C3.61841 15.7638 4.17303 14.4532 5.16024 13.487C6.14746 12.5207 7.48642 11.9779 8.88255 11.9779" fill="white"/>
<path d="M30.2805 1.51723C20.6007 -0.505743 10.5936 -0.505743 0.913762 1.51723C0.741002 1.5535 0.586566 1.64759 0.477036 1.78329C0.367506 1.91899 0.309734 2.08782 0.313665 2.26072V4.8778C0.312891 6.48812 0.411822 8.097 0.609915 9.69561C10.4961 7.66302 20.7058 7.66302 30.592 9.69561C30.7899 8.08952 30.8888 6.47322 30.8882 4.85549V2.26072C30.8918 2.08678 30.833 1.91712 30.7219 1.78127C30.6109 1.64543 30.4547 1.55199 30.2805 1.51723ZM26.9762 7.97815C23.2129 7.34862 19.3996 7.05003 15.582 7.08596C11.7643 7.04987 7.95097 7.34846 4.18771 7.97815C4.15644 7.98479 4.12387 7.98251 4.09389 7.97157C4.0639 7.96063 4.03776 7.9415 4.01856 7.91644C3.99936 7.89139 3.98791 7.86146 3.98558 7.83023C3.98325 7.79899 3.99013 7.76775 4.0054 7.74023L6.42858 2.53581C6.42858 2.4912 8.01618 1.73284 8.01618 1.73284C10.5425 1.32744 13.1317 1.53161 15.5592 2.32763C17.9865 1.53131 20.5758 1.32714 23.1022 1.73284C23.1022 1.73284 24.667 2.47633 24.6898 2.53581L27.1053 7.74023C27.1206 7.76775 27.1275 7.79899 27.1252 7.83023C27.1228 7.86146 27.1114 7.89139 27.0922 7.91644C27.073 7.9415 27.0468 7.96063 27.0168 7.97157C26.9869 7.98251 26.9543 7.98479 26.923 7.97815" fill="white"/>
<path d="M22.5176 2.59509L23.5355 5.23448C21.0969 4.88562 18.6079 5.14126 16.2964 5.97797V6.26793C19.0386 6.16384 22.5025 6.01514 25.3054 6.60993L23.7862 3.17501L22.5176 2.59509ZM7.63677 5.23448L8.66984 2.59509L7.40888 3.16758L5.88965 6.60993C8.66984 6.02258 12.1261 6.17127 14.8683 6.26793V6.02258C12.5632 5.17145 10.0767 4.90047 7.63677 5.23448ZM39.928 6.96681C39.928 4.61738 39.7154 4.3646 38.4088 4.26051L37.8695 4.2159C37.8133 4.13641 37.7871 4.04026 37.7954 3.94395C37.8037 3.84763 37.846 3.75715 37.9151 3.68802C39.1912 3.7475 39.928 3.7475 40.832 3.7475C41.7359 3.7475 42.4272 3.7475 43.2931 3.68059C43.3622 3.74972 43.4045 3.8402 43.4128 3.93651C43.4211 4.03283 43.3949 4.12897 43.3387 4.20846L43.0121 4.25307C41.7359 4.42407 41.6904 4.72147 41.6904 6.95937V14.8106C41.7745 16.1964 41.6074 17.5859 41.1966 18.9147C40.8804 19.7823 40.3049 20.537 39.545 21.0805C38.7851 21.6241 37.8758 21.9316 36.9352 21.963C36.6769 21.963 36.0084 21.963 36.0084 21.5169C36.0061 21.2949 36.0796 21.0785 36.2172 20.9021C36.3548 20.7256 36.5487 20.5992 36.768 20.5429C37.039 20.5445 37.308 20.5872 37.5656 20.6693C37.861 20.7599 38.1678 20.81 38.4772 20.818C38.6612 20.8217 38.8421 20.7712 38.9965 20.6732C39.1509 20.5751 39.2717 20.4338 39.3431 20.2678C39.8369 19.2715 39.9053 16.1043 39.9053 14.9593V6.96681H39.928ZM43.2931 11.9259C43.2753 11.0897 43.4313 10.2587 43.7516 9.48329C44.072 8.70792 44.5501 8.00439 45.1568 7.41542C45.7635 6.82645 46.4862 6.36434 47.281 6.05717C48.0758 5.74999 48.9261 5.60416 49.7803 5.62853C50.6169 5.58312 51.454 5.7097 52.2376 6.00014C53.0213 6.29058 53.7341 6.73842 54.3302 7.31484C54.9262 7.89126 55.3924 8.58347 55.6985 9.3469C56.0047 10.1103 56.1442 10.9281 56.1079 11.7474C56.1274 12.5677 55.9774 13.3834 55.6669 14.1455C55.3563 14.9077 54.8915 15.6005 54.3005 16.1824C53.7095 16.7643 53.0045 17.2233 52.2277 17.5319C51.4509 17.8404 50.6185 17.9921 49.7803 17.9779C45.7315 17.9779 43.2931 15.1377 43.2931 11.9259ZM54.2848 12.2976C54.2848 9.32366 52.9555 6.17871 49.4764 6.17871C47.5774 6.17871 45.1162 7.45007 45.1162 11.3831C45.1162 14.0225 46.4304 17.45 50.0157 17.45C52.2034 17.45 54.2848 15.8441 54.2848 12.3274M60.2554 11.9259C59.3818 11.9259 59.3438 11.9259 59.3438 12.4984V15.0114C59.3438 16.8849 59.435 17.1377 60.4529 17.2418L60.9846 17.2939C61.0377 17.3566 61.0668 17.4355 61.0668 17.5169C61.0668 17.5984 61.0377 17.6773 60.9846 17.74C59.9971 17.74 59.3818 17.6879 58.7058 17.6879C58.0297 17.6879 57.3005 17.6879 56.594 17.74C56.5395 17.6779 56.5095 17.5988 56.5095 17.5169C56.5095 17.4351 56.5395 17.3559 56.594 17.2939L56.9055 17.2418C57.9234 17.0634 57.9613 16.8849 57.9613 15.0114V8.60992C57.9613 6.73632 57.8322 6.43149 56.8827 6.37945H56.4117C56.3586 6.31675 56.3295 6.23786 56.3295 6.1564C56.3295 6.07495 56.3586 5.99606 56.4117 5.93336C57.3081 5.93336 57.9309 5.9854 58.6906 5.9854C59.4502 5.9854 60.0199 5.9854 60.8023 5.93336C60.8554 5.99606 60.8845 6.07495 60.8845 6.1564C60.8845 6.23786 60.8554 6.31675 60.8023 6.37945H60.4529C59.397 6.48354 59.359 6.75119 59.359 8.60992V10.6619C59.359 11.2121 59.359 11.2344 60.2706 11.2344H65.4815C66.3551 11.2344 66.3931 11.2344 66.3931 10.6619V8.60992C66.3931 6.73632 66.3931 6.46867 65.284 6.37945H64.9346C64.8815 6.31675 64.8524 6.23786 64.8524 6.1564C64.8524 6.07495 64.8815 5.99606 64.9346 5.93336C65.7702 5.93336 66.3931 5.9854 67.1375 5.9854C67.8819 5.9854 68.4668 5.9854 69.2872 5.93336C69.3403 5.99606 69.3694 6.07495 69.3694 6.1564C69.3694 6.23786 69.3403 6.31675 69.2872 6.37945H68.9074C67.8515 6.48354 67.8136 6.75119 67.8136 8.60992V15.0337C67.8136 16.9072 67.8136 17.1377 68.9074 17.2641L69.4391 17.3162C69.4923 17.3789 69.5213 17.4578 69.5213 17.5392C69.5213 17.6207 69.4923 17.6996 69.4391 17.7623C68.5656 17.7623 67.9199 17.7102 67.2362 17.7102C66.5526 17.7102 65.831 17.7102 65.0334 17.7623C64.9788 17.7002 64.9488 17.6211 64.9488 17.5392C64.9488 17.4574 64.9788 17.3782 65.0334 17.3162L65.3828 17.2641C66.4007 17.0857 66.4007 16.9072 66.4007 15.0337V12.5132C66.4007 11.9779 66.4007 11.9407 65.4891 11.9407H60.2554V11.9259ZM81.8588 14.6768C81.8588 15.2121 81.8589 17.3385 81.912 17.7994C81.8844 17.8637 81.836 17.9175 81.7743 17.9524C81.7126 17.9873 81.6409 18.0014 81.5702 17.9927C80.8246 17.0697 80.0468 16.172 79.2382 15.3013L75.0071 10.5876C74.5134 10.0374 73.2372 8.57274 72.8878 8.20843C72.8058 8.58949 72.7752 8.97942 72.7966 9.36827V13.2567C72.7966 14.0969 72.7966 16.4165 73.1233 16.9742C73.244 17.0924 73.3891 17.1841 73.5489 17.2431C73.7087 17.3021 73.8796 17.327 74.05 17.3162L74.6121 17.3682C74.6698 17.4288 74.7019 17.5085 74.7019 17.5913C74.7019 17.674 74.6698 17.7537 74.6121 17.8143C73.7917 17.8143 73.1537 17.7623 72.4776 17.7623C71.8015 17.7623 71.2166 17.7623 70.5786 17.8143C70.5225 17.753 70.4915 17.6736 70.4915 17.5913C70.4915 17.509 70.5225 17.4296 70.5786 17.3682L70.9584 17.2641C71.1118 17.2705 71.2645 17.2416 71.4044 17.1796C71.5443 17.1176 71.6673 17.0243 71.7636 16.9072C71.9755 15.6947 72.0544 14.4634 71.999 13.2344V8.0746C72.0289 7.84453 72.0085 7.61086 71.9391 7.3891C71.8697 7.16735 71.7529 6.96257 71.5964 6.78837C71.2745 6.53227 70.8787 6.38145 70.4646 6.35715L70.1987 6.32741C70.1684 6.29833 70.1443 6.26363 70.1279 6.22533C70.1115 6.18703 70.103 6.1459 70.103 6.10436C70.103 6.06282 70.1115 6.02169 70.1279 5.98339C70.1443 5.94509 70.1684 5.91039 70.1987 5.88131C70.9584 5.93336 71.9307 5.93336 72.2573 5.93336C72.5368 5.9359 72.816 5.91851 73.0929 5.88131C73.4575 6.7958 75.6072 9.14523 76.2073 9.80693L77.9772 11.7474C79.2382 13.1229 80.1269 14.1192 81.0157 14.9742C81.0941 14.7343 81.12 14.481 81.0916 14.2307V10.4389C81.0916 9.59876 81.0916 7.27907 80.727 6.72145C80.4083 6.46881 80.0047 6.34156 79.5952 6.36458H79.2838C79.2514 6.33667 79.2255 6.30235 79.2078 6.26389C79.1901 6.22544 79.1809 6.18373 79.1809 6.14153C79.1809 6.09934 79.1901 6.05763 79.2078 6.01917C79.2255 5.98072 79.2514 5.9464 79.2838 5.91849C80.1193 5.91849 80.7422 5.97053 81.4335 5.97053C82.1247 5.97053 82.6868 5.97053 83.3097 5.91849C83.34 5.94756 83.3641 5.98226 83.3806 6.02056C83.397 6.05886 83.4055 6.09999 83.4055 6.14153C83.4055 6.18308 83.397 6.2242 83.3806 6.2625C83.3641 6.3008 83.34 6.33551 83.3097 6.36458H83.0515C82.6758 6.36763 82.313 6.49913 82.026 6.73632C81.7145 7.37572 81.7525 9.59132 81.7525 10.4092V14.6768H81.8588ZM86.6748 17.9927C85.6851 18.0182 84.7058 17.7901 83.8339 17.331C83.5387 16.5282 83.3721 15.6856 83.3401 14.8329C83.3923 14.77 83.4674 14.7293 83.5496 14.7196C83.6319 14.7099 83.7147 14.7319 83.7807 14.7809C84.0541 15.6879 84.7986 17.4426 86.9179 17.4426C87.2089 17.4709 87.5027 17.4387 87.7801 17.348C88.0574 17.2574 88.3121 17.1103 88.5273 16.9165C88.7425 16.7228 88.9134 16.4866 89.0288 16.2236C89.1442 15.9606 89.2014 15.6767 89.1967 15.3905C89.2154 14.8753 89.082 14.3657 88.8126 13.9227C88.5432 13.4797 88.1491 13.122 87.6775 12.8924L85.9456 11.7846C85.3827 11.4732 84.9081 11.0293 84.5645 10.4932C84.221 9.95706 84.0195 9.34555 83.9782 8.714C83.9782 7.01885 85.3303 5.6434 87.7003 5.6434C88.2724 5.65302 88.8412 5.73041 89.3942 5.87388C89.6011 5.93677 89.8158 5.97179 90.0323 5.97797C90.2459 6.68534 90.3559 7.41878 90.359 8.15639C90.3006 8.21484 90.2234 8.25191 90.1405 8.26138C90.0575 8.27085 89.9738 8.25216 89.9032 8.20843C89.8207 7.63451 89.5231 7.11113 89.0682 6.74009C88.6133 6.36906 88.0337 6.17691 87.442 6.20101C85.6569 6.20101 85.2695 7.36086 85.2695 8.18613C85.3129 8.65234 85.4746 9.10056 85.7399 9.49008C86.0052 9.8796 86.3658 10.1981 86.7888 10.4166L88.2472 11.3088C88.906 11.6279 89.465 12.1143 89.8659 12.7173C90.2668 13.3202 90.4948 14.0175 90.5261 14.7363C90.5261 16.6991 89.0068 18.0373 86.6444 18.0373M101.343 10.8776C100.302 10.8776 100.264 10.9222 100.264 11.5541V14.5281C100.264 16.7586 100.371 17.0485 101.578 17.1749L102.209 17.2418C102.267 17.3208 102.294 17.4172 102.285 17.514C102.277 17.6107 102.234 17.7013 102.163 17.7697C100.994 17.7251 100.264 17.7102 99.4212 17.7102C98.578 17.7102 97.7576 17.7548 96.9144 17.7697C96.8441 17.7013 96.8009 17.6107 96.7925 17.514C96.7842 17.4172 96.8112 17.3208 96.8689 17.2418L97.2335 17.1749C98.4413 16.9593 98.4869 16.7511 98.4869 14.5281V6.9222C98.4869 4.69173 98.3349 4.34229 97.2107 4.26051L96.6486 4.2159C96.5924 4.13641 96.5662 4.04026 96.5745 3.94395C96.5828 3.84763 96.6251 3.75715 96.6942 3.68802C97.75 3.68802 98.4869 3.7475 99.4136 3.7475C100.34 3.7475 100.994 3.7475 101.92 3.68802C101.989 3.75715 102.032 3.84763 102.04 3.94395C102.048 4.04026 102.022 4.13641 101.966 4.2159L101.556 4.26051C100.302 4.3869 100.257 4.7066 100.257 6.9222V9.3534C100.257 10.0077 100.302 10.03 101.335 10.03H107.519C108.559 10.03 108.597 10.03 108.597 9.3534V6.9222C108.597 4.69173 108.552 4.3869 107.276 4.26051L106.865 4.2159C106.809 4.13641 106.783 4.04026 106.791 3.94395C106.8 3.84763 106.842 3.75715 106.911 3.68802C107.952 3.7475 108.688 3.7475 109.57 3.7475C110.451 3.7475 111.15 3.7475 112.122 3.68802C112.191 3.75715 112.233 3.84763 112.242 3.94395C112.25 4.04026 112.224 4.13641 112.168 4.2159L111.712 4.26051C110.458 4.3869 110.413 4.7066 110.413 6.9222V14.5355C110.413 16.766 110.458 17.0336 111.712 17.1823L112.228 17.2493C112.286 17.3282 112.313 17.4247 112.305 17.5214C112.296 17.6181 112.253 17.7087 112.183 17.7771C111.15 17.7325 110.413 17.7177 109.57 17.7177C108.726 17.7177 107.906 17.7177 106.957 17.7771C106.886 17.7087 106.843 17.6181 106.835 17.5214C106.826 17.4247 106.853 17.3282 106.911 17.2493L107.321 17.1823C108.643 16.9667 108.643 16.7586 108.643 14.5355V11.5616C108.643 10.9296 108.597 10.885 107.564 10.885H101.343V10.8776Z" fill="white"/>
<path d="M112.091 11.9261C112.073 11.0899 112.229 10.2589 112.55 9.48355C112.87 8.70818 113.348 8.00464 113.955 7.41567C114.562 6.82671 115.284 6.3646 116.079 6.05742C116.874 5.75025 117.724 5.60442 118.578 5.62878C119.415 5.58536 120.252 5.71393 121.035 6.00622C121.818 6.29851 122.529 6.74803 123.124 7.32585C123.719 7.90367 124.183 8.59696 124.487 9.36111C124.792 10.1252 124.929 10.9433 124.891 11.7626C124.91 12.5829 124.76 13.3985 124.45 14.1607C124.139 14.9228 123.675 15.6156 123.084 16.1975C122.493 16.7795 121.788 17.2385 121.011 17.547C120.234 17.8556 119.401 18.0073 118.563 17.993C114.515 17.993 112.076 15.1529 112.076 11.941M123.068 12.3127C123.068 9.33879 121.738 6.19383 118.252 6.19383C116.353 6.19383 113.892 7.4652 113.892 11.3983C113.892 14.0376 115.206 17.4651 118.799 17.4651C120.986 17.4651 123.068 15.8592 123.068 12.3425M128.21 15.0339C128.21 16.9075 128.21 17.138 129.411 17.2644L129.904 17.3164C129.957 17.3791 129.987 17.458 129.987 17.5395C129.987 17.6209 129.957 17.6998 129.904 17.7625C128.864 17.7625 128.264 17.7105 127.534 17.7105C126.805 17.7105 126.114 17.7105 125.309 17.7625C125.256 17.6998 125.226 17.6209 125.226 17.5395C125.226 17.458 125.256 17.3791 125.309 17.3164L125.688 17.2644C126.744 17.1231 126.782 16.9075 126.782 15.0339V8.4466C126.782 6.95963 126.782 6.62506 125.924 6.53584L125.271 6.46149C125.238 6.43358 125.212 6.39926 125.195 6.3608C125.177 6.32235 125.168 6.28064 125.168 6.23844C125.168 6.19625 125.177 6.15454 125.195 6.11608C125.212 6.07763 125.238 6.0433 125.271 6.0154C126.469 5.89388 127.674 5.8467 128.879 5.87413C130.094 5.80003 131.306 6.05741 132.381 6.61762C132.839 6.90305 133.214 7.29943 133.469 7.76836C133.725 8.2373 133.852 8.76288 133.839 9.29418C133.855 9.89079 133.691 10.4787 133.366 10.9841C133.042 11.4895 132.572 11.8896 132.016 12.1343C131.21 12.4914 130.334 12.674 129.449 12.6696C129.42 12.6488 129.397 12.6219 129.381 12.5909C129.366 12.56 129.357 12.5258 129.357 12.4912C129.357 12.4566 129.366 12.4224 129.381 12.3914C129.397 12.3605 129.42 12.3335 129.449 12.3127C131.416 11.9559 132.13 10.8629 132.13 9.33879C132.165 8.95394 132.113 8.56621 131.978 8.20315C131.843 7.8401 131.628 7.51061 131.348 7.2381C131.068 6.96559 130.731 6.75673 130.359 6.62637C129.987 6.496 129.591 6.44733 129.198 6.48379C128.233 6.48379 128.21 6.55071 128.21 7.12319V15.0785V15.0339ZM135.791 8.61017C135.791 6.73658 135.791 6.45405 134.698 6.37971H134.242C134.19 6.31641 134.162 6.23774 134.162 6.15666C134.162 6.07558 134.19 5.99691 134.242 5.93361C135.138 5.93361 135.715 5.98566 136.521 5.98566C137.326 5.98566 137.85 5.98566 138.64 5.93361C138.693 5.99631 138.722 6.07521 138.722 6.15666C138.722 6.23811 138.693 6.31701 138.64 6.37971H138.298C137.242 6.48379 137.204 6.75145 137.204 8.61017V10.6622C137.204 10.9968 137.204 11.3388 137.44 11.3388C137.624 11.3202 137.8 11.2534 137.949 11.1455C138.207 10.9299 138.708 10.4689 138.875 10.2905L140.843 8.37969C141.341 7.90757 141.815 7.41129 142.263 6.89271C142.336 6.81125 142.381 6.71005 142.392 6.60275C142.392 6.5284 142.316 6.47636 142.081 6.42432L141.587 6.32023C141.555 6.29232 141.529 6.258 141.511 6.21954C141.494 6.18108 141.484 6.13937 141.484 6.09718C141.484 6.05499 141.494 6.01328 141.511 5.97482C141.529 5.93636 141.555 5.90204 141.587 5.87413C142.225 5.87413 142.955 5.92618 143.593 5.92618C144.231 5.92618 144.854 5.92618 145.401 5.87413C145.458 5.93469 145.49 6.0144 145.49 6.09718C145.49 6.17996 145.458 6.25967 145.401 6.32023C144.808 6.37488 144.232 6.5442 143.707 6.81836C142.793 7.4297 141.939 8.12155 141.154 8.88526L139.514 10.3722C139.319 10.5085 139.173 10.7009 139.096 10.9224C139.156 11.1349 139.277 11.326 139.445 11.4726C141.177 13.4131 142.582 15.0265 144.003 16.4837C144.35 16.8987 144.849 17.1653 145.393 17.2272L145.742 17.2793C145.773 17.3083 145.797 17.343 145.813 17.3813C145.83 17.4196 145.838 17.4608 145.838 17.5023C145.838 17.5438 145.83 17.585 145.813 17.6233C145.797 17.6616 145.773 17.6963 145.742 17.7253C145.271 17.7253 144.77 17.6733 143.912 17.6733C143.053 17.6733 142.522 17.6733 141.686 17.7253C141.617 17.6749 141.571 17.6003 141.557 17.5172C141.542 17.4341 141.562 17.3489 141.61 17.2793L142.028 17.2049C142.111 17.2154 142.195 17.2045 142.272 17.1732C142.35 17.1419 142.417 17.0913 142.468 17.0265C142.419 16.8709 142.33 16.7302 142.21 16.6175C141.861 16.1863 141.39 15.7105 140.691 14.9373L139.232 13.3313C138.192 12.1864 137.903 11.8443 137.463 11.8443C137.189 11.8443 137.151 12.0748 137.151 12.6994V15.0042C137.151 16.8778 137.151 17.1231 138.207 17.2346L138.701 17.2867C138.754 17.3494 138.783 17.4283 138.783 17.5097C138.783 17.5912 138.754 17.6701 138.701 17.7328C137.804 17.7328 137.181 17.6807 136.475 17.6807C135.769 17.6807 135.108 17.6807 134.363 17.7328C134.309 17.6707 134.279 17.5916 134.279 17.5097C134.279 17.4279 134.309 17.3487 134.363 17.2867L134.728 17.2346C135.693 17.0934 135.731 16.8778 135.731 15.0042V8.61017H135.791ZM148.31 8.64735C148.31 6.75889 148.31 6.41688 147.201 6.36484H146.745C146.692 6.30214 146.663 6.22324 146.663 6.14179C146.663 6.06034 146.692 5.98144 146.745 5.91874C147.657 5.91874 148.264 5.97079 149.024 5.97079C149.784 5.97079 150.376 5.97079 151.303 5.91874C151.356 5.98144 151.385 6.06034 151.385 6.14179C151.385 6.22324 151.356 6.30214 151.303 6.36484H150.847C149.768 6.45406 149.738 6.75889 149.738 8.64735V14.9967C149.738 16.8926 149.738 17.138 150.847 17.2272L151.303 17.2793C151.356 17.342 151.385 17.4208 151.385 17.5023C151.385 17.5838 151.356 17.6626 151.303 17.7253C150.391 17.7253 149.784 17.6733 149.024 17.6733C148.264 17.6733 147.71 17.6733 146.798 17.7253C146.745 17.6626 146.716 17.5838 146.716 17.5023C146.716 17.4208 146.745 17.342 146.798 17.2793L147.186 17.2272C148.264 17.1008 148.295 16.8555 148.295 14.9967V8.64735H148.31ZM164.079 14.677C164.079 15.2124 164.079 17.3387 164.133 17.7997C164.105 17.8654 164.055 17.9201 163.992 17.9551C163.929 17.9901 163.855 18.0034 163.783 17.993C163.038 17.0699 162.26 16.1723 161.451 15.3016L157.22 10.5879C156.726 10.0377 155.488 8.573 155.108 8.17895C155.026 8.56001 154.996 8.94994 155.017 9.33879V13.2272C155.017 14.0674 155.017 16.3871 155.344 16.9447C155.464 17.0633 155.609 17.1553 155.769 17.2143C155.929 17.2733 156.1 17.298 156.271 17.2867L156.795 17.3164C156.852 17.377 156.885 17.4567 156.885 17.5395C156.885 17.6223 156.852 17.702 156.795 17.7625C155.974 17.7625 155.336 17.7105 154.66 17.7105C153.984 17.7105 153.399 17.7105 152.761 17.7625C152.704 17.702 152.671 17.6223 152.671 17.5395C152.671 17.4567 152.704 17.377 152.761 17.3164L153.255 17.2644C153.408 17.2708 153.561 17.2418 153.701 17.1799C153.841 17.1179 153.964 17.0246 154.06 16.9075C154.272 15.695 154.351 14.4637 154.296 13.2347V8.07486C154.326 7.84478 154.305 7.61111 154.236 7.38936C154.166 7.1676 154.049 6.96283 153.893 6.78863C153.571 6.53253 153.175 6.38171 152.761 6.3574H152.45C152.419 6.32833 152.395 6.29362 152.379 6.25532C152.362 6.21702 152.354 6.1759 152.354 6.13435C152.354 6.09281 152.362 6.05169 152.379 6.01339C152.395 5.97509 152.419 5.94038 152.45 5.91131C153.209 5.96335 154.182 5.96335 154.508 5.96335C154.788 5.96587 155.067 5.94848 155.344 5.91131C155.709 6.8258 157.858 9.17522 158.458 9.83693L160.228 11.7774C161.489 13.1529 162.378 14.1492 163.267 15.0042C163.345 14.7642 163.371 14.511 163.343 14.2607V10.4392C163.343 9.59901 163.343 7.27933 162.978 6.72171C162.66 6.46842 162.256 6.3411 161.846 6.36484H161.535C161.502 6.33693 161.477 6.30261 161.459 6.26415C161.441 6.22569 161.432 6.18398 161.432 6.14179C161.432 6.0996 161.441 6.05789 161.459 6.01943C161.477 5.98097 161.502 5.94665 161.535 5.91874C162.37 5.91874 162.993 5.97079 163.684 5.97079C164.376 5.97079 164.945 5.97079 165.561 5.91874C165.591 5.94782 165.615 5.98252 165.632 6.02082C165.648 6.05912 165.656 6.10025 165.656 6.14179C165.656 6.18333 165.648 6.22446 165.632 6.26276C165.615 6.30106 165.591 6.33576 165.561 6.36484H165.302C164.929 6.36961 164.57 6.501 164.285 6.73658C163.973 7.37598 164.011 9.59158 164.011 10.4094V14.677H164.079ZM168.865 17.993C167.873 18.0194 166.891 17.7913 166.017 17.3313C165.721 16.5285 165.555 15.6858 165.523 14.8332C165.575 14.7702 165.65 14.7296 165.732 14.7199C165.815 14.7102 165.897 14.7321 165.963 14.7811C166.237 15.6882 166.981 17.4428 169.101 17.4428C169.392 17.4712 169.685 17.4389 169.963 17.3483C170.24 17.2576 170.495 17.1106 170.71 16.9168C170.925 16.723 171.096 16.4869 171.211 16.2239C171.327 15.9609 171.384 15.677 171.379 15.3908C171.398 14.8756 171.265 14.366 170.995 13.923C170.726 13.48 170.332 13.1223 169.86 12.8927L168.189 11.7849C167.626 11.4734 167.151 11.0296 166.808 10.4935C166.464 9.95732 166.263 9.34581 166.222 8.71426C166.222 7.01911 167.574 5.64365 169.944 5.64365C170.516 5.65334 171.085 5.73073 171.638 5.87413C171.845 5.93694 172.059 5.97196 172.276 5.97822C172.49 6.68553 172.6 7.41902 172.602 8.15664C172.544 8.2151 172.467 8.25216 172.384 8.26164C172.301 8.27111 172.217 8.25242 172.147 8.20869C172.064 7.62536 171.758 7.09433 171.292 6.72204C170.826 6.34976 170.233 6.16374 169.632 6.20127C167.84 6.20127 167.429 7.36111 167.429 8.20869C167.473 8.6749 167.634 9.12312 167.9 9.51264C168.165 9.90216 168.526 10.2206 168.949 10.4392L170.407 11.3313C171.065 11.6511 171.624 12.1377 172.025 12.7405C172.426 13.3433 172.654 14.0403 172.686 14.7588C172.686 16.7216 171.167 18.0599 168.804 18.0599" fill="white"/>
</svg>
