<svg width="104" height="48" viewBox="0 0 104 48" fill="none" xmlns="http://www.w3.org/2000/svg">
<g clip-path="url(#clip0_228_1261)">
<mask id="path-1-inside-1_228_1261" fill="white">
<path fill-rule="evenodd" clip-rule="evenodd" d="M79.8322 9.26831L78.792 9.52387C78.4471 9.47494 78.0968 9.47494 77.7518 9.52387L77.4918 9.77942H76.7117L76.4516 10.035H75.9316V10.2905H75.4115V10.5461H75.1515L74.8914 10.8016H74.6314L74.3713 11.0572H74.1113V11.3128H73.8513L73.5912 11.5683C72.7419 12.5208 71.875 13.458 70.9908 14.3794L70.7308 14.635V14.8905H70.4708V14.635L70.2107 14.3794V14.1239L69.9507 13.8683V13.6128H69.6906V13.3572L69.4306 13.1016L68.9105 12.335C67.4924 10.7844 65.5542 9.78671 63.4497 9.52387C61.9716 9.49562 60.4936 9.58107 59.029 9.77942H58.2489L57.9889 10.035H57.7288L57.4688 10.2905L56.9487 10.5461H56.4287V10.8016H56.1686L55.9086 11.0572L55.3885 11.3128V11.5683C54.6196 12.2657 53.9227 13.0361 53.3082 13.8683H53.0482V10.8016H50.7078V34.8239H53.3082V27.9239C53.4793 24.4254 53.7394 20.9317 54.0883 17.4461L54.3483 17.1905V16.6794H54.6084L54.8684 16.1683V15.9128L55.1285 15.6572V15.4016L55.3885 15.1461L55.6485 14.8905V14.635C56.3861 13.8752 57.2701 13.2671 58.2489 12.8461L58.509 12.5905H59.029L59.2891 12.335H59.8092L60.3292 12.0794H62.4095L62.9296 12.335H63.7097L63.9698 12.5905H64.2298L64.4899 12.8461H65.0099L65.27 13.1016H65.53V13.3572H65.7901V13.6128H66.0501L66.3101 13.8683H66.5702L66.8302 14.1239V14.3794L67.0902 14.635L67.3503 14.8905V15.1461H67.6103V15.6572H67.8704V16.1683C68.184 16.8289 68.4448 17.5124 68.6505 18.2128V18.7239L68.9105 18.9794V34.8239H71.7709V27.4128C71.8986 23.9968 72.1589 20.587 72.5511 17.1905V16.935L72.8111 16.4239H73.0711V15.9128H73.3312V15.6572L73.5912 15.1461L73.8513 14.8905L74.1113 14.635L74.6314 14.1239C74.9007 13.8776 75.1609 13.6219 75.4115 13.3572H75.6715L75.9316 13.1016L76.4516 12.8461H76.7117L76.9717 12.5905H77.4918L77.7518 12.335H78.0119L79.052 12.0794H80.8723L81.1323 12.335H81.9125L82.1725 12.5905H82.6926L82.9526 12.8461H83.2127V13.1016H83.7327L83.9928 13.3572V13.6128H84.2528C85.2164 14.4307 85.9355 15.4907 86.3331 16.6794L86.5932 16.935V17.4461L86.8532 17.7016V18.4683L87.1132 18.7239V34.8239H89.9737V26.9016C89.7927 23.1486 89.5326 19.3996 89.1936 15.6572V15.4016H88.9335V14.8905L88.6735 14.635L88.4134 14.1239V13.8683L88.1534 13.6128V13.3572H87.8934V13.1016H87.6333C86.7989 11.958 85.7085 11.0177 84.4462 10.3531C83.184 9.68853 81.7834 9.31741 80.3522 9.26831H79.8322ZM4.94096 23.3239C4.83149 28.6923 4.65812 34.0594 4.42088 39.4239L4.16084 39.6794V40.1905L3.90081 40.4461V40.7016L3.64077 40.9572V41.4683H3.38073V41.7239H3.12069V42.235L2.86065 42.4905L2.60061 42.7461L2.34057 43.0016V43.2572H2.08053V43.5127L1.82049 43.7683L1.56046 44.0239C1.30042 44.2794 1.30042 44.2794 1.82049 44.535C2.00282 44.6963 2.17642 44.8669 2.34057 45.0461L2.60061 45.3016C2.67842 45.4762 2.76521 45.6468 2.86065 45.8127C3.03673 45.8925 3.21018 45.9777 3.38073 46.0683H3.64077L4.16084 45.5572L4.42088 45.3016L4.68092 45.0461V44.7905H4.94096V44.535L5.201 44.2794L5.46104 44.0239V43.7683H5.72108V43.5127L5.98112 43.2572V43.0016L6.24116 42.7461V42.4905L6.50119 42.235V41.7239L6.76123 41.2127L7.02127 40.9572V40.1905L7.28131 39.4239V39.1683H7.54135V37.8905L7.80139 37.635V10.8016H4.94096V23.3239ZM100.635 22.8128V34.8239H103.496V10.8016H100.635V22.8128Z"/>
</mask>
<path fill-rule="evenodd" clip-rule="evenodd" d="M79.8322 9.26831L78.792 9.52387C78.4471 9.47494 78.0968 9.47494 77.7518 9.52387L77.4918 9.77942H76.7117L76.4516 10.035H75.9316V10.2905H75.4115V10.5461H75.1515L74.8914 10.8016H74.6314L74.3713 11.0572H74.1113V11.3128H73.8513L73.5912 11.5683C72.7419 12.5208 71.875 13.458 70.9908 14.3794L70.7308 14.635V14.8905H70.4708V14.635L70.2107 14.3794V14.1239L69.9507 13.8683V13.6128H69.6906V13.3572L69.4306 13.1016L68.9105 12.335C67.4924 10.7844 65.5542 9.78671 63.4497 9.52387C61.9716 9.49562 60.4936 9.58107 59.029 9.77942H58.2489L57.9889 10.035H57.7288L57.4688 10.2905L56.9487 10.5461H56.4287V10.8016H56.1686L55.9086 11.0572L55.3885 11.3128V11.5683C54.6196 12.2657 53.9227 13.0361 53.3082 13.8683H53.0482V10.8016H50.7078V34.8239H53.3082V27.9239C53.4793 24.4254 53.7394 20.9317 54.0883 17.4461L54.3483 17.1905V16.6794H54.6084L54.8684 16.1683V15.9128L55.1285 15.6572V15.4016L55.3885 15.1461L55.6485 14.8905V14.635C56.3861 13.8752 57.2701 13.2671 58.2489 12.8461L58.509 12.5905H59.029L59.2891 12.335H59.8092L60.3292 12.0794H62.4095L62.9296 12.335H63.7097L63.9698 12.5905H64.2298L64.4899 12.8461H65.0099L65.27 13.1016H65.53V13.3572H65.7901V13.6128H66.0501L66.3101 13.8683H66.5702L66.8302 14.1239V14.3794L67.0902 14.635L67.3503 14.8905V15.1461H67.6103V15.6572H67.8704V16.1683C68.184 16.8289 68.4448 17.5124 68.6505 18.2128V18.7239L68.9105 18.9794V34.8239H71.7709V27.4128C71.8986 23.9968 72.1589 20.587 72.5511 17.1905V16.935L72.8111 16.4239H73.0711V15.9128H73.3312V15.6572L73.5912 15.1461L73.8513 14.8905L74.1113 14.635L74.6314 14.1239C74.9007 13.8776 75.1609 13.6219 75.4115 13.3572H75.6715L75.9316 13.1016L76.4516 12.8461H76.7117L76.9717 12.5905H77.4918L77.7518 12.335H78.0119L79.052 12.0794H80.8723L81.1323 12.335H81.9125L82.1725 12.5905H82.6926L82.9526 12.8461H83.2127V13.1016H83.7327L83.9928 13.3572V13.6128H84.2528C85.2164 14.4307 85.9355 15.4907 86.3331 16.6794L86.5932 16.935V17.4461L86.8532 17.7016V18.4683L87.1132 18.7239V34.8239H89.9737V26.9016C89.7927 23.1486 89.5326 19.3996 89.1936 15.6572V15.4016H88.9335V14.8905L88.6735 14.635L88.4134 14.1239V13.8683L88.1534 13.6128V13.3572H87.8934V13.1016H87.6333C86.7989 11.958 85.7085 11.0177 84.4462 10.3531C83.184 9.68853 81.7834 9.31741 80.3522 9.26831H79.8322ZM4.94096 23.3239C4.83149 28.6923 4.65812 34.0594 4.42088 39.4239L4.16084 39.6794V40.1905L3.90081 40.4461V40.7016L3.64077 40.9572V41.4683H3.38073V41.7239H3.12069V42.235L2.86065 42.4905L2.60061 42.7461L2.34057 43.0016V43.2572H2.08053V43.5127L1.82049 43.7683L1.56046 44.0239C1.30042 44.2794 1.30042 44.2794 1.82049 44.535C2.00282 44.6963 2.17642 44.8669 2.34057 45.0461L2.60061 45.3016C2.67842 45.4762 2.76521 45.6468 2.86065 45.8127C3.03673 45.8925 3.21018 45.9777 3.38073 46.0683H3.64077L4.16084 45.5572L4.42088 45.3016L4.68092 45.0461V44.7905H4.94096V44.535L5.201 44.2794L5.46104 44.0239V43.7683H5.72108V43.5127L5.98112 43.2572V43.0016L6.24116 42.7461V42.4905L6.50119 42.235V41.7239L6.76123 41.2127L7.02127 40.9572V40.1905L7.28131 39.4239V39.1683H7.54135V37.8905L7.80139 37.635V10.8016H4.94096V23.3239ZM100.635 22.8128V34.8239H103.496V10.8016H100.635V22.8128Z" fill="#FAFAFA" stroke="#FAFAFA" stroke-width="0.563611" mask="url(#path-1-inside-1_228_1261)"/>
<path fill-rule="evenodd" clip-rule="evenodd" d="M28.8645 10.2904L29.1246 10.546L28.8645 10.8015H28.6045L28.3444 11.0571H29.1246V11.5682H29.9047L30.1647 11.3126V11.0571C30.6848 11.0571 30.6848 10.546 30.4248 10.546H29.9047L29.6446 10.2904H28.8645ZM27.5643 11.8237H27.3043L27.0442 12.0793H27.8244L28.0844 11.8237H27.5643ZM28.6045 11.8237L28.0844 12.0793H28.3444L27.8244 12.3349L27.3043 12.5904H27.0442L26.7842 12.846H26.5242V13.1015H25.7441L25.484 13.3571H25.224V13.6126H24.7039L24.4439 13.8682H23.9238L23.6637 14.1237H23.4037L23.1437 14.3793H22.6236V14.6349L22.1035 14.8904L21.8435 15.146C21.7295 15.3015 21.6417 15.4741 21.5834 15.6571L21.3234 15.9126V16.4237H20.8033L20.2832 16.9349V17.1904L20.0232 17.446L19.7632 17.7015V17.9571L19.5031 18.2126L19.2431 18.4682V18.9793H18.983V18.2126H19.2431V17.446L18.983 17.7015V17.9571H18.723V18.7237L18.463 18.9793V18.2126L18.723 17.9571L18.463 17.7015V17.9571H18.2029V18.2126H17.9429V17.7015L18.2029 17.446V17.1904L18.463 16.9349V16.4237L17.9429 16.9349V17.1904H17.6828V17.446H17.4228V17.9571L17.1628 18.2126V18.7237L16.9027 18.9793V19.746L16.6427 20.0015L16.3827 20.5126V21.2793H15.8626V21.7904L16.1226 22.046L15.8626 22.3015V22.8126L15.6025 23.8349L15.8626 25.3682V25.8793L16.1226 26.1349V26.646L16.3827 27.1571V27.6682L16.6427 27.9237V28.1793H16.9027V28.946H17.1628V29.2015H17.4228V29.7126H17.6828V29.9682L17.9429 30.2237L18.2029 30.4793L18.463 30.7349L18.983 31.246C19.784 32.1601 20.6532 33.0143 21.5834 33.8015L21.8435 34.0571H22.1035L22.3635 34.3126L22.6236 34.5682L23.1437 34.8237H23.4037V35.0793H23.9238L24.1838 35.3349H25.484V35.0793H26.5242V34.8237H26.7842L27.0442 34.5682L27.3043 34.3126H27.5643V34.0571L27.8244 33.8015C28.0844 33.546 28.0844 32.2682 27.5643 32.0126C27.1975 31.526 26.7593 31.0954 26.2641 30.7349H26.0041L25.7441 30.4793H24.1838V30.2237H23.4037L22.8836 29.9682H22.3635L22.1035 29.7126L21.8435 29.4571L21.5834 29.2015V28.946H21.3234V28.4349L20.8033 28.1793L20.5433 27.9237V27.6682H20.8033V27.4126C20.8033 27.1571 20.8033 27.1571 20.8033 27.4126H21.0634V27.6682L21.3234 27.9237L21.8435 28.4349L22.1035 28.6904H22.8836V28.4349H22.6236L22.3635 28.1793L22.1035 27.9237H21.8435V27.6682H21.5834L21.8435 27.4126V27.6682L22.1035 27.4126V26.9015L21.8435 26.646L21.5834 26.3904H21.3234V26.1349H21.0634V24.8571L20.8033 23.5793V22.8126L20.5433 22.5571L20.8033 22.3015V22.046L20.5433 21.7904V20.2571H20.8033V19.746L21.0634 19.4904L21.3234 19.2349V18.9793L21.5834 18.7237H21.8435V18.4682L22.1035 18.2126V18.4682H21.8435L21.5834 18.9793V19.4904L21.3234 19.746V20.2571H21.0634C21.0634 21.2793 21.3234 21.2793 21.5834 20.7682V20.5126L21.8435 19.746V19.2349L22.1035 18.9793V18.7237H22.3635V18.4682H22.6236L22.8836 17.7015H23.1437L23.4037 17.1904L23.6637 16.9349L24.1838 16.4237V16.1682L23.9238 16.4237H23.6637V16.6793C23.1898 17.0635 22.7544 17.4913 22.3635 17.9571L22.1035 18.2126V17.7015H22.3635V17.446H22.6236V17.1904L22.8836 16.9349L23.1437 16.6793L23.6637 16.4237V15.146L23.4037 15.4015C23.1437 15.4015 23.1437 15.4015 23.4037 15.4015V15.146L23.6637 14.8904H23.9238L24.1838 14.6349L24.4439 14.3793L24.9639 14.1237H25.224L25.484 13.8682H26.0041V13.6126H26.5242C26.5242 13.3571 26.5242 13.3571 26.5242 13.6126V13.8682H26.2641L26.0041 14.1237L25.484 14.3793L24.9639 14.8904H25.224L25.7441 14.6349V14.3793H26.5242V14.1237V14.3793C26.2641 14.6349 26.2641 14.6349 26.7842 14.6349H27.0442L26.7842 14.8904H26.5242L26.2641 15.146H26.0041V15.4015H25.484V15.6571L25.224 15.9126L24.9639 15.6571H24.7039V15.9126L24.4439 16.1682H24.9639L25.224 15.9126L25.7441 15.6571H26.0041L26.2641 15.4015H26.5242L26.7842 15.146H27.0442L27.5643 14.8904H28.3444L28.6045 14.6349H29.3846V14.8904L29.6446 14.6349H31.2049L31.4649 14.8904H32.245L32.5051 15.146H32.7651L33.0251 15.4015H33.5452V15.6571H33.8053V15.9126H34.0653L34.5854 16.4237L34.8454 16.6793H35.1054L35.3655 16.9349L35.6255 17.446L35.8856 17.7015V17.9571H36.1456V18.4682H36.4056L36.6657 19.2349V19.4904L36.9257 19.746V20.5126H37.1858V22.3015L36.9257 22.046V24.6015H37.1858V24.346L37.4458 24.8571V25.1126H37.1858V26.1349H36.9257V26.646L36.6657 26.9015V27.1571L36.4056 27.4126V27.6682L36.1456 27.9237V28.1793L35.8856 28.4349V28.6904H35.6255V28.946L35.3655 29.2015V28.6904H35.6255V28.4349H35.8856V28.1793L36.1456 27.6682V27.4126L35.8856 27.6682V27.9237H35.6255V28.1793L35.3655 28.4349L35.1054 28.6904V28.946L34.8454 29.2015H34.5854V29.7126L34.8454 29.4571V29.7126L34.3253 30.4793L33.8053 30.9904H33.0251L32.7651 31.246H32.245V31.5015H31.985V32.0126H32.245H31.985V32.2682H31.7249L31.4649 32.5237L31.7249 32.7793L31.985 32.5237V33.0349L32.245 33.2904H33.0251L33.2852 33.0349H33.5452L33.2852 33.2904H33.0251L32.7651 33.546H32.5051V33.8015H32.245L31.985 34.0571L31.7249 34.3126C31.2049 34.3126 30.9448 34.5682 31.4649 34.5682H31.7249L31.985 34.3126H33.0251L33.2852 34.0571H33.5452V34.3126H33.8053V34.0571H34.0653L34.3253 33.8015L34.8454 33.546H35.1054L35.3655 33.2904C35.3655 33.0349 35.3655 33.0349 35.3655 33.2904V33.546H35.6255L35.8856 33.2904H36.1456V33.0349L36.4056 32.7793V33.2904H36.1456L35.8856 33.546H35.6255V33.8015L34.8454 34.3126H34.3253V34.5682H34.0653L33.8053 34.8237H33.5452L33.2852 35.0793H33.0251V35.3349L32.7651 35.5904H31.985L31.7249 35.846V36.1015H31.985L32.7651 35.846H33.2852L33.5452 35.5904L34.0653 35.3349H34.3253L34.5854 35.0793H35.3655L35.6255 34.8237L35.8856 34.5682L36.1456 34.3126H36.4056V34.0571L37.1858 33.8015L37.4458 33.2904H37.7058C38.0923 32.9912 38.4415 32.648 38.746 32.2682L39.006 32.0126C39.0881 31.84 39.1748 31.6696 39.2661 31.5015L39.5261 31.246V30.9904H39.7861V30.7349L40.0462 30.4793V30.2237H40.3062V29.7126L40.5663 29.2015L40.8263 28.946V28.6904L41.0863 28.4349V28.1793L41.3464 27.9237V26.646L41.6064 26.3904V25.3682L41.8665 25.1126L42.1265 24.0904L41.8665 23.5793V22.5571L41.6064 22.046V20.7682L41.3464 20.2571V19.746L41.0863 19.4904V18.9793L40.8263 18.7237C40.7757 18.3751 40.6885 18.0325 40.5663 17.7015L40.3062 17.446V16.9349H40.0462V16.6793L39.7861 16.4237C39.7242 16.2422 39.6367 16.0702 39.5261 15.9126L39.2661 15.6571L39.006 15.4015V15.146L38.486 14.8904V14.6349L38.2259 14.3793L37.9659 14.1237L37.7058 13.8682C37.9659 13.8682 37.7058 13.8682 37.7058 13.8682L37.1858 13.6126L36.9257 13.3571L36.6657 13.1015H36.1456L35.8856 12.846L35.6255 12.5904H34.8454V12.846H35.1054V13.1015H35.3655H34.5854L34.8454 13.3571H35.1054L35.3655 13.6126H35.6255L35.8856 13.8682L36.1456 14.1237L36.4056 14.3793L36.6657 14.8904H36.9257L37.1858 15.146L37.4458 15.4015L37.7058 15.6571V15.9126L37.9659 16.1682L37.4458 15.6571C37.2134 15.4491 36.9504 15.2767 36.6657 15.146L36.1456 14.6349L35.8856 14.3793H35.6255L35.3655 14.1237L35.1054 13.8682H34.8454L34.5854 13.6126H34.3253L34.0653 13.3571H33.8053L33.5452 13.1015H33.2852L33.0251 12.846H32.7651L32.245 12.5904H31.4649L31.2049 12.3349H29.9047L29.3846 12.0793H28.8645V11.8237H28.6045ZM23.4037 12.5904L23.1437 12.846L22.6236 13.1015H22.3635V13.3571H22.1035L21.8435 13.6126C21.5834 13.8682 21.5834 14.1237 21.0634 14.1237C20.605 14.7022 20.1713 15.299 19.7632 15.9126L19.5031 16.1682V16.6793L19.7632 16.1682L20.2832 15.9126V15.6571L20.5433 15.4015L20.8033 15.146L21.3234 14.6349L22.1035 13.8682L22.3635 13.6126H22.6236V13.3571H22.8836L23.1437 13.1015H23.4037L23.6637 12.846L23.4037 12.5904ZM30.9448 12.846L31.4649 13.1015H31.7249L31.985 13.3571H30.9448V13.1015H30.6848C30.4248 13.1015 30.4248 13.1015 30.6848 13.1015V12.846H30.9448ZM36.1456 13.6126H35.8856H36.1456ZM22.6236 13.8682L22.3635 14.1237L22.1035 14.6349L22.3635 14.3793C22.8836 14.1237 23.1437 13.8682 22.6236 13.8682ZM34.0653 13.8682V14.1237H34.5854V14.3793H34.8454L35.1054 14.8904L35.3655 15.146V14.8904H35.1054L34.8454 14.6349L34.5854 14.3793H34.0653V14.1237H33.8053V13.8682H34.0653ZM20.0232 14.3793V14.8904C20.0232 15.146 20.5433 14.6349 20.5433 14.1237L20.0232 14.3793ZM27.3043 14.3793L27.0442 14.6349L27.3043 14.3793H27.5643H27.3043ZM19.5031 16.9349L19.7632 17.446V16.9349H19.5031ZM20.2832 17.446V17.9571H20.0232V18.2126H19.7632L20.0232 17.9571V17.7015H20.2832V17.446ZM35.6255 18.7237L35.8856 18.9793V19.4904L36.1456 19.2349V18.9793L35.8856 18.7237H35.6255ZM18.2029 19.4904L17.9429 20.0015V20.2571C17.9429 20.5126 17.9429 20.2571 17.9429 20.2571V19.746H18.2029V19.2349V19.4904ZM41.6064 20.5126V21.0237H41.8665V20.5126H41.6064ZM37.1858 22.8126C37.1858 23.0682 37.1858 22.8126 37.1858 22.8126ZM37.4458 23.8349H37.1858H37.4458ZM37.1858 24.346V24.0904V24.346ZM36.6657 25.3682V25.6237L36.4056 25.8793V26.1349L36.6657 26.646V26.3904L36.9257 26.1349V25.3682H36.6657ZM16.3827 25.8793V25.6237V25.8793ZM16.3827 26.1349L16.6427 26.3904V26.646L16.3827 26.3904V25.8793V26.1349ZM33.0251 32.0126L32.7651 32.2682H32.5051V32.5237H32.245V32.2682H32.5051L32.7651 32.0126H33.0251ZM37.1858 32.2682H36.9257H37.1858ZM33.5452 32.2682L33.2852 32.5237H33.0251V32.7793H32.7651L33.0251 32.5237L33.2852 32.2682H33.5452ZM34.0653 33.8015C33.8053 33.8015 33.8053 33.8015 34.0653 33.8015ZM34.5854 34.8237L34.3253 35.0793H33.8053H34.0653L34.3253 34.8237H34.5854Z" fill="#EF4444"/>
</g>
<defs>
<clipPath id="clip0_228_1261">
<rect width="103.68" height="48" fill="white"/>
</clipPath>
</defs>
</svg>
