<svg width="129" height="32" viewBox="0 0 129 32" fill="none" xmlns="http://www.w3.org/2000/svg">
<path d="M51.896 22.2403C51.896 21.9203 51.7368 21.7603 51.4184 21.6003V21.4403L52.5328 21.6003L53.4881 21.4403V21.6003C53.1696 21.7603 53.0104 21.9203 53.0104 22.2403V25.6003C53.0104 26.7203 53.4881 27.3603 54.7617 27.3603C55.8761 27.3603 56.6721 26.8803 56.6721 25.7603V22.2403C56.6721 21.9203 56.5129 21.7603 56.1945 21.6003V21.4403L56.9905 21.6003L57.9458 21.4403V21.6003C57.4682 21.7603 57.3089 21.9203 57.3089 22.2403V25.6003C57.3089 27.0403 56.5129 28.0003 54.6025 28.0003C52.8512 28.0003 51.896 27.2003 51.896 25.7603V22.2403ZM59.5378 27.6803L60.0154 27.2003V22.4003C60.0154 21.9203 59.8562 21.7603 59.5378 21.6003V21.4403C59.9621 21.4622 60.3872 21.4622 60.8114 21.4403L64.9507 26.4003V22.2403C64.9507 21.9203 64.7915 21.7603 64.3139 21.6003V21.4403L65.2691 21.6003L66.0652 21.4403V21.6003C65.7468 21.7603 65.4284 21.9203 65.4284 22.2403V28.0003H65.2691L64.3139 27.2003L60.6522 22.8803V27.2003L61.289 27.6803V27.8403H59.5378V27.6803ZM92.0154 26.4003H92.1746C92.1746 26.7203 92.493 27.0403 92.6522 27.2003C92.9706 27.5203 93.4483 27.5203 93.9259 27.5203C94.7219 27.5203 95.1995 27.2003 95.1995 26.5603C95.1995 25.7603 94.5627 25.4403 93.7667 25.1203C93.1298 24.8003 92.0154 24.3203 92.0154 23.2003C92.0154 22.0803 92.8114 21.4403 94.0851 21.4403L95.8363 21.6003V22.8803H95.6771C95.5179 22.0803 94.7219 21.9203 94.0851 21.9203C93.1298 21.9203 92.8114 22.4003 92.8114 22.8803C92.8114 23.5203 93.6075 23.8403 94.4035 24.1603C95.1995 24.6403 96.1547 25.1203 96.1547 26.2403C96.1547 27.2003 95.3587 28.0003 93.9259 28.0003L92.0154 27.6803V26.4003ZM109.687 25.2803L107.936 22.5603C107.777 22.0803 107.458 21.7603 107.14 21.6003V21.4403L108.254 21.6003L109.209 21.4403V21.6003L108.891 21.9203L109.209 22.4003L110.324 24.4803L111.598 22.4003L111.757 21.9203L111.438 21.6003V21.4403L112.234 21.6003L113.03 21.4403V21.6003L112.075 22.7203L110.483 25.2803M110.642 24.9603V27.0403C110.642 27.3603 110.801 27.6803 111.12 27.6803V27.8403H109.05V27.6803C109.369 27.6803 109.687 27.3603 109.687 27.0403V25.1203M78.4831 21.4403H83.1V22.7203H82.9408C82.7816 22.2403 82.6224 21.9203 81.8264 21.9203H80.0751V24.1603H81.9856C82.304 24.1603 82.304 24.0003 82.4632 23.6803H82.6224V25.2803H82.4632C82.304 24.9603 82.304 24.8003 81.9856 24.8003L81.3488 24.6403H80.0751V27.3603H81.9856C82.7816 27.3603 82.9408 27.0403 83.2592 26.5603H83.4184L83.2592 27.8403H78.4831V27.6803C78.8015 27.6803 79.1199 27.3603 79.1199 27.0403V22.2403C79.1199 21.9203 78.9607 21.7603 78.4831 21.6003V21.4403ZM68.4532 22.2403C68.4532 21.9203 68.294 21.7603 67.9756 21.6003V21.4403L68.9308 21.6003L70.0453 21.4403V21.6003C69.7269 21.7603 69.5677 21.9203 69.5677 22.2403V27.0403C69.5677 27.3603 69.7269 27.5203 70.0453 27.6803V27.8403H67.9756V27.6803C68.294 27.5203 68.4532 27.3603 68.4532 27.0403V22.2403ZM98.3836 22.2403C98.3836 21.9203 98.0652 21.7603 97.7468 21.6003V21.4403L98.8612 21.6003L99.9756 21.4403V21.6003C99.498 21.7603 99.3388 21.9203 99.3388 22.2403V27.0403C99.3388 27.3603 99.498 27.5203 99.9756 27.6803V27.8403H97.7468V27.6803C98.0652 27.5203 98.3836 27.3603 98.3836 27.0403V22.2403ZM103.797 21.6003L100.772 21.4403V22.7203H100.931C101.09 22.2403 101.568 22.0803 101.886 22.0803H103.319V27.0403C103.319 27.3603 103 27.5203 102.682 27.6803V27.8403H104.911V27.6803C104.433 27.5203 104.274 27.3603 104.274 27.0403V22.0803H105.707C106.025 22.0803 106.344 22.2403 106.503 22.7203H106.662V21.4403L103.797 21.6003ZM86.6025 27.0403C86.6025 27.3603 86.7617 27.5203 87.0801 27.6803V27.8403H85.0104V27.6803C85.3289 27.6803 85.4881 27.3603 85.4881 27.0403V22.2403C85.4881 21.9203 85.3289 21.7603 85.0104 21.6003V21.4403H87.5577C89.1497 21.4403 89.9458 22.0803 89.9458 23.2003C89.9458 24.0003 89.309 24.6403 88.3537 24.8003L88.8313 25.2803L90.105 26.8803C90.4234 27.3603 90.7418 27.6803 91.2194 27.6803V27.8403L90.4234 28.0003C89.9458 28.0003 89.4682 27.6803 89.1497 27.2003L87.8761 25.6003C87.5577 25.2803 87.3985 24.9603 86.9209 24.9603H86.6025V27.0403ZM86.6025 24.4803H87.3985C88.5129 24.4803 88.9905 23.8403 88.9905 23.2003C88.9905 22.4003 88.3537 21.9203 87.2393 21.9203H86.6025V24.4803ZM71.6373 22.2403C71.4781 21.9203 71.3189 21.7603 70.8413 21.6003V21.4403L72.1149 21.6003L73.0701 21.4403V21.6003C72.9109 21.7603 72.7517 21.7603 72.7517 22.0803L72.9109 22.7203L74.503 26.5603L76.095 22.7203L76.2542 22.0803L75.9358 21.6003V21.4403L76.7318 21.6003L77.6871 21.4403V21.6003C77.3687 21.7603 77.0502 21.9203 76.891 22.5603L74.6622 27.8403H74.0254L71.6373 22.2403ZM77.3687 5.2803C77.2094 4.8003 76.7318 4.3203 76.095 4.1603V3.8403H80.2343V4.1603C79.9159 4.3203 79.4383 4.4803 79.4383 4.8003L79.9159 6.2403L83.1 13.2803L85.9657 6.2403L86.4433 4.9603C86.4433 4.4803 85.9657 4.3203 85.4881 4.1603V3.8403H88.9905V4.1603C88.1945 4.3203 87.8761 4.8003 87.3985 5.7603L83.1 16.0003H82.1448L77.3687 5.2803ZM35.8164 15.5203C36.4532 15.3603 36.7716 15.2003 36.7716 14.5603V5.1203C36.7716 4.4803 36.4532 4.3203 35.8164 4.1603V3.8403H39.6373V4.1603C39.1597 4.3203 38.6821 4.4803 38.6821 5.1203V9.1203H45.6871V5.1203C45.6871 4.4803 45.2094 4.3203 44.7318 4.1603V3.8403H48.5527V4.1603C47.9159 4.3203 47.5975 4.4803 47.5975 5.1203V14.5603C47.5975 15.2003 47.9159 15.3603 48.5527 15.5203V15.8403H44.7318V15.5203C45.2094 15.3603 45.6871 15.2003 45.6871 14.5603V10.0803H38.6821V14.5603C38.6821 15.2003 39.1597 15.3603 39.6373 15.5203V15.8403H35.8164V15.5203ZM115.896 15.5203C116.533 15.3603 117.01 15.0403 117.01 14.4003V5.1203C117.01 4.4803 116.692 4.3203 115.896 4.1603V3.8403H117.966L121.468 3.6803C125.767 3.6803 128.314 6.0803 128.314 9.7603C128.314 13.2803 125.607 15.8403 121.15 15.8403H115.896V15.5203ZM118.921 14.8803L120.831 15.0403C124.334 15.0403 126.244 12.9603 126.244 9.9203C126.244 6.7203 124.334 4.4803 120.991 4.4803L118.921 4.6403V14.8803ZM67.6572 14.4003C67.6572 15.0403 68.1348 15.3603 68.7716 15.5203V15.8403H64.7915V15.5203C65.4284 15.3603 65.7468 15.0403 65.7468 14.4003V5.2803C65.7468 4.6403 65.4284 4.3203 64.7915 4.1603V3.8403H69.7269C72.4333 3.8403 74.1846 4.9603 74.1846 7.0403C74.1846 8.6403 72.9109 9.7603 71.1597 10.0803L71.9557 10.8803L74.3438 14.0803C74.9806 14.8803 75.6174 15.6803 76.4134 15.6803V15.8403L74.9806 16.0003C74.0254 16.0003 73.2293 15.6803 72.5925 14.7203C71.7965 14.0803 70.6821 12.3203 70.0453 11.5203C69.7269 10.8803 69.09 10.5603 68.294 10.4003L67.6572 10.2403V14.4003ZM67.6572 9.6003H69.2492C71.4781 9.6003 72.1149 8.3203 72.1149 7.2003C72.1149 5.6003 71.0005 4.4803 69.09 4.4803L67.6572 4.6403V9.6003ZM105.389 14.4003C105.389 15.0403 105.866 15.3603 106.503 15.5203V15.8403H102.523V15.5203C103.16 15.3603 103.478 15.0403 103.478 14.4003V5.2803C103.478 4.6403 103.16 4.3203 102.523 4.1603V3.8403H107.458C110.324 3.8403 111.916 4.9603 111.916 7.0403C111.916 8.6403 110.642 9.7603 108.891 10.0803L109.687 10.8803L112.075 14.0803C112.712 14.8803 113.349 15.6803 114.145 15.6803V15.8403L112.712 16.0003C111.757 16.0003 110.961 15.6803 110.324 14.7203L107.777 11.5203C107.458 10.8803 106.981 10.5603 106.025 10.4003L105.389 10.2403V14.4003ZM105.389 9.6003H106.981C109.209 9.6003 109.846 8.3203 109.846 7.2003C109.846 5.6003 108.732 4.4803 106.821 4.4803L105.389 4.6403V9.6003ZM50.304 15.5203C51.1 15.3603 51.5776 14.8803 51.7368 14.2403L55.5577 4.9603L56.0353 3.6803H56.9905L57.4682 4.9603L61.4483 14.2403C61.7667 14.8803 62.0851 15.3603 62.8811 15.5203V15.8403H58.7418V15.5203C59.2194 15.3603 59.5378 15.0403 59.5378 14.7203L59.2194 13.9203L58.4234 12.0003H53.9657L53.1696 13.9203L52.8512 14.7203C52.8512 15.0403 53.0104 15.3603 53.8065 15.5203V15.8403H50.304V15.5203ZM57.9458 11.0403L56.0353 6.5603L54.2841 11.0403H57.9458ZM88.3537 15.5203C89.1497 15.3603 89.4682 14.8803 89.7866 14.2403L93.6075 4.9603L93.9259 3.6803H95.0403L95.3587 4.9603L99.498 14.2403C99.6572 14.8803 99.9756 15.3603 100.772 15.5203V15.8403H96.6323V15.5203C97.2692 15.3603 97.4284 15.0403 97.4284 14.7203L97.2692 13.9203L96.3139 12.0003H91.8562L91.0602 13.9203L90.901 14.7203C90.901 15.0403 91.0602 15.3603 91.697 15.5203V15.8403H88.3537V15.5203ZM95.9955 11.0403L94.0851 6.5603L92.3338 11.0403H95.9955Z" fill="white"/>
<path d="M0.472656 0H27.2189V10.24C27.2189 14.88 25.4677 24.8 13.8458 32C13.8458 32 1.42788 26.88 0.472656 10.24V0Z" fill="#8E8E8E"/>
<path d="M0.313477 7.15256e-07H27.0597V10.24C27.0597 14.88 25.4677 24.64 13.8458 32C13.8458 32 1.2687 26.88 0.313477 10.24V7.15256e-07Z" stroke="#12110C" stroke-width="0.000346048"/>
<path d="M20.6915 13.1204C20.6915 13.1204 20.3731 13.9204 19.4179 13.1204L15.7562 12.9604C15.7562 12.9604 15.2786 13.1204 15.1194 12.6404L15.2786 11.5204L14.801 11.3604C14.801 11.3604 14.005 11.3604 14.005 10.7204C14.005 10.7204 13.8457 10.0804 14.9602 10.0804C14.9602 10.0804 15.2786 10.2404 15.2786 9.7604V6.7204C15.2786 6.7204 15.2786 6.4004 14.801 6.4004C14.801 6.4004 14.1642 6.5604 14.005 6.0804C14.005 6.0804 14.005 5.4404 14.4826 5.2804H15.1194L15.2786 4.8004V3.8404L15.7562 3.6804H16.393L16.7114 3.3604L17.0298 3.5204C17.0298 3.5204 17.6666 3.8404 19.5771 3.6804H19.8955C19.8955 3.6804 20.3731 4.0004 20.5323 3.6804H21.8059C21.8059 3.6804 22.9204 4.0004 23.5572 3.3604H23.8756C23.8756 3.3604 24.194 3.8404 24.3532 3.6804L25.1492 3.8404L25.3084 4.9604C25.3084 4.9604 25.1492 5.4404 25.786 5.4404C25.786 5.4404 26.4229 5.2804 26.4229 5.9204C26.4229 5.9204 26.5821 6.7204 25.3084 6.5604V6.8804L25.1492 9.7604C25.1492 9.7604 25.1492 10.0804 25.6268 10.0804C25.6268 10.0804 26.4229 10.0804 26.4229 10.7204C26.4229 10.7204 26.4229 11.5204 25.4676 11.3604L25.1492 11.5204V12.6404C25.1492 12.6404 25.1492 13.1204 24.5124 13.1204H20.6915ZM13.6865 16.8004L13.8457 16.6404L14.3234 16.4804L15.7562 16.6404C15.7562 16.6404 17.189 16.6404 17.8258 16.3204H18.1443L18.6219 16.4804H19.4179C19.4179 16.4804 19.8955 16.6404 19.8955 16.9604V18.2404H20.5323C20.5323 18.2404 21.1691 18.4004 21.0099 18.7204C21.0099 18.7204 21.0099 19.2004 20.6915 19.2004L20.0547 19.3604L19.8955 19.8404L19.7363 22.5604C19.7363 22.5604 19.7363 22.8804 20.2139 22.8804C20.2139 22.8804 20.8507 22.8804 21.0099 23.2004C21.0099 23.2004 21.1691 23.8404 20.8507 24.0004H20.6915L20.0547 24.1604L19.7363 24.6404V25.2804C19.7363 25.2804 19.8955 25.9204 19.4179 25.9204H14.4826L14.1642 26.0804C14.1642 26.0804 13.6865 26.5604 13.2089 26.2404L12.8905 25.9204H12.5721L8.59201 26.0804C8.59201 26.0804 7.63679 26.0804 7.63679 25.7604V24.6404C7.63679 24.6404 7.63679 24.1604 7.31838 24.1604H6.52236C6.52236 24.1604 6.04475 23.6804 6.20395 23.3604L6.84077 22.8804H7.47758V22.5604L7.63679 19.6804C7.63679 19.6804 7.63679 19.3604 7.31838 19.3604H6.84077C6.84077 19.3604 6.36316 19.3604 6.20395 19.0404V18.5604C6.20395 18.5604 6.52236 18.0804 7.15918 18.2404L7.63679 18.0804V16.9604C7.63679 16.9604 7.47758 16.6404 8.1144 16.4804C8.1144 16.4804 8.75122 16.8004 8.91042 16.3204C8.91042 16.3204 9.22883 15.8404 9.38803 16.1604C9.38803 16.1604 9.86565 16.6404 10.9801 16.6404L12.8905 16.4804L13.5273 16.8004H13.6865ZM7.79599 13.1204C7.79599 13.1204 7.47758 13.9204 6.52236 13.1204L2.86067 12.9604C2.86067 12.9604 2.38306 13.1204 2.22385 12.6404L2.38306 11.5204L1.90544 11.3604C1.90544 11.3604 1.10942 11.3604 1.10942 10.7204C1.10942 10.7204 0.95022 10.0804 2.06465 10.0804C2.06465 10.0804 2.38306 10.2404 2.38306 9.7604V6.7204C2.38306 6.7204 2.38306 6.4004 1.90544 6.4004C1.90544 6.4004 1.26863 6.5604 1.10942 6.0804C1.10942 6.0804 1.10942 5.4404 1.58704 5.2804H2.22385L2.38306 4.8004V3.8404L2.86067 3.6804H3.49748L3.81589 3.3604L4.1343 3.5204C4.1343 3.5204 4.77112 3.8404 6.68156 3.6804H6.99997C6.99997 3.6804 7.47758 4.0004 7.63679 3.6804H8.91042C8.91042 3.6804 10.0248 4.0004 10.6617 3.3604H10.9801C10.9801 3.3604 11.2985 3.8404 11.4577 3.6804L12.2537 3.8404L12.4129 4.9604C12.4129 4.9604 12.2537 5.4404 12.8905 5.4404C12.8905 5.4404 13.5273 5.2804 13.5273 5.9204C13.5273 5.9204 13.6865 6.7204 12.4129 6.5604V6.8804L12.2537 9.7604C12.2537 9.7604 12.2537 10.0804 12.7313 10.0804C12.7313 10.0804 13.5273 10.0804 13.5273 10.7204C13.5273 10.7204 13.5273 11.5204 12.5721 11.3604L12.2537 11.5204V12.6404C12.2537 12.6404 12.2537 13.1204 11.6169 13.1204H7.79599Z" fill="white"/>
<path d="M20.6915 13.1202C20.6915 13.1202 20.3731 13.9202 19.4179 13.1202L15.7562 12.9602C15.7562 12.9602 15.2786 13.1202 15.1194 12.6402L15.2786 11.5202L14.801 11.3602C14.801 11.3602 14.0049 11.3602 14.0049 10.7202C14.0049 10.7202 13.8457 10.0802 14.9602 10.0802C14.9602 10.0802 15.2786 10.2402 15.2786 9.76015V6.72015C15.2786 6.72015 15.2786 6.40015 14.801 6.40015C14.801 6.40015 14.1641 6.56015 14.0049 6.08015C14.0049 6.08015 14.0049 5.44015 14.4825 5.28015H15.1194L15.2786 4.80015V3.84015L15.7562 3.68015H16.393L16.7114 3.36015L17.0298 3.52015C17.0298 3.52015 17.6666 3.84015 19.5771 3.68015H19.8955C19.8955 3.68015 20.3731 4.00015 20.5323 3.68015H21.8059C21.8059 3.68015 22.9204 4.00015 23.5572 3.36015H23.8756C23.8756 3.36015 24.194 3.84015 24.3532 3.68015L25.1492 3.84015L25.3084 4.96015C25.3084 4.96015 25.1492 5.44015 25.786 5.44015C25.786 5.44015 26.4228 5.28015 26.4228 5.92015C26.4228 5.92015 26.582 6.72015 25.3084 6.56015V6.88015L25.1492 9.76015C25.1492 9.76015 25.1492 10.0802 25.6268 10.0802C25.6268 10.0802 26.4228 10.0802 26.4228 10.7202C26.4228 10.7202 26.4228 11.5202 25.4676 11.3602L25.1492 11.5202V12.6402C25.1492 12.6402 25.1492 13.1202 24.5124 13.1202H20.6915Z" fill="#12110C"/>
<path d="M16.5518 4.15999V11.04C16.5518 11.04 16.5518 11.52 16.2334 11.68L16.0742 11.36V4.95999C16.0742 4.95999 16.2334 4.15999 16.5518 4.15999Z" fill="white"/>
<path d="M15.9154 11.8402V5.60024C15.9154 5.60024 15.7562 4.48024 16.0746 4.16024C16.0746 4.16024 16.0746 3.68024 15.597 4.16024L15.4378 5.12024C15.4378 5.12024 15.4378 5.60024 15.1193 5.60024L14.3233 5.76024C14.3233 5.76024 14.1641 6.24024 14.6417 6.24024C14.6417 6.24024 15.4378 6.24024 15.4378 6.56024V9.76024C15.4378 9.76024 15.597 10.4002 14.9601 10.4002C14.9601 10.4002 14.3233 10.2402 14.3233 10.7202C14.3233 10.7202 14.4825 11.2002 15.1193 11.0402C15.1193 11.0402 15.597 11.0402 15.4378 11.5202V12.3202C15.4378 12.3202 15.4378 12.6402 15.9154 12.6402H19.2586C19.2586 12.6402 19.4179 12.8002 19.4179 12.4802L19.0994 12.3202H16.393C16.393 12.3202 15.9154 12.4802 15.9154 11.8402Z" fill="white"/>
<path d="M16.5525 11.6806C16.5525 11.6806 16.3933 12.0006 16.7117 12.0006H18.9406L19.5774 12.1606C19.5774 12.1606 20.2142 12.0006 19.5774 11.6806H17.3485L16.8709 11.5206C16.8709 11.5206 16.7117 11.3606 16.5525 11.6806Z" fill="white"/>
<path d="M20.2142 12.0001C20.2142 12.0001 19.7366 12.0001 19.8958 12.6401C19.8958 12.6401 19.8958 12.9601 20.3734 12.9601C20.3734 12.9601 20.6918 12.9601 20.6918 12.4801L20.2142 12.0001ZM20.5326 11.8401L20.851 11.6801C20.851 11.6801 23.0799 11.8401 23.3983 11.5201H23.7167L24.0351 12.0001H23.7167L21.1694 12.1601C21.1694 12.1601 20.3734 12.1601 20.5326 11.8401Z" fill="white"/>
<path d="M20.8512 12.4806L21.1696 12.3206H24.1945C24.1945 12.3206 24.3537 12.4806 24.3537 12.0006L24.5129 7.0406V4.6406L24.3537 4.3206C24.3537 4.3206 24.3537 3.8406 24.8313 4.0006C24.8313 4.0006 25.1497 4.0006 24.9905 4.4806V5.2806C24.9905 5.2806 24.9905 5.6006 25.4681 5.6006C25.4681 5.6006 26.1049 5.6006 26.1049 5.9206C26.1049 5.9206 26.2641 6.2406 25.6273 6.2406H25.1497C25.1497 6.2406 24.8313 6.4006 24.9905 6.7206L24.8313 9.7606C24.8313 9.7606 24.8313 10.4006 25.3089 10.4006H26.1049C26.1049 10.4006 26.4233 11.0406 25.6273 11.0406H24.9905L24.8313 12.1606C24.8313 12.1606 24.8313 12.8006 24.3537 12.8006L21.1696 12.6406C21.1696 12.6406 20.8512 12.8006 20.8512 12.4806ZM16.8711 4.0006V10.8806C16.8711 10.8806 16.8711 11.2006 17.3487 11.3606H19.5776C19.5776 11.3606 19.896 11.6806 19.896 11.3606V4.4806C19.896 4.4806 19.896 4.0006 19.5776 4.0006H17.8263L17.1895 3.6806L16.8711 4.0006Z" fill="white"/>
<path d="M20.3731 4.31999L20.2139 7.67999V11.36C20.2139 11.36 20.2139 11.68 20.3731 11.52L21.4875 11.36H23.2387L23.3979 11.04C23.4235 8.63946 23.4766 6.2393 23.5572 3.83999H23.0795C23.0795 3.83999 23.2387 3.99999 21.1691 3.99999C21.1691 3.99999 20.3731 3.99999 20.3731 4.31999ZM23.7164 4.15999V11.04C23.7164 11.04 23.8756 11.68 24.194 11.68V11.36L24.3532 4.79999C24.3532 4.79999 24.194 3.67999 23.7164 4.15999Z" fill="white"/>
<path d="M21.1695 6.2404C21.0103 6.0804 21.4879 6.0804 21.4879 6.0804H21.6472L21.9656 6.2404C22.1248 6.4004 21.8064 6.5604 21.8064 6.5604V9.1204L21.9656 9.4404L21.8064 9.6004H21.1695L21.0103 9.2804L21.3287 8.8004V6.7204L21.1695 6.2404ZM18.1447 8.3204V8.9604L18.3039 9.2804V9.6004H17.5078V9.2804L17.6671 8.8004V6.7204L17.5078 6.4004V6.2404L17.8263 6.0804H18.7815C19.5775 6.4004 19.5775 7.0404 19.5775 7.0404C19.5775 7.6804 18.9407 8.0004 18.9407 8.0004V8.3204L19.5775 9.2804V9.4404C19.5775 9.7604 19.0999 9.4404 19.0999 9.4404L18.3039 8.1604L18.1447 8.3204ZM18.1447 6.5604V7.6804C18.6223 8.0004 18.9407 7.5204 18.9407 7.5204C19.4183 7.0404 18.9407 6.5604 18.7815 6.4004H18.3039L18.1447 6.5604ZM13.687 16.8004L13.8462 16.6404L14.3238 16.4804L15.7566 16.6404C15.7566 16.6404 17.1894 16.6404 17.8263 16.3204H18.1447L18.6223 16.4804H19.4183C19.4183 16.4804 19.8959 16.6404 19.8959 16.9604V18.2404H20.5327C20.5327 18.2404 21.1695 18.4004 21.0103 18.7204C21.0103 18.7204 21.0103 19.2004 20.6919 19.2004L20.0551 19.3604L19.8959 19.8404L19.7367 22.5604C19.7367 22.5604 19.7367 22.8804 20.2143 22.8804C20.2143 22.8804 20.8511 22.8804 21.0103 23.2004C21.0103 23.2004 21.1695 23.8404 20.8511 24.0004H20.6919L20.0551 24.1604L19.7367 24.6404V25.2804C19.7367 25.2804 19.8959 25.9204 19.4183 25.9204H14.483L14.1646 26.0804C14.1646 26.0804 13.687 26.5604 13.2093 26.2404L12.8909 25.9204H12.5725L8.59243 26.0804C8.59243 26.0804 7.6372 26.0804 7.6372 25.7604V24.6404C7.6372 24.6404 7.6372 24.1604 7.31879 24.1604H6.52277C6.52277 24.1604 6.04516 23.6804 6.20437 23.3604L6.84118 22.8804H7.478V22.5604L7.6372 19.6804C7.6372 19.6804 7.6372 19.3604 7.31879 19.3604H6.84118C6.84118 19.3604 6.36357 19.3604 6.20437 19.0404V18.5604C6.20437 18.5604 6.52277 18.0804 7.15959 18.2404L7.6372 18.0804V16.9604C7.6372 16.9604 7.478 16.6404 8.11481 16.4804C8.11481 16.4804 8.75163 16.8004 8.91083 16.3204C8.91083 16.3204 9.22924 15.8404 9.38845 16.1604C9.38845 16.1604 9.86606 16.6404 10.9805 16.6404L12.8909 16.4804L13.5278 16.8004H13.687Z" fill="#12110C"/>
<path d="M14.1642 25.2803H14.6418L17.3483 25.1203H18.9403V24.8003L19.0995 24.0003V17.7603C19.0995 17.7603 19.2587 17.2803 18.9403 16.9603V16.8003H19.0995L19.4179 16.9603C19.4179 16.9603 19.7363 17.4403 19.5771 17.7603C19.5771 17.7603 19.4179 18.4003 19.7363 18.4003H20.214L20.6916 18.7203C20.6916 18.7203 20.6916 19.0403 20.3732 19.0403H19.8956C19.8956 19.0403 19.4179 19.0403 19.5771 19.5203V22.8803C19.5771 22.8803 19.5771 23.2003 20.0548 23.2003L20.6916 23.3603C20.6916 23.3603 20.8508 23.8403 20.3732 23.8403C20.3732 23.8403 19.5771 23.8403 19.5771 24.1603L19.4179 24.8003V25.4403L18.7811 25.6003H14.4826C14.4826 25.6003 14.1642 25.6003 14.1642 25.2803ZM13.5274 24.9603C13.5274 24.9603 14.005 24.9603 14.005 25.2803C14.005 25.6003 14.005 25.9203 13.6866 25.9203C13.5274 25.9203 13.209 25.9203 13.209 25.6003C13.209 25.2803 13.209 24.9603 13.5274 24.9603Z" fill="white"/>
<path d="M14.0049 24.6405L14.4825 24.4805H17.3482L17.985 24.3205L18.3034 24.4805L18.6218 24.8005L18.3034 24.9605H14.6417C14.6417 24.9605 14.0049 25.1205 14.0049 24.6405Z" fill="white"/>
<path d="M8.91023 16.9602V23.8402C8.91023 23.8402 9.06943 24.3202 8.59182 24.4802C8.59182 24.4802 8.43262 24.8002 8.43262 24.4802L8.59182 17.7602C8.59182 17.7602 8.59182 17.2802 8.91023 16.9602Z" fill="white"/>
<path d="M8.59211 16.9602L8.2737 17.6002V24.8002C8.2737 24.8002 8.1145 25.4402 8.59211 25.2802H12.5722C12.5722 25.2802 13.0498 25.2802 12.8906 25.4402L12.5722 25.6002H7.9553L7.79609 24.9602V24.3202C7.79609 24.3202 7.79609 24.0002 7.31848 23.8402C7.31848 23.8402 6.52246 24.0002 6.52246 23.5202C6.52246 23.5202 6.68166 23.2002 7.31848 23.2002C7.31848 23.2002 7.9553 23.3602 7.79609 22.8802L7.9553 19.6802C7.9553 19.6802 7.9553 19.2002 7.63689 19.2002H7.15928C7.15928 19.2002 6.52246 19.2002 6.52246 18.7202C6.52246 18.7202 6.68166 18.4002 7.31848 18.4002C7.31848 18.4002 7.79609 18.5602 7.9553 18.0802C7.9553 18.0802 7.79609 16.9602 8.1145 16.8002L8.59211 16.9602Z" fill="white"/>
<path d="M9.22848 24.1604C9.22848 24.1604 9.38768 24.6404 10.0245 24.4804L12.8902 24.6404L13.2086 24.8004C13.2086 24.8004 13.2086 25.1204 12.731 24.9604H8.91007C8.91007 24.9604 8.59166 24.9604 8.91007 24.3204L9.22848 24.1604Z" fill="white"/>
<path d="M18.3037 24.0003L18.6221 24.4803C18.6221 24.4803 18.9405 24.8003 18.7813 24.3203L18.9405 18.0803V17.4403L18.6221 16.9603C18.6221 16.9603 18.3037 16.8003 18.3037 17.1203V23.8403V24.0003Z" fill="white"/>
<path d="M13.527 20.9604L13.3678 21.9204V24.1604C13.3678 24.1604 13.3678 24.4804 12.8902 24.1604H10.0245C10.0245 24.1604 9.22852 24.1604 9.22852 23.8404V16.8004C9.22852 16.8004 9.22852 16.4804 9.54692 16.6404C9.54692 16.6404 9.70613 16.9604 10.5021 16.8004H12.8902C12.8902 16.8004 13.3678 16.8004 13.3678 17.2804V18.5604L13.527 19.0404L13.6862 18.8804V18.5604L13.8454 17.1204C13.8454 17.1204 13.8454 16.8004 14.1638 16.8004H16.3927C16.7111 16.8004 16.8703 17.1204 17.8255 16.4804L17.9847 16.8004V23.6804C17.9847 23.6804 17.9847 24.1604 17.3479 24.1604H14.8007L13.8454 24.3204L13.6862 24.1604V20.9604H13.527Z" fill="white"/>
<path d="M11.4577 19.3607V21.6007L11.6169 21.9207V22.2407H10.8209C10.8209 22.2407 10.5025 22.2407 10.8209 21.7607L10.9801 21.2807V19.3607L10.8209 19.0407H10.6617L10.3433 19.3607C10.3433 19.3607 10.1841 19.6807 10.0248 19.3607V19.2007L10.3433 18.5607L10.8209 18.7207H11.7761L12.0945 18.5607L12.2537 18.8807C12.2537 18.8807 12.4129 19.3607 12.0945 19.3607L11.7761 19.0407C11.7761 19.0407 11.4577 18.8807 11.4577 19.3607ZM16.2338 18.8807C16.2338 18.8807 15.4378 18.7207 15.4378 19.6807C15.4378 19.6807 15.2786 20.3207 16.2338 20.6407C16.2338 20.6407 16.8706 20.9607 16.8706 21.4407C16.8706 21.4407 16.8706 22.0807 16.0746 21.7607L15.7562 21.4407L15.597 21.2807L15.4378 21.9207C15.4378 21.9207 15.4378 22.2407 15.7562 21.9207L15.9154 22.0807C15.9154 22.0807 16.5522 22.5607 17.0298 21.9207C17.0298 21.9207 17.5074 21.4407 17.189 20.8007C17.189 20.8007 16.8706 20.3207 16.393 20.1607C16.393 20.1607 15.9154 20.0007 15.7562 19.5207C15.7562 19.5207 15.9154 18.8807 16.5522 19.2007L16.8706 19.5207L17.0298 19.2007V18.8807C17.0298 18.8807 16.8706 18.5607 16.7114 18.8807H16.2338ZM13.6865 18.4007L13.8457 18.7207C14.3234 19.8407 14.6418 21.6007 14.6418 21.6007L14.9602 21.9207C15.2786 22.0807 14.9602 22.2407 14.9602 22.2407L14.3234 22.0807H14.1642V21.4407L14.0049 20.9607L13.6865 21.1207H13.3681L13.2089 20.9607L12.8905 21.6007V22.0807H12.4129C12.0945 22.0807 12.2537 21.9207 12.2537 21.9207C12.6663 20.8149 13.038 19.6941 13.3681 18.5607C13.5273 18.5607 13.5273 18.2407 13.6865 18.4007ZM13.3681 19.8407L13.0497 20.4807L13.2089 20.8007H13.6865L13.8457 20.4807L13.6865 19.8407L13.5273 19.6807L13.3681 19.8407ZM7.79599 13.1207C7.79599 13.1207 7.47758 13.9207 6.52236 13.1207L2.86067 12.9607C2.86067 12.9607 2.38306 13.1207 2.22385 12.6407L2.38306 11.5207L1.90544 11.3607C1.90544 11.3607 1.10942 11.3607 1.10942 10.7207C1.10942 10.7207 0.95022 10.0807 2.06465 10.0807C2.06465 10.0807 2.38306 10.2407 2.38306 9.76068V6.72068C2.38306 6.72068 2.38306 6.40068 1.90544 6.40068C1.90544 6.40068 1.26863 6.56068 1.10942 6.08068C1.10942 6.08068 1.10942 5.44068 1.58704 5.28068H2.22385L2.38306 4.80068V3.84068L2.86067 3.68068H3.49748L3.81589 3.36068L4.1343 3.52068C4.1343 3.52068 4.77112 3.84068 6.68156 3.68068H6.99997C6.99997 3.68068 7.47758 4.00068 7.63679 3.68068H8.91042C8.91042 3.68068 10.0248 4.00068 10.6617 3.36068H10.9801C10.9801 3.36068 11.2985 3.84068 11.4577 3.68068L12.2537 3.84068L12.4129 4.96068C12.4129 4.96068 12.2537 5.44068 12.8905 5.44068C12.8905 5.44068 13.5273 5.28068 13.5273 5.92068C13.5273 5.92068 13.6865 6.72068 12.4129 6.56068V6.88068L12.2537 9.76068C12.2537 9.76068 12.2537 10.0807 12.7313 10.0807C12.7313 10.0807 13.5273 10.0807 13.5273 10.7207C13.5273 10.7207 13.5273 11.5207 12.5721 11.3607L12.2537 11.5207V12.6407C12.2537 12.6407 12.2537 13.1207 11.6169 13.1207H7.79599Z" fill="#12110C"/>
<path d="M3.65632 4.15999V11.04C3.65632 11.04 3.65632 11.52 3.33791 11.68L3.17871 11.36V4.95999C3.17871 4.95999 3.33791 4.15999 3.65632 4.15999Z" fill="white"/>
<path d="M3.01986 11.8402C3.0095 9.76025 3.0095 7.68022 3.01986 5.60024L3.17906 4.16024C3.17906 4.16024 3.17906 3.68024 2.70145 4.16024V5.12024C2.70145 5.12024 2.70145 5.60024 2.22384 5.60024L1.42782 5.76024C1.42782 5.76024 1.26861 6.24024 1.74622 6.24024C1.74622 6.24024 2.54224 6.24024 2.54224 6.56024V9.76024C2.54224 9.76024 2.70145 10.4002 2.06463 10.4002C2.06463 10.4002 1.42782 10.2402 1.42782 10.7202C1.42782 10.7202 1.58702 11.2002 2.22384 11.0402C2.22384 11.0402 2.70145 11.0402 2.70145 11.5202V12.3202C2.70145 12.3202 2.54224 12.6402 3.01986 12.6402H6.36314C6.36314 12.6402 6.52234 12.8002 6.52234 12.4802L6.36314 12.3202H3.49747C3.49747 12.3202 3.01986 12.4802 3.01986 11.8402Z" fill="white"/>
<path d="M3.49707 11.8406C3.49707 11.8406 3.49707 12.1606 3.81548 12.0006H6.04433L6.68115 12.1606C6.68115 12.1606 7.31797 12.0006 6.68115 11.6806H4.45229L3.97468 11.5206C3.97468 11.5206 3.81548 11.3606 3.49707 11.8406Z" fill="white"/>
<path d="M7.31843 12.16C7.31843 12.16 6.84082 12.16 6.84082 12.64C6.84082 12.64 6.84082 13.12 7.31843 13.12C7.31843 13.12 7.79604 12.96 7.63684 12.64C7.63684 12.64 7.47764 12 7.31843 12.16ZM7.63684 11.84L7.95525 11.68H10.8209L11.1393 12L10.8209 12.16H8.11445C8.11445 12.16 7.47764 12.32 7.63684 11.84Z" fill="white"/>
<path d="M7.95569 12.4806L8.27409 12.3206H11.299C11.299 12.3206 11.4582 12.4806 11.4582 12.0006L11.6174 7.0406V4.6406L11.4582 4.3206C11.4582 4.3206 11.4582 3.8406 11.9358 4.0006C11.9358 4.0006 12.2542 4.0006 12.095 4.4806V5.2806C12.095 5.2806 12.095 5.6006 12.5726 5.6006C12.5726 5.6006 13.2094 5.6006 13.2094 5.9206C13.2094 5.9206 13.3686 6.2406 12.7318 6.2406H12.2542L12.095 6.7206V9.7606C12.095 9.7606 11.9358 10.4006 12.5726 10.4006H13.2094C13.2094 10.4006 13.5278 11.0406 12.7318 11.0406H12.095L11.9358 12.1606C11.9358 12.1606 11.9358 12.8006 11.6174 12.8006L8.27409 12.6406C8.27409 12.6406 7.95569 12.8006 7.95569 12.4806ZM3.97559 4.0006V10.8806C3.97559 10.8806 3.97559 11.2006 4.4532 11.3606H6.68205C6.68205 11.3606 7.00046 11.6806 7.00046 11.3606L7.15967 4.4806C7.15967 4.4806 7.00046 4.0006 6.68205 4.0006H4.93081L4.29399 3.6806L3.97559 4.0006Z" fill="white"/>
<path d="M10.8213 4.15999V11.04C10.8213 11.04 10.9805 11.68 11.2989 11.68V11.36L11.4581 4.79999C11.4581 4.79999 11.2989 3.67999 10.8213 4.15999Z" fill="white"/>
<path d="M7.47756 4.32008L7.31836 7.68008V11.3601L7.47756 11.5201C7.47756 11.5201 8.11438 11.2001 8.59199 11.3601C8.59199 11.3601 10.0248 11.5201 10.3432 11.2001C10.3432 11.2001 10.5024 11.3601 10.5024 11.0401C10.526 8.63951 10.5791 6.23933 10.6616 3.84008H10.3432L8.27358 4.00008C8.27358 4.00008 7.47756 3.84008 7.47756 4.32008Z" fill="white"/>
<path d="M6.84097 6.23997L6.52256 6.71997L5.88575 9.27998C5.88575 9.27998 5.72654 9.59998 5.40814 9.27998L4.61212 6.55998L4.29371 6.39998C4.29371 6.39998 4.1345 6.07998 4.45291 6.07998H5.24893C5.24893 6.07998 5.40814 6.39998 5.08973 6.55998L5.56734 8.31998C5.56734 8.31998 5.72654 8.79998 5.88575 8.31998L6.36336 6.87998L6.20416 6.39998V6.07998L6.84097 6.23997ZM7.9554 6.55998V9.11998L7.7962 9.43998C7.7962 9.43998 7.63699 9.59998 9.22903 9.59998C9.22903 9.59998 9.86585 9.59998 9.70664 8.95998C9.70664 8.95998 9.70664 8.63998 9.38824 8.95998C9.38824 8.95998 9.38824 9.43998 8.59222 9.27998L8.43301 8.95998V7.99998C8.43301 7.99998 8.43301 7.67998 8.75142 7.83998H9.22903V7.35998H9.06983C9.06983 7.35998 8.91062 7.67998 8.59222 7.51998C8.59222 7.51998 8.27381 7.19998 8.43301 6.87998C8.43301 6.87998 8.43301 6.39998 8.75142 6.39998L9.22903 6.55998C9.22903 6.55998 9.38824 6.87998 9.54744 6.55998L9.38824 6.23997L9.22903 6.07998H8.43301L7.7962 6.23997C7.7962 6.23997 7.63699 6.39998 7.9554 6.55998Z" fill="#12110C"/>
</svg>
