<svg width="16" height="16" viewBox="0 0 16 16" fill="none" xmlns="http://www.w3.org/2000/svg">
<g clip-path="url(#clip0_228_1487)">
<path d="M14.6663 2.67334C13.9997 3.00001 13.3463 3.13268 12.6663 3.33334C11.919 2.49001 10.811 2.44334 9.74634 2.84201C8.68167 3.24068 7.98434 4.21534 7.99967 5.33334V6.00001C5.83634 6.05534 3.90967 5.07001 2.66634 3.33334C2.66634 3.33334 -0.121659 8.28868 5.33301 10.6667C4.08501 11.498 2.84034 12.0587 1.33301 12C3.53834 13.202 5.94167 13.6153 8.02234 13.0113C10.409 12.318 12.3703 10.5293 13.123 7.85001C13.3475 7.03512 13.459 6.19325 13.4543 5.34801C13.453 5.18201 14.461 3.50001 14.6663 2.67268V2.67334Z" fill="#71717A"/>
</g>
<defs>
<clipPath id="clip0_228_1487">
<rect width="16" height="16" fill="white"/>
</clipPath>
</defs>
</svg>
