<svg width="15" height="34" viewBox="0 0 15 34" fill="none" xmlns="http://www.w3.org/2000/svg">
<path d="M3.14746 20.8182H7.57393C8.4494 20.8182 9.30522 21.1168 10.0331 21.6762C10.7611 22.2355 11.3284 23.0306 11.6635 23.9609C11.9985 24.8911 12.0861 25.9147 11.9153 26.9023C11.7446 27.8898 11.323 28.7969 10.7039 29.5089C10.0849 30.2209 9.29614 30.7057 8.43749 30.9022C7.57884 31.0986 6.68883 30.9978 5.87999 30.6125C5.07116 30.2272 4.37984 29.5746 3.89346 28.7374C3.40707 27.9003 3.14746 26.916 3.14746 25.9091V13.1818C3.14746 10.4814 4.08018 7.89165 5.74043 5.98218C7.40068 4.07272 9.65246 3 12.0004 3" stroke="#FAFAFA" stroke-width="5" stroke-linecap="round" stroke-linejoin="round"/>
</svg>
